<svg width="195" height="159" viewBox="0 0 195 159" fill="none" xmlns="http://www.w3.org/2000/svg">
<path d="M149.183 144.815L149.561 143.889L149.183 144.815ZM111.115 115.018C110.573 114.914 110.049 115.269 109.944 115.811L108.247 124.65C108.142 125.192 108.498 125.716 109.04 125.82C109.582 125.925 110.106 125.569 110.211 125.027L111.72 117.171L119.576 118.68C120.119 118.784 120.643 118.429 120.747 117.887C120.851 117.344 120.496 116.82 119.954 116.716L111.115 115.018ZM189.851 152.667C189.67 151.683 189.671 151.683 189.671 151.683C189.671 151.683 189.672 151.683 189.672 151.683C189.672 151.683 189.672 151.683 189.672 151.683C189.671 151.683 189.67 151.683 189.667 151.684C189.663 151.685 189.655 151.686 189.643 151.688C189.619 151.692 189.581 151.698 189.529 151.706C189.425 151.722 189.265 151.744 189.048 151.77C188.615 151.82 187.959 151.883 187.087 151.926C185.343 152.013 182.734 152.022 179.317 151.705C172.484 151.071 162.413 149.132 149.561 143.889L148.806 145.74C161.839 151.058 172.102 153.044 179.132 153.697C182.646 154.023 185.35 154.015 187.186 153.924C188.104 153.878 188.805 153.812 189.282 153.756C189.52 153.728 189.702 153.702 189.827 153.684C189.89 153.674 189.938 153.666 189.972 153.661C189.989 153.658 190.002 153.656 190.012 153.654C190.017 153.653 190.021 153.652 190.024 153.652C190.026 153.652 190.027 153.651 190.028 153.651C190.029 153.651 190.029 153.651 190.03 153.651C190.03 153.651 190.031 153.651 189.851 152.667ZM149.561 143.889C136.753 138.664 127.289 131.535 121.029 125.715C117.899 122.805 115.573 120.225 114.032 118.377C113.262 117.453 112.688 116.713 112.309 116.206C112.12 115.953 111.979 115.758 111.887 115.628C111.84 115.563 111.806 115.514 111.784 115.482C111.773 115.467 111.765 115.455 111.76 115.448C111.758 115.444 111.756 115.441 111.755 115.44C111.755 115.439 111.754 115.439 111.754 115.439C111.754 115.439 111.754 115.439 111.754 115.439C111.754 115.439 111.754 115.439 110.927 116C110.099 116.561 110.099 116.561 110.099 116.562C110.099 116.562 110.1 116.563 110.1 116.563C110.101 116.564 110.102 116.565 110.103 116.567C110.105 116.57 110.107 116.574 110.111 116.579C110.118 116.589 110.128 116.604 110.141 116.623C110.168 116.661 110.206 116.716 110.257 116.787C110.358 116.93 110.509 117.138 110.708 117.404C111.107 117.937 111.702 118.705 112.496 119.658C114.084 121.562 116.468 124.205 119.667 127.18C126.064 133.127 135.728 140.405 148.806 145.74L149.561 143.889Z" fill="#A3C4BC"/>
<path d="M10.7792 44.2003C10.7069 43.8667 10.523 43.6228 10.2276 43.4685C9.94267 43.312 9.59447 43.191 9.18302 43.1056C8.77975 43.0075 8.33998 42.9173 7.86373 42.835C7.39565 42.74 6.94572 42.6029 6.51393 42.4236C6.09032 42.2317 5.71047 41.9648 5.3744 41.6229C5.04876 41.2788 4.81927 40.7992 4.68593 40.1841C4.57067 39.6525 4.55983 39.1746 4.65343 38.7504C4.74476 38.3159 4.92376 37.9333 5.19042 37.6026C5.4675 37.2697 5.81661 36.9921 6.23775 36.7698C6.65888 36.5475 7.14569 36.3765 7.69819 36.2567C8.33409 36.1189 8.94593 36.0462 9.53371 36.0389C10.1192 36.0211 10.617 36.0769 11.0271 36.2063L10.7446 38.1503C10.4836 38.054 10.1113 37.9983 9.62778 37.9831C9.14198 37.9574 8.63326 38.0022 8.10161 38.1175C7.60123 38.226 7.23699 38.4086 7.0089 38.6654C6.79123 38.92 6.71855 39.2141 6.79087 39.5477C6.85867 39.8604 7.03505 40.095 7.32002 40.2515C7.61541 40.4058 7.96474 40.532 8.36802 40.6301C8.78172 40.7259 9.22261 40.8214 9.6907 40.9163C10.1692 41.0091 10.6203 41.1514 11.0439 41.3433C11.4757 41.5226 11.8544 41.7843 12.18 42.1284C12.5138 42.4599 12.744 42.9175 12.8706 43.5013C12.9971 44.0851 13.0077 44.6121 12.9023 45.0825C12.8051 45.5401 12.6097 45.9481 12.3163 46.3064C12.0333 46.6624 11.6564 46.9625 11.1854 47.2065C10.7248 47.4482 10.1974 47.6335 9.60321 47.7623C8.82137 47.9318 8.11754 48.008 7.4917 47.9909C6.86586 47.9738 6.39639 47.9227 6.08329 47.8378L6.37468 45.8591C6.50291 45.8968 6.66354 45.933 6.85658 45.9675C7.06004 45.9998 7.28322 46.0224 7.52612 46.0352C7.76901 46.048 8.02008 46.0482 8.27931 46.0356C8.54896 46.0208 8.8193 45.984 9.09034 45.9253C9.72623 45.7874 10.1884 45.5781 10.4768 45.2973C10.7733 45.0038 10.8741 44.6381 10.7792 44.2003ZM20.3694 44.6915C20.1064 44.9886 19.7632 45.2431 19.3398 45.455C18.9291 45.675 18.4892 45.8358 18.0201 45.9375C17.3946 46.0731 16.8415 46.0894 16.3607 45.9862C15.8904 45.8808 15.4812 45.6803 15.1334 45.3846C14.7832 45.0785 14.4902 44.6836 14.2544 44.1999C14.029 43.714 13.8496 43.1635 13.7163 42.5485C13.4293 41.2246 13.506 40.1438 13.9465 39.3061C14.3848 38.458 15.172 37.9107 16.3083 37.6644C16.8816 37.5401 17.3505 37.4876 17.7148 37.5068C18.0896 37.5238 18.4336 37.5747 18.7467 37.6597L18.6213 39.4222C18.3566 39.3596 18.0977 39.3229 17.8443 39.3124C17.6014 39.2995 17.3288 39.3259 17.0265 39.3914C16.4636 39.5135 16.0769 39.7938 15.8664 40.2323C15.6536 40.6605 15.6353 41.2811 15.8116 42.0942C15.8839 42.4278 15.9871 42.7274 16.1211 42.993C16.2551 43.2587 16.4176 43.4799 16.6088 43.6568C16.7999 43.8336 17.0237 43.9597 17.2802 44.0351C17.5448 44.0978 17.8335 44.0952 18.1462 44.0274C18.4902 43.9529 18.7731 43.8479 18.9947 43.7125C19.2142 43.5667 19.4041 43.4109 19.5647 43.2451L20.3694 44.6915ZM20.2214 41.1382C19.9344 39.8143 20.0372 38.7278 20.5298 37.8788C21.0202 37.0194 21.8492 36.4631 23.0167 36.21C23.6422 36.0744 24.2057 36.0559 24.7073 36.1546C25.209 36.2532 25.6505 36.4521 26.0319 36.7515C26.411 37.0404 26.729 37.4244 26.9856 37.9035C27.2527 38.3804 27.453 38.9264 27.5863 39.5415C27.8733 40.8654 27.7717 41.957 27.2813 42.8164C26.7991 43.6632 25.9742 44.2131 24.8066 44.4662C24.1812 44.6018 23.6176 44.6203 23.116 44.5217C22.6144 44.4231 22.1688 44.2304 21.7792 43.9438C21.3978 43.6445 21.0736 43.2564 20.8064 42.7795C20.5498 42.3003 20.3547 41.7532 20.2214 41.1382ZM22.3167 40.6839C22.3913 41.0279 22.4915 41.3391 22.6173 41.6174C22.7432 41.8957 22.8924 42.1308 23.0649 42.3226C23.2375 42.5144 23.4363 42.6514 23.6615 42.7335C23.8949 42.803 24.1523 42.8072 24.4337 42.7462C24.9654 42.6309 25.3197 42.3522 25.4967 41.91C25.6737 41.4678 25.6718 40.8297 25.491 39.9957C25.335 39.2764 25.0897 38.7239 24.755 38.338C24.4181 37.9417 23.963 37.8058 23.3896 37.9301C22.8892 38.0385 22.539 38.3109 22.3389 38.7472C22.1388 39.1835 22.1314 39.8291 22.3167 40.6839ZM27.3347 35.5031L28.4136 35.2692L28.095 33.7993L30.0023 32.7801L30.4464 34.8285L32.3541 34.4149L32.727 36.1349L30.8193 36.5485L31.4702 39.5508C31.5877 40.0928 31.7246 40.4725 31.8808 40.6896C32.0452 40.8941 32.2786 40.9636 32.5809 40.898C32.7894 40.8528 32.9621 40.7936 33.099 40.7202C33.2463 40.6446 33.4047 40.5448 33.5743 40.4207L34.2729 41.9064C34.0209 42.103 33.7174 42.2888 33.3624 42.464C33.0075 42.6392 32.6372 42.7686 32.2514 42.8522C31.5322 43.0081 30.961 42.941 30.5378 42.6507C30.1229 42.3477 29.8239 41.7741 29.6408 40.9297L28.7865 36.9892L27.7076 37.2231L27.3347 35.5031ZM32.6793 34.3444L33.7582 34.1105L33.4396 32.6406L35.3469 31.6214L35.791 33.6698L37.6987 33.2562L38.0716 34.9762L36.1639 35.3898L36.8148 38.3921C36.9323 38.9341 37.0692 39.3138 37.2254 39.5309C37.3898 39.7354 37.6232 39.8049 37.9255 39.7393C38.134 39.6941 38.3067 39.6349 38.4436 39.5615C38.5909 39.4859 38.7493 39.3861 38.9189 39.262L39.6175 40.7477C39.3655 40.9442 39.0619 41.1301 38.707 41.3053C38.3521 41.4805 37.9817 41.6099 37.596 41.6935C36.8767 41.8494 36.3055 41.7823 35.8824 41.492C35.4675 41.189 35.1685 40.6154 34.9854 39.771L34.1311 35.8305L33.0522 36.0644L32.6793 34.3444ZM42.0858 32.3051L43.1647 32.0712L42.8461 30.6013L44.7534 29.582L45.1975 31.6305L47.1052 31.2169L47.4781 32.9369L45.5704 33.3505L46.2213 36.3527C46.3388 36.8948 46.4757 37.2744 46.6319 37.4916C46.7963 37.6961 47.0296 37.7656 47.3319 37.7C47.5404 37.6548 47.7131 37.5955 47.85 37.5222C47.9974 37.4466 48.1558 37.3468 48.3254 37.2227L49.024 38.7084C48.7719 38.9049 48.4684 39.0908 48.1135 39.266C47.7585 39.4412 47.3882 39.5706 47.0025 39.6542C46.2832 39.8101 45.712 39.743 45.2889 39.4527C44.874 39.1497 44.575 38.576 44.3919 37.7317L43.5376 33.7912L42.4587 34.0251L42.0858 32.3051ZM48.4018 31.4105C48.7781 31.1325 49.2416 30.8792 49.7923 30.6507C50.3408 30.4117 50.9278 30.2244 51.5533 30.0888C52.0953 29.9713 52.5635 29.9407 52.9577 29.9972C53.3497 30.0431 53.6759 30.1634 53.9364 30.358C54.2073 30.5503 54.4206 30.8042 54.5763 31.1197C54.7425 31.4329 54.8707 31.7981 54.9611 32.215C55.0606 32.6737 55.1455 33.141 55.2159 33.6169C55.2841 34.0823 55.3616 34.5403 55.4483 34.9908C55.5455 35.4391 55.6561 35.8735 55.78 36.2941C55.9017 36.7043 56.0657 37.0835 56.2722 37.4317L54.6147 37.791L54.0524 36.7833L53.9742 36.8002C53.8358 37.1686 53.6049 37.5133 53.2816 37.8345C52.9665 38.1429 52.517 38.3604 51.9333 38.487C51.5684 38.5661 51.2287 38.5851 50.9143 38.5442C50.5975 38.4928 50.3134 38.3907 50.062 38.2378C49.8083 38.0745 49.5947 37.8698 49.4213 37.6236C49.2456 37.367 49.1205 37.0667 49.0459 36.7227C48.942 36.2431 48.9592 35.8192 49.0976 35.4508C49.2442 35.0698 49.4941 34.7373 49.8473 34.4534C50.2086 34.1567 50.6577 33.912 51.1943 33.7193C51.7392 33.5138 52.359 33.3522 53.0538 33.2343C53.0002 32.6347 52.8681 32.2268 52.6575 32.0105C52.4446 31.7838 52.0672 31.7292 51.5251 31.8467C51.1185 31.9348 50.695 32.0703 50.2544 32.2532C49.8242 32.4337 49.4778 32.6234 49.2153 32.8222L48.4018 31.4105ZM52.2429 36.6681C52.6495 36.5799 52.9534 36.4213 53.1548 36.1921C53.3539 35.9524 53.4881 35.7159 53.5576 35.4826L53.3372 34.4662C53.0073 34.505 52.6934 34.5676 52.3957 34.654C52.1083 34.7381 51.8578 34.8415 51.6443 34.9642C51.4308 35.0869 51.271 35.2307 51.1648 35.3956C51.0587 35.5605 51.0282 35.7472 51.0734 35.9557C51.1367 36.2476 51.2698 36.4588 51.4728 36.5895C51.6839 36.7074 51.9406 36.7336 52.2429 36.6681ZM59.681 33.2874L59.1337 33.406L59.8355 36.6428L57.8027 37.0835L55.4297 26.1378L57.4624 25.6971L58.8625 32.1551L59.2842 31.8344L60.3921 28.3363L62.6282 27.8515L61.3959 31.2293L60.7272 31.9964L61.7195 32.4198L64.6203 35.6055L62.2904 36.1106L59.681 33.2874ZM71.4093 33.4296C71.1508 33.7476 70.7697 34.054 70.2661 34.3487C69.7706 34.6308 69.2205 34.8373 68.6159 34.9684C67.3545 35.2419 66.3529 35.077 65.6109 34.4739C64.8667 33.8603 64.3556 32.9124 64.0776 31.6302C63.7793 30.2542 63.8839 29.1509 64.3915 28.3205C64.8991 27.4902 65.747 26.9461 66.9354 26.6885C67.3316 26.6026 67.7286 26.5711 68.1265 26.594C68.5243 26.6169 68.8952 26.7166 69.2391 26.893C69.5829 27.0695 69.8876 27.3418 70.1529 27.71C70.4183 28.0781 70.6165 28.5645 70.7476 29.1691C70.795 29.388 70.8302 29.626 70.8532 29.8829C70.8866 30.1376 70.9066 30.4062 70.9133 30.6885L66.2222 31.7055C66.3959 32.3555 66.67 32.8145 67.0447 33.0825C67.4297 33.3483 67.9662 33.4066 68.6543 33.2574C69.0817 33.1648 69.4486 33.0197 69.7551 32.8223C70.0697 32.6122 70.3009 32.4202 70.4488 32.2463L71.4093 33.4296ZM67.2567 28.3215C66.7251 28.4368 66.364 28.6842 66.1734 29.0639C65.991 29.4308 65.9314 29.8858 65.9945 30.4288L68.903 29.7982C68.8226 29.2262 68.6402 28.8128 68.3558 28.558C68.0818 28.3009 67.7154 28.222 67.2567 28.3215ZM76.0099 30.8769C75.9647 30.6684 75.8399 30.5208 75.6356 30.4342C75.4312 30.3475 75.1875 30.2803 74.9043 30.2325C74.621 30.1848 74.3118 30.1427 73.9764 30.1063C73.6388 30.0594 73.3194 29.9704 73.0181 29.8392C72.7146 29.6977 72.4425 29.5002 72.202 29.2467C71.9593 28.9828 71.787 28.6163 71.6853 28.1472C71.5181 27.3758 71.6197 26.7371 71.9903 26.2311C72.3608 25.7251 72.9787 25.3783 73.8439 25.1907C74.4381 25.0619 74.9886 25.0081 75.4952 25.0292C76.0019 25.0503 76.4076 25.1097 76.7126 25.2073L76.5778 26.7755C76.3177 26.7336 75.9939 26.7001 75.6064 26.675C75.219 26.6499 74.8376 26.678 74.4623 26.7593C73.8577 26.8904 73.6062 27.1905 73.7079 27.6596C73.7486 27.8472 73.87 27.9792 74.0721 28.0554C74.2742 28.1317 74.5168 28.1937 74.8 28.2414C75.081 28.2787 75.3902 28.3208 75.7278 28.3677C76.0654 28.4146 76.3849 28.5036 76.6862 28.6347C76.9852 28.7554 77.255 28.9425 77.4955 29.196C77.736 29.4495 77.9059 29.8055 78.0054 30.2642C78.1771 31.0565 78.0573 31.7373 77.646 32.3067C77.2428 32.8635 76.5356 33.2514 75.5244 33.4707C74.9719 33.5904 74.4349 33.6305 73.9133 33.5908C73.4044 33.5592 72.9784 33.4824 72.6354 33.3603L72.8695 31.7215C73.1387 31.805 73.486 31.8716 73.9115 31.9212C74.3348 31.9604 74.7549 31.9348 75.1719 31.8444C75.4742 31.7789 75.7015 31.6696 75.8539 31.5165C76.0166 31.3611 76.0686 31.148 76.0099 30.8769ZM81.2845 23.8068L82.3635 23.5729L82.0448 22.1031L83.9521 21.0838L84.3962 23.1322L86.3039 22.7186L86.6768 24.4387L84.7691 24.8523L85.42 27.8545C85.5375 28.3966 85.6744 28.7762 85.8306 28.9934C85.995 29.1978 86.2284 29.2673 86.5307 29.2018C86.7392 29.1566 86.9119 29.0973 87.0488 29.024C87.1961 28.9484 87.3546 28.8485 87.5241 28.7244L88.2228 30.2102C87.9707 30.4067 87.6672 30.5926 87.3122 30.7677C86.9573 30.9429 86.587 31.0723 86.2013 31.1559C85.482 31.3119 84.9108 31.2447 84.4877 30.9544C84.0727 30.6515 83.7737 30.0778 83.5907 29.2334L82.7364 25.293L81.6574 25.5269L81.2845 23.8068ZM94.029 29.2297L93.0662 24.7889C92.9283 24.153 92.7403 23.7135 92.5021 23.4705C92.2638 23.2274 91.9102 23.1567 91.4411 23.2584C91.097 23.333 90.8051 23.5218 90.5652 23.8249C90.3334 24.1152 90.2102 24.453 90.1955 24.8382L91.2769 29.8263L89.2441 30.267L86.8711 19.3213L88.9039 18.8806L89.7717 22.8836L89.8343 22.8701C90.0122 22.4822 90.262 22.1497 90.584 21.8726C90.9059 21.5954 91.3483 21.3958 91.9112 21.2738C92.3074 21.1879 92.6679 21.1643 92.9928 21.203C93.3177 21.2417 93.6052 21.3595 93.8552 21.5563C94.1157 21.7509 94.338 22.0465 94.5223 22.4431C94.7146 22.8271 94.8764 23.3213 95.0075 23.926L96.0618 28.789L94.029 29.2297ZM103.874 26.3913C103.615 26.7093 103.234 27.0157 102.731 27.3104C102.235 27.5925 101.685 27.7991 101.08 27.9301C99.8191 28.2036 98.8174 28.0388 98.0755 27.4356C97.3312 26.822 96.8201 25.8741 96.5421 24.5919C96.2438 23.2159 96.3485 22.1127 96.856 21.2823C97.3636 20.4519 98.2116 19.9078 99.4 19.6502C99.7961 19.5643 100.193 19.5328 100.591 19.5557C100.989 19.5786 101.36 19.6783 101.704 19.8548C102.048 20.0312 102.352 20.3036 102.617 20.6717C102.883 21.0398 103.081 21.5262 103.212 22.1308C103.26 22.3497 103.295 22.5877 103.318 22.8446C103.351 23.0994 103.371 23.3679 103.378 23.6502L98.6868 24.6672C98.8604 25.3172 99.1346 25.7762 99.5092 26.0442C99.8943 26.31 100.431 26.3683 101.119 26.2192C101.546 26.1265 101.913 25.9815 102.22 25.7841C102.534 25.574 102.765 25.3819 102.913 25.208L103.874 26.3913ZM99.7213 21.2832C99.1896 21.3985 98.8285 21.6459 98.638 22.0256C98.4556 22.3926 98.396 22.8475 98.4591 23.3905L101.368 22.7599C101.287 22.188 101.105 21.7746 100.82 21.5197C100.546 21.2626 100.18 21.1838 99.7213 21.2832ZM111.186 22.7596C111.265 23.1244 111.37 23.3801 111.5 23.5265C111.63 23.673 111.799 23.7236 112.008 23.6784C112.133 23.6513 112.25 23.6149 112.36 23.5692C112.481 23.5212 112.622 23.4415 112.783 23.3301L113.348 24.8776C113.199 24.9972 112.962 25.1359 112.636 25.2939C112.31 25.4519 111.965 25.5704 111.6 25.6495C111.006 25.7783 110.523 25.7411 110.151 25.5379C109.778 25.3242 109.522 24.8995 109.384 24.2636L107.35 14.8815L109.383 14.4408L111.186 22.7596ZM113.034 21.0165C112.747 19.6926 112.85 18.6061 113.342 17.7571C113.833 16.8977 114.662 16.3415 115.829 16.0883C116.455 15.9527 117.018 15.9343 117.52 16.0329C118.022 16.1315 118.463 16.3305 118.845 16.6298C119.224 16.9187 119.542 17.3027 119.798 17.7819C120.065 18.2588 120.266 18.8047 120.399 19.4198C120.686 20.7437 120.584 21.8354 120.094 22.6948C119.612 23.5415 118.787 24.0914 117.619 24.3445C116.994 24.4801 116.43 24.4986 115.929 24.4C115.427 24.3014 114.981 24.1088 114.592 23.8221C114.21 23.5228 113.886 23.1347 113.619 22.6578C113.362 22.1786 113.167 21.6315 113.034 21.0165ZM115.129 20.5622C115.204 20.9062 115.304 21.2174 115.43 21.4957C115.556 21.7741 115.705 22.0091 115.878 22.2009C116.05 22.3927 116.249 22.5297 116.474 22.6118C116.707 22.6813 116.965 22.6855 117.246 22.6245C117.778 22.5092 118.132 22.2305 118.309 21.7883C118.486 21.3461 118.484 20.708 118.304 19.8741C118.148 19.1548 117.902 18.6022 117.568 18.2163C117.231 17.8201 116.776 17.6841 116.202 17.8084C115.702 17.9169 115.352 18.1893 115.152 18.6256C114.951 19.0619 114.944 19.7074 115.129 20.5622ZM127.44 21.9862L126.478 17.5453C126.34 16.9094 126.146 16.4711 125.898 16.2303C125.66 15.9873 125.321 15.9132 124.884 16.0081C124.498 16.0917 124.194 16.2776 123.973 16.5657C123.76 16.8411 123.632 17.1581 123.59 17.5165L124.688 22.5828L122.655 23.0235L120.96 15.2051L122.571 14.856L123.029 15.8371L123.092 15.8236C123.259 15.438 123.514 15.0772 123.856 14.7411C124.198 14.4051 124.681 14.1692 125.307 14.0336C125.693 13.95 126.048 13.9275 126.373 13.9662C126.698 14.0049 126.99 14.1216 127.251 14.3161C127.511 14.5107 127.739 14.8052 127.934 15.1996C128.126 15.5835 128.288 16.0778 128.419 16.6824L129.473 21.5455L127.44 21.9862ZM137.791 19.7422C138.037 20.8785 137.91 21.7791 137.41 22.4441C136.913 23.1195 136.112 23.577 135.007 23.8166C134.256 23.9793 133.651 24.056 133.19 24.0467C132.74 24.0351 132.393 23.9957 132.149 23.9285L132.223 22.2264C132.483 22.2682 132.779 22.3021 133.112 22.3282C133.456 22.3519 133.862 22.3129 134.331 22.2112C135.04 22.0576 135.486 21.7972 135.668 21.4303C135.863 21.0714 135.901 20.6158 135.781 20.0633L135.673 19.5629L135.61 19.5765C135.351 20.1455 134.758 20.5306 133.83 20.7318C132.819 20.951 131.996 20.8021 131.36 20.2851C130.734 19.7659 130.277 18.8391 129.987 17.5047C129.685 16.1079 129.789 14.9775 130.3 14.1135C130.811 13.2496 131.703 12.6798 132.974 12.404C133.642 12.2594 134.246 12.1775 134.788 12.1583C135.34 12.1369 135.796 12.1525 136.157 12.2053L137.791 19.7422ZM134.025 18.9869C134.421 18.901 134.704 18.7469 134.874 18.5245C135.055 18.2998 135.164 17.9978 135.202 17.6185L134.439 14.1002C134.087 14.0348 133.671 14.054 133.191 14.158C132.67 14.271 132.306 14.5572 132.1 15.0166C131.892 15.4656 131.88 16.1175 132.066 16.9723C132.231 17.7333 132.481 18.2847 132.817 18.6266C133.153 18.9685 133.556 19.0886 134.025 18.9869ZM145.669 17.3303C145.41 17.6483 145.029 17.9547 144.525 18.2494C144.03 18.5314 143.48 18.738 142.875 18.8691C141.614 19.1426 140.612 18.9777 139.87 18.3746C139.126 17.761 138.615 16.8131 138.337 15.5309C138.039 14.1548 138.143 13.0516 138.651 12.2212C139.158 11.3908 140.006 10.8468 141.195 10.5892C141.591 10.5033 141.988 10.4718 142.386 10.4947C142.784 10.5176 143.154 10.6172 143.498 10.7937C143.842 10.9702 144.147 11.2425 144.412 11.6106C144.678 11.9788 144.876 12.4652 145.007 13.0698C145.054 13.2887 145.089 13.5266 145.112 13.7836C145.146 14.0383 145.166 14.3068 145.173 14.5892L140.481 15.6062C140.655 16.2561 140.929 16.7151 141.304 16.9832C141.689 17.249 142.226 17.3073 142.914 17.1581C143.341 17.0655 143.708 16.9204 144.014 16.723C144.329 16.5129 144.56 16.3209 144.708 16.147L145.669 17.3303ZM141.516 12.2222C140.984 12.3374 140.623 12.5849 140.433 12.9645C140.25 13.3315 140.191 13.7865 140.254 14.3294L143.162 13.6989C143.082 13.1269 142.899 12.7135 142.615 12.4587C142.341 12.2016 141.975 12.1227 141.516 12.2222ZM150.269 14.7776C150.224 14.5691 150.099 14.4215 149.895 14.3348C149.691 14.2482 149.447 14.181 149.164 14.1332C148.88 14.0855 148.571 14.0434 148.236 14.0069C147.898 13.9601 147.579 13.8711 147.277 13.7399C146.974 13.5984 146.702 13.4008 146.461 13.1474C146.219 12.8835 146.046 12.517 145.945 12.0479C145.777 11.2765 145.879 10.6378 146.25 10.1318C146.62 9.62578 147.238 9.27899 148.103 9.09141C148.697 8.96259 149.248 8.90874 149.754 8.92988C150.261 8.95101 150.667 9.01038 150.972 9.10799L150.837 10.6762C150.577 10.6343 150.253 10.6008 149.866 10.5757C149.478 10.5505 149.097 10.5786 148.722 10.66C148.117 10.7911 147.866 11.0912 147.967 11.5603C148.008 11.7479 148.129 11.8799 148.331 11.9561C148.533 12.0324 148.776 12.0944 149.059 12.1421C149.34 12.1794 149.65 12.2215 149.987 12.2684C150.325 12.3153 150.644 12.4043 150.945 12.5354C151.244 12.6561 151.514 12.8432 151.755 13.0967C151.995 13.3501 152.165 13.7062 152.265 14.1649C152.436 14.9571 152.317 15.638 151.905 16.2074C151.502 16.7641 150.795 17.1521 149.784 17.3713C149.231 17.4911 148.694 17.5311 148.173 17.4914C147.664 17.4599 147.238 17.383 146.895 17.2609L147.129 15.6221C147.398 15.7057 147.745 15.7723 148.171 15.8219C148.594 15.8611 149.014 15.8355 149.431 15.7451C149.733 15.6796 149.961 15.5703 150.113 15.4172C150.276 15.2618 150.328 15.0486 150.269 14.7776ZM151.589 8.56494L152.668 8.33103L152.349 6.86117L154.256 5.84191L154.7 7.89032L156.608 7.47674L156.981 9.19678L155.073 9.61037L155.724 12.6126C155.842 13.1547 155.979 13.5343 156.135 13.7515C156.299 13.956 156.533 14.0254 156.835 13.9599C157.043 13.9147 157.216 13.8554 157.353 13.7821C157.5 13.7065 157.659 13.6066 157.828 13.4826L158.527 14.9683C158.275 15.1648 157.971 15.3507 157.616 15.5258C157.262 15.701 156.891 15.8304 156.506 15.9141C155.786 16.07 155.215 16.0028 154.792 15.7125C154.377 15.4096 154.078 14.8359 153.895 13.9915L153.041 10.0511L151.962 10.285L151.589 8.56494ZM12.6047 60.1844L13.6836 59.9505L13.365 58.4806L15.2723 57.4614L15.7164 59.5098L17.6241 59.0962L17.997 60.8162L16.0893 61.2298L16.7402 64.2321C16.8577 64.7741 16.9946 65.1538 17.1508 65.3709C17.3152 65.5754 17.5485 65.6449 17.8509 65.5793C18.0593 65.5341 18.232 65.4749 18.3689 65.4015C18.5163 65.3259 18.6747 65.2261 18.8443 65.102L19.5429 66.5877C19.2908 66.7843 18.9873 66.9701 18.6324 67.1453C18.2774 67.3205 17.9071 67.4499 17.5214 67.5335C16.8021 67.6894 16.2309 67.6223 15.8078 67.332C15.3929 67.029 15.0939 66.4554 14.9108 65.611L14.0565 61.6705L12.9776 61.9044L12.6047 60.1844ZM19.2651 62.8333C18.9781 61.5094 19.0809 60.423 19.5736 59.574C20.0639 58.7146 20.8929 58.1583 22.0605 57.9052C22.6859 57.7696 23.2495 57.7511 23.7511 57.8497C24.2527 57.9483 24.6942 58.1473 25.0756 58.4466C25.4548 58.7355 25.7727 59.1196 26.0294 59.5987C26.2965 60.0756 26.4967 60.6216 26.6301 61.2366C26.9171 62.5605 26.8154 63.6522 26.325 64.5116C25.8428 65.3583 25.0179 65.9083 23.8504 66.1614C23.2249 66.297 22.6614 66.3155 22.1598 66.2169C21.6581 66.1182 21.2125 65.9256 20.823 65.639C20.4416 65.3396 20.1173 64.9515 19.8502 64.4746C19.5935 63.9955 19.3985 63.4484 19.2651 62.8333ZM21.3605 62.3791C21.4351 62.7231 21.5353 63.0342 21.6611 63.3126C21.7869 63.5909 21.9361 63.826 22.1087 64.0178C22.2812 64.2095 22.4801 64.3465 22.7053 64.4287C22.9386 64.4981 23.196 64.5024 23.4775 64.4413C24.0091 64.3261 24.3635 64.0474 24.5404 63.6051C24.7174 63.1629 24.7155 62.5249 24.5347 61.6909C24.3788 60.9716 24.1335 60.419 23.7988 60.0332C23.4618 59.6369 23.0067 59.5009 22.4334 59.6252C21.933 59.7337 21.5827 60.0061 21.3826 60.4424C21.1825 60.8787 21.1751 61.5243 21.3605 62.3791ZM38.8905 59.7901C38.9855 60.2279 39.0856 60.6646 39.1909 61.1002C39.2963 61.5357 39.4483 62.0103 39.6469 62.5239L38.1927 62.8392L37.6909 61.8838L37.6284 61.8973C37.499 62.3074 37.2611 62.67 36.9147 62.9853C36.5764 63.2878 36.1415 63.4967 35.6098 63.612C34.6299 63.8244 33.7989 63.6662 33.1167 63.1374C32.4345 62.6086 31.9442 61.6562 31.6459 60.2802C31.3566 58.9458 31.4341 57.8431 31.8782 56.9718C32.3224 56.1006 33.1282 55.5384 34.2958 55.2853C34.6189 55.2153 34.8893 55.1785 35.1068 55.175C35.3221 55.1611 35.543 55.1732 35.7696 55.2114L35.0814 52.0371L37.1142 51.5964L38.8905 59.7901ZM35.706 61.7902C36.1022 61.7043 36.3946 61.5427 36.5832 61.3053C36.7696 61.0576 36.8702 60.7411 36.8849 60.3559L36.1662 57.0409C35.9954 56.9579 35.8157 56.9095 35.6272 56.8958C35.4364 56.8717 35.2003 56.8901 34.9189 56.9511C34.3455 57.0754 33.9547 57.3621 33.7464 57.8111C33.5486 58.2578 33.5514 58.9503 33.7548 59.8885C33.8994 60.5556 34.1305 61.0676 34.448 61.4245C34.7759 61.779 35.1952 61.901 35.706 61.7902ZM47.3797 60.1271C47.1212 60.4451 46.7401 60.7514 46.2365 61.0462C45.741 61.3282 45.1909 61.5348 44.5863 61.6659C43.3249 61.9393 42.3233 61.7745 41.5813 61.1713C40.8371 60.5577 40.3259 59.6099 40.048 58.3276C39.7496 56.9516 39.8543 55.8484 40.3619 55.018C40.8694 54.1876 41.7174 53.6436 42.9058 53.3859C43.3019 53.3001 43.699 53.2686 44.0968 53.2914C44.4947 53.3143 44.8656 53.414 45.2095 53.5905C45.5533 53.767 45.8579 54.0393 46.1233 54.4074C46.3887 54.7756 46.5869 55.2619 46.718 55.8666C46.7654 56.0855 46.8006 56.3234 46.8236 56.5804C46.857 56.8351 46.877 57.1036 46.8836 57.3859L42.1926 58.403C42.3663 59.0529 42.6404 59.5119 43.015 59.78C43.4001 60.0457 43.9366 60.1041 44.6246 59.9549C45.0521 59.8622 45.419 59.7172 45.7255 59.5198C46.0401 59.3097 46.2713 59.1177 46.4191 58.9437L47.3797 60.1271ZM43.2271 55.0189C42.6955 55.1342 42.3344 55.3817 42.1438 55.7613C41.9614 56.1283 41.9018 56.5833 41.9649 57.1262L44.8734 56.4957C44.793 55.9237 44.6106 55.5103 44.3262 55.2554C44.0521 54.9983 43.6858 54.9195 43.2271 55.0189ZM50.7371 57.3527C50.8162 57.7176 50.9207 57.9732 51.0507 58.1197C51.1807 58.2661 51.3499 58.3168 51.5584 58.2716C51.6835 58.2445 51.8011 58.208 51.9113 58.1623C52.0319 58.1144 52.1728 58.0347 52.3342 57.9233L52.8989 59.4708C52.7502 59.5903 52.5129 59.7291 52.187 59.8871C51.861 60.045 51.5157 60.1636 51.1508 60.2427C50.5566 60.3715 50.0738 60.3343 49.7023 60.1311C49.3285 59.9174 49.0727 59.4926 48.9348 58.8567L46.9008 49.4747L48.9336 49.034L50.7371 57.3527ZM52.3003 51.5784L54.333 51.1377L56.0281 58.9561L53.9953 59.3968L52.3003 51.5784ZM51.5252 49.4381C51.4596 49.1358 51.5137 48.8566 51.6874 48.6007C51.8693 48.332 52.1583 48.1548 52.5544 48.0689C52.9506 47.983 53.2923 48.0235 53.5795 48.1905C53.8749 48.3447 54.0553 48.573 54.1209 48.8753C54.1864 49.1776 54.1167 49.4601 53.9117 49.7229C53.7149 49.9729 53.4184 50.1409 53.0223 50.2268C52.6261 50.3126 52.2919 50.2814 52.0197 50.1331C51.7555 49.972 51.5907 49.7404 51.5252 49.4381ZM59.9053 54.2191L60.4321 55.3655L60.5103 55.3485L60.4614 54.0657L60.9091 49.712L63.0983 49.2374L61.5422 57.8425L60.3069 58.1103L55.2017 50.9494L57.5629 50.4375L59.9053 54.2191ZM71.4609 54.9063C71.2024 55.2243 70.8213 55.5307 70.3177 55.8254C69.8222 56.1074 69.2721 56.314 68.6675 56.4451C67.4061 56.7186 66.4045 56.5537 65.6625 55.9506C64.9182 55.337 64.4071 54.3891 64.1292 53.1069C63.8308 51.7308 63.9355 50.6276 64.443 49.7972C64.9506 48.9668 65.7986 48.4228 66.987 48.1652C67.3831 48.0793 67.7801 48.0478 68.178 48.0707C68.5759 48.0935 68.9468 48.1932 69.2907 48.3697C69.6345 48.5462 69.9391 48.8185 70.2045 49.1866C70.4698 49.5548 70.6681 50.0412 70.7991 50.6458C70.8466 50.8647 70.8818 51.1026 70.9048 51.3596C70.9382 51.6143 70.9582 51.8828 70.9648 52.1652L66.2738 53.1822C66.4475 53.8321 66.7216 54.2911 67.0962 54.5592C67.4813 54.825 68.0178 54.8833 68.7058 54.7341C69.1332 54.6415 69.5002 54.4964 69.8066 54.299C70.1213 54.0889 70.3525 53.8969 70.5003 53.7229L71.4609 54.9063ZM67.3083 49.7982C66.7767 49.9134 66.4156 50.1609 66.225 50.5405C66.0426 50.9075 65.983 51.3625 66.0461 51.9054L68.9546 51.2749C68.8742 50.7029 68.6918 50.2895 68.4074 50.0347C68.1333 49.7776 67.767 49.6987 67.3083 49.7982ZM76.3268 48.3669C75.9788 48.3222 75.6745 48.3282 75.4138 48.3847C75.049 48.4638 74.7629 48.6295 74.5557 48.8818C74.3566 49.1214 74.2481 49.4014 74.2303 49.7218L75.3253 54.7725L73.2925 55.2132L71.5975 47.3948L73.1768 47.0524L73.6351 48.0336L73.6976 48.02C73.7912 47.5959 73.9666 47.2468 74.2237 46.9728C74.4808 46.6988 74.8126 46.5177 75.2192 46.4295C75.4902 46.3708 75.8102 46.3615 76.179 46.4015L76.3268 48.3669ZM80.2214 45.5252L81.3003 45.2913L80.9816 43.8214L82.889 42.8021L83.3331 44.8506L85.2408 44.437L85.6137 46.157L83.706 46.5706L84.3569 49.5728C84.4744 50.1149 84.6113 50.4945 84.7675 50.7117C84.9319 50.9162 85.1652 50.9857 85.4675 50.9201C85.676 50.8749 85.8487 50.8156 85.9856 50.7423C86.133 50.6667 86.2914 50.5669 86.461 50.4428L87.1596 51.9285C86.9075 52.125 86.604 52.3109 86.2491 52.4861C85.8941 52.6613 85.5238 52.7907 85.1381 52.8743C84.4188 53.0302 83.8476 52.9631 83.4245 52.6728C83.0096 52.3698 82.7106 51.7961 82.5275 50.9518L81.6732 47.0113L80.5943 47.2452L80.2214 45.5252ZM92.9658 50.948L92.0031 46.5072C91.8652 45.8713 91.6771 45.4318 91.4389 45.1888C91.2007 44.9458 90.847 44.8751 90.3779 44.9768C90.0339 45.0514 89.7419 45.2402 89.502 45.5432C89.2703 45.8336 89.1471 46.1714 89.1323 46.5566L90.2138 51.5447L88.181 51.9854L85.808 41.0397L87.8407 40.599L88.7086 44.602L88.7711 44.5884C88.949 44.2006 89.1989 43.8681 89.5208 43.5909C89.8427 43.3138 90.2851 43.1141 90.8481 42.9921C91.2442 42.9062 91.6047 42.8826 91.9296 42.9213C92.2545 42.96 92.542 43.0778 92.7921 43.2746C93.0525 43.4692 93.2749 43.7648 93.4591 44.1614C93.6515 44.5454 93.8132 45.0397 93.9443 45.6443L94.9986 50.5073L92.9658 50.948ZM95.1944 42.279L97.2272 41.8383L98.9222 49.6567L96.8894 50.0974L95.1944 42.279ZM94.4193 40.1387C94.3538 39.8363 94.4079 39.5572 94.5816 39.3013C94.7635 39.0326 95.0525 38.8554 95.4486 38.7695C95.8447 38.6836 96.1864 38.7241 96.4736 38.8911C96.769 39.0453 96.9495 39.2736 97.015 39.5759C97.0806 39.8782 97.0108 40.1607 96.8058 40.4235C96.609 40.6735 96.3125 40.8415 95.9164 40.9274C95.5203 41.0132 95.1861 40.982 94.9138 40.8337C94.6497 40.6726 94.4849 40.441 94.4193 40.1387ZM103.67 46.3681C103.625 46.1596 103.5 46.012 103.296 45.9253C103.091 45.8386 102.848 45.7714 102.564 45.7237C102.281 45.6759 101.972 45.6339 101.637 45.5974C101.299 45.5505 100.98 45.4615 100.678 45.3304C100.375 45.1888 100.103 44.9913 99.8622 44.7379C99.6195 44.474 99.4472 44.1075 99.3455 43.6384C99.1783 42.8669 99.28 42.2282 99.6505 41.7222C100.021 41.2163 100.639 40.8695 101.504 40.6819C102.098 40.5531 102.649 40.4992 103.155 40.5204C103.662 40.5415 104.068 40.6009 104.373 40.6985L104.238 42.2666C103.978 42.2248 103.654 42.1913 103.267 42.1661C102.879 42.141 102.498 42.1691 102.123 42.2505C101.518 42.3816 101.266 42.6816 101.368 43.1507C101.409 43.3384 101.53 43.4703 101.732 43.5466C101.934 43.6228 102.177 43.6848 102.46 43.7326C102.741 43.7699 103.05 43.812 103.388 43.8589C103.726 43.9057 104.045 43.9947 104.346 44.1259C104.645 44.2466 104.915 44.4337 105.156 44.6871C105.396 44.9406 105.566 45.2967 105.666 45.7554C105.837 46.5476 105.718 47.2285 105.306 47.7979C104.903 48.3546 104.196 48.7426 103.185 48.9618C102.632 49.0816 102.095 49.1216 101.573 49.0819C101.065 49.0503 100.639 48.9735 100.296 48.8514L100.53 47.2126C100.799 47.2961 101.146 47.3627 101.572 47.4124C101.995 47.4516 102.415 47.426 102.832 47.3356C103.134 47.2701 103.362 47.1607 103.514 47.0076C103.677 46.8523 103.729 46.6391 103.67 46.3681ZM114.222 44.0805C114.177 43.872 114.052 43.7244 113.848 43.6377C113.643 43.551 113.399 43.4838 113.116 43.4361C112.833 43.3883 112.524 43.3462 112.188 43.3098C111.851 43.2629 111.531 43.1739 111.23 43.0428C110.926 42.9012 110.654 42.7037 110.414 42.4502C110.171 42.1864 109.999 41.8199 109.897 41.3508C109.73 40.5793 109.832 39.9406 110.202 39.4346C110.573 38.9286 111.191 38.5819 112.056 38.3943C112.65 38.2655 113.201 38.2116 113.707 38.2327C114.214 38.2539 114.62 38.3132 114.925 38.4109L114.79 39.979C114.53 39.9372 114.206 39.9037 113.818 39.8785C113.431 39.8534 113.05 39.8815 112.674 39.9629C112.07 40.0939 111.818 40.394 111.92 40.8631C111.961 41.0508 112.082 41.1827 112.284 41.259C112.486 41.3352 112.729 41.3972 113.012 41.445C113.293 41.4823 113.602 41.5244 113.94 41.5713C114.277 41.6181 114.597 41.7071 114.898 41.8383C115.197 41.959 115.467 42.1461 115.707 42.3995C115.948 42.653 116.118 43.0091 116.217 43.4678C116.389 44.26 116.269 44.9409 115.858 45.5103C115.455 46.067 114.748 46.455 113.736 46.6742C113.184 46.794 112.647 46.834 112.125 46.7943C111.616 46.7627 111.19 46.6859 110.847 46.5638L111.081 44.925C111.351 45.0085 111.698 45.0751 112.123 45.1248C112.547 45.164 112.967 45.1384 113.384 45.048C113.686 44.9824 113.913 44.8731 114.066 44.72C114.229 44.5647 114.281 44.3515 114.222 44.0805ZM116.355 37.6915L117.84 37.3695L118.278 38.2568L118.341 38.2433C118.526 37.7884 118.78 37.4276 119.105 37.1608C119.439 36.8918 119.872 36.6997 120.404 36.5844C121.384 36.372 122.187 36.5254 122.812 37.0446C123.435 37.5535 123.896 38.4959 124.195 39.8719C124.339 40.5391 124.392 41.1607 124.353 41.7366C124.312 42.3022 124.176 42.8065 123.945 43.2496C123.724 43.6904 123.41 44.0584 123.005 44.3537C122.61 44.6467 122.126 44.8553 121.553 44.9796C121.23 45.0497 120.958 45.0812 120.738 45.0743C120.521 45.0778 120.297 45.0501 120.065 44.991L120.76 48.1965L118.728 48.6372L116.355 37.6915ZM120.167 38.4367C119.771 38.5226 119.48 38.6894 119.293 38.9372C119.117 39.1827 119.01 39.5171 118.97 39.9403L119.676 43.1928C119.846 43.2758 120.023 43.3357 120.206 43.3725C120.396 43.3967 120.633 43.3782 120.914 43.3172C121.498 43.1906 121.892 42.8924 122.095 42.4226C122.297 41.9423 122.295 41.2279 122.089 40.2793C121.94 39.5913 121.71 39.0845 121.399 38.7589C121.089 38.4333 120.678 38.3259 120.167 38.4367ZM132.603 41.6508C132.344 41.9687 131.963 42.2751 131.46 42.5698C130.964 42.8519 130.414 43.0585 129.81 43.1895C128.548 43.463 127.547 43.2982 126.805 42.695C126.06 42.0814 125.549 41.1335 125.271 39.8513C124.973 38.4753 125.078 37.3721 125.585 36.5417C126.093 35.7113 126.941 35.1673 128.129 34.9096C128.525 34.8237 128.922 34.7922 129.32 34.8151C129.718 34.838 130.089 34.9377 130.433 35.1142C130.777 35.2907 131.081 35.563 131.347 35.9311C131.612 36.2992 131.81 36.7856 131.941 37.3902C131.989 37.6091 132.024 37.8471 132.047 38.1041C132.08 38.3588 132.1 38.6273 132.107 38.9096L127.416 39.9266C127.59 40.5766 127.864 41.0356 128.238 41.3036C128.623 41.5694 129.16 41.6277 129.848 41.4786C130.275 41.3859 130.642 41.2409 130.949 41.0435C131.263 40.8334 131.495 40.6413 131.642 40.4674L132.603 41.6508ZM128.45 36.5426C127.919 36.6579 127.558 36.9053 127.367 37.285C127.185 37.652 127.125 38.1069 127.188 38.6499L130.097 38.0193C130.016 37.4474 129.834 37.034 129.549 36.7791C129.275 36.522 128.909 36.4432 128.45 36.5426ZM140.467 39.9458C140.209 40.2638 139.828 40.5702 139.324 40.8649C138.828 41.147 138.278 41.3535 137.674 41.4846C136.412 41.7581 135.411 41.5932 134.669 40.9901C133.925 40.3765 133.413 39.4286 133.135 38.1464C132.837 36.7703 132.942 35.6671 133.449 34.8367C133.957 34.0063 134.805 33.4623 135.993 33.2047C136.389 33.1188 136.786 33.0873 137.184 33.1102C137.582 33.1331 137.953 33.2327 138.297 33.4092C138.641 33.5857 138.945 33.858 139.211 34.2262C139.476 34.5943 139.674 35.0807 139.805 35.6853C139.853 35.9042 139.888 36.1421 139.911 36.3991C139.944 36.6538 139.964 36.9223 139.971 37.2047L135.28 38.2217C135.454 38.8717 135.728 39.3307 136.103 39.5987C136.488 39.8645 137.024 39.9228 137.712 39.7736C138.14 39.681 138.506 39.5359 138.813 39.3385C139.128 39.1284 139.359 38.9364 139.507 38.7625L140.467 39.9458ZM136.315 34.8377C135.783 34.9529 135.422 35.2004 135.231 35.5801C135.049 35.947 134.989 36.402 135.052 36.9449L137.961 36.3144C137.881 35.7424 137.698 35.329 137.414 35.0742C137.14 34.8171 136.773 34.7382 136.315 34.8377ZM147.653 38.5844C147.39 38.8816 147.047 39.1361 146.623 39.3479C146.212 39.5679 145.773 39.7288 145.303 39.8305C144.678 39.9661 144.125 39.9823 143.644 39.8792C143.174 39.7738 142.765 39.5732 142.417 39.2776C142.067 38.9715 141.774 38.5766 141.538 38.0929C141.312 37.607 141.133 37.0565 141 36.4414C140.713 35.1175 140.789 34.0367 141.23 33.199C141.668 32.3509 142.455 31.8037 143.592 31.5574C144.165 31.4331 144.634 31.3805 144.998 31.3998C145.373 31.4167 145.717 31.4677 146.03 31.5526L145.905 33.3152C145.64 33.2525 145.381 33.2159 145.128 33.2053C144.885 33.1925 144.612 33.2189 144.31 33.2844C143.747 33.4064 143.36 33.6867 143.15 34.1253C142.937 34.5534 142.919 35.1741 143.095 35.9872C143.167 36.3208 143.27 36.6204 143.404 36.886C143.538 37.1516 143.701 37.3729 143.892 37.5497C144.083 37.7266 144.307 37.8527 144.564 37.9281C144.828 37.9908 145.117 37.9882 145.43 37.9204C145.774 37.8458 146.056 37.7409 146.278 37.6055C146.498 37.4597 146.688 37.3039 146.848 37.1381L147.653 38.5844ZM153.772 37.7653L152.809 33.3245C152.671 32.6886 152.483 32.2491 152.245 32.0061C152.007 31.763 151.653 31.6924 151.184 31.7941C150.84 31.8687 150.548 32.0575 150.308 32.3605C150.076 32.6509 149.953 32.9887 149.939 33.3738L151.02 38.362L148.987 38.8027L146.614 27.857L148.647 27.4162L149.515 31.4193L149.577 31.4057C149.755 31.0179 150.005 30.6854 150.327 30.4082C150.649 30.131 151.091 29.9314 151.654 29.8094C152.05 29.7235 152.411 29.6999 152.736 29.7386C153.061 29.7773 153.348 29.8951 153.598 30.0919C153.859 30.2865 154.081 30.5821 154.265 30.9787C154.458 31.3627 154.619 31.857 154.75 32.4616L155.805 37.3246L153.772 37.7653ZM157.056 36.0055C156.98 35.651 157.033 35.3447 157.217 35.0865C157.412 34.826 157.681 34.6585 158.025 34.5839C158.463 34.489 158.839 34.5604 159.152 34.798C159.466 35.0357 159.674 35.3942 159.778 35.8738C159.88 36.3429 159.894 36.76 159.82 37.1253C159.749 37.5009 159.628 37.8219 159.456 38.0883C159.297 38.3628 159.107 38.5898 158.883 38.7691C158.673 38.9566 158.476 39.1031 158.291 39.2086L157.514 38.493C157.77 38.3173 157.975 38.0766 158.127 37.7708C158.279 37.465 158.334 37.1639 158.291 36.8674C158.058 36.9507 157.813 36.9274 157.556 36.7977C157.309 36.6657 157.142 36.4016 157.056 36.0055ZM17.9785 80.5072L20.0113 80.0665L21.7063 87.8849L19.6735 88.3256L17.9785 80.5072ZM17.2034 78.3668C17.1379 78.0645 17.1919 77.7854 17.3657 77.5294C17.5475 77.2608 17.8365 77.0836 18.2327 76.9977C18.6288 76.9118 18.9705 76.9523 19.2577 77.1193C19.5531 77.2735 19.7336 77.5018 19.7991 77.8041C19.8646 78.1064 19.7949 78.3889 19.5899 78.6517C19.3931 78.9017 19.0966 79.0697 18.7005 79.1555C18.3044 79.2414 17.9702 79.2102 17.6979 79.0618C17.4338 78.9008 17.2689 78.6691 17.2034 78.3668ZM28.47 86.4185L27.5073 81.9777C27.3694 81.3418 27.1761 80.9034 26.9275 80.6627C26.6892 80.4196 26.3512 80.3456 25.9134 80.4405C25.5277 80.5241 25.2242 80.71 25.0028 80.9981C24.7897 81.2735 24.6619 81.5904 24.6196 81.9488L25.718 87.0151L23.6852 87.4558L21.9902 79.6375L23.6008 79.2883L24.059 80.2695L24.1216 80.2559C24.289 79.8704 24.5437 79.5095 24.8856 79.1735C25.2275 78.8374 25.7112 78.6016 26.3366 78.466C26.7223 78.3823 27.0777 78.3599 27.4026 78.3986C27.7275 78.4373 28.0202 78.5539 28.2806 78.7485C28.5411 78.9431 28.7687 79.2375 28.9633 79.6319C29.1557 80.0159 29.3174 80.5101 29.4485 81.1148L30.5028 85.9778L28.47 86.4185ZM34.466 76.9327L35.9515 76.6107L36.3894 77.498L36.452 77.4845C36.6371 77.0296 36.8918 76.6688 37.216 76.402C37.5506 76.133 37.9837 75.9409 38.5153 75.8256C39.4952 75.6132 40.298 75.7666 40.9235 76.2858C41.5468 76.7947 42.0076 77.7371 42.3059 79.1131C42.4506 79.7803 42.5035 80.4019 42.4646 80.9778C42.4235 81.5434 42.2873 82.0477 42.0559 82.4908C41.835 82.9316 41.5218 83.2997 41.1165 83.5949C40.7216 83.8879 40.2375 84.0965 39.6642 84.2208C39.341 84.2909 39.0695 84.3225 38.8497 84.3155C38.6322 84.319 38.4079 84.2913 38.1768 84.2322L38.8718 87.4378L36.839 87.8785L34.466 76.9327ZM38.2784 77.6779C37.8823 77.7638 37.591 77.9306 37.4046 78.1784C37.2286 78.4239 37.121 78.7583 37.0818 79.1816L37.787 82.434C37.9578 82.517 38.1345 82.5769 38.3171 82.6138C38.5079 82.6379 38.744 82.6194 39.0254 82.5584C39.6092 82.4319 40.003 82.1337 40.2067 81.6638C40.4082 81.1836 40.4061 80.4691 40.2004 79.5205C40.0513 78.8325 39.8214 78.3257 39.5107 78.0001C39.2 77.6746 38.7892 77.5671 38.2784 77.6779ZM42.9618 75.5656C43.3381 75.2876 43.8016 75.0343 44.3524 74.8057C44.9009 74.5668 45.4879 74.3795 46.1133 74.2439C46.6554 74.1264 47.1236 74.0958 47.5178 74.1522C47.9098 74.1982 48.236 74.3185 48.4965 74.5131C48.7674 74.7054 48.9807 74.9593 49.1364 75.2748C49.3025 75.588 49.4308 75.9531 49.5212 76.3701C49.6206 76.8288 49.7056 77.2961 49.776 77.772C49.8442 78.2374 49.9216 78.6954 50.0084 79.1459C50.1056 79.5942 50.2161 80.0286 50.3401 80.4492C50.4617 80.8594 50.6258 81.2386 50.8323 81.5868L49.1748 81.9461L48.6125 80.9384L48.5343 80.9553C48.3959 81.3237 48.165 81.6684 47.8417 81.9895C47.5266 82.298 47.0771 82.5155 46.4933 82.642C46.1285 82.7211 45.7888 82.7402 45.4743 82.6992C45.1576 82.6479 44.8735 82.5457 44.6221 82.3929C44.3684 82.2296 44.1548 82.0248 43.9814 81.7787C43.8057 81.5221 43.6805 81.2218 43.606 80.8778C43.502 80.3982 43.5192 79.9743 43.6577 79.6059C43.8043 79.2249 44.0542 78.8924 44.4073 78.6084C44.7687 78.3118 45.2177 78.0671 45.7544 77.8744C46.2992 77.6689 46.9191 77.5073 47.6139 77.3894C47.5603 76.7898 47.4282 76.3818 47.2176 76.1656C47.0047 75.9388 46.6272 75.8842 46.0851 76.0018C45.6786 76.0899 45.255 76.2254 44.8144 76.4082C44.3842 76.5888 44.0379 76.7785 43.7754 76.9773L42.9618 75.5656ZM46.803 80.8231C47.2095 80.735 47.5135 80.5763 47.7148 80.3471C47.9139 80.1075 48.0482 79.871 48.1177 79.6377L47.8973 78.6213C47.5674 78.6601 47.2535 78.7227 46.9557 78.8091C46.6683 78.8932 46.4179 78.9966 46.2044 79.1193C45.9909 79.242 45.831 79.3858 45.7249 79.5507C45.6188 79.7156 45.5883 79.9023 45.6335 80.1108C45.6968 80.4026 45.8299 80.6139 46.0328 80.7445C46.244 80.8625 46.5007 80.8887 46.803 80.8231ZM55.397 74.3923C55.049 74.3476 54.7447 74.3536 54.4841 74.4101C54.1192 74.4892 53.8332 74.6549 53.6259 74.9072C53.4269 75.1468 53.3184 75.4268 53.3005 75.7472L54.3955 80.7979L52.3627 81.2386L50.6677 73.4202L52.247 73.0778L52.7053 74.059L52.7679 74.0454C52.8615 73.6213 53.0368 73.2722 53.2939 72.9982C53.551 72.7242 53.8829 72.5431 54.2894 72.4549C54.5605 72.3962 54.8804 72.3869 55.2493 72.4269L55.397 74.3923ZM55.81 72.3054L56.8889 72.0715L56.5703 70.6016L58.4776 69.5823L58.9217 71.6308L60.8294 71.2172L61.2023 72.9372L59.2946 73.3508L59.9455 76.3531C60.063 76.8951 60.1999 77.2747 60.3561 77.4919C60.5205 77.6964 60.7539 77.7659 61.0562 77.7003C61.2647 77.6551 61.4374 77.5959 61.5743 77.5225C61.7216 77.4469 61.88 77.3471 62.0496 77.223L62.7482 78.7087C62.4962 78.9052 62.1927 79.0911 61.8377 79.2663C61.4828 79.4415 61.1124 79.5709 60.7267 79.6545C60.0074 79.8104 59.4362 79.7433 59.0131 79.453C58.5982 79.15 58.2992 78.5764 58.1161 77.732L57.2618 73.7915L56.1829 74.0254L55.81 72.3054ZM65.3516 66.9624L67.3844 66.5217L68.198 70.2745L68.2605 70.261C68.4252 69.9633 68.6637 69.7043 68.9761 69.4837C69.2884 69.2632 69.6531 69.1077 70.0701 69.0173C71.0083 68.8139 71.7924 68.9823 72.4225 69.5224C73.0608 70.0498 73.5223 70.9703 73.807 72.2837C74.1121 73.691 73.9945 74.8353 73.4543 75.7164C72.9245 76.5953 72.055 77.1658 70.8457 77.428C70.1786 77.5726 69.5563 77.6475 68.9789 77.6526C68.4038 77.6681 67.9609 77.6386 67.65 77.5641L65.3516 66.9624ZM69.8488 70.8662C69.4735 70.9476 69.1875 71.1133 68.9907 71.3633C68.802 71.6007 68.6847 71.9153 68.6387 72.3073L69.3777 75.7161C69.5626 75.7634 69.7522 75.7823 69.9466 75.7729C70.1515 75.7612 70.3634 75.7316 70.5823 75.6842C71.1348 75.5644 71.5088 75.2759 71.7044 74.8188C71.9081 74.349 71.9151 73.6762 71.7253 72.8005C71.4021 71.3098 70.7766 70.6651 69.8488 70.8662ZM82.2169 74.0623C81.9584 74.3802 81.5773 74.6866 81.0737 74.9813C80.5782 75.2634 80.0281 75.47 79.4235 75.601C78.1622 75.8745 77.1605 75.7097 76.4185 75.1065C75.6743 74.4929 75.1632 73.545 74.8852 72.2628C74.5869 70.8868 74.6915 69.7836 75.1991 68.9532C75.7067 68.1228 76.5546 67.5788 77.743 67.3211C78.1392 67.2352 78.5362 67.2037 78.9341 67.2266C79.3319 67.2495 79.7028 67.3492 80.0467 67.5257C80.3905 67.7022 80.6952 67.9745 80.9605 68.3426C81.2259 68.7107 81.4241 69.1971 81.5552 69.8017C81.6026 70.0206 81.6378 70.2586 81.6608 70.5156C81.6942 70.7703 81.7142 71.0388 81.7209 71.3211L77.0298 72.3381C77.2035 72.9881 77.4776 73.4471 77.8523 73.7151C78.2373 73.9809 78.7739 74.0392 79.4619 73.8901C79.8893 73.7974 80.2562 73.6524 80.5627 73.455C80.8773 73.2449 81.1085 73.0528 81.2564 72.8789L82.2169 74.0623ZM78.0643 68.9541C77.5327 69.0694 77.1716 69.3168 76.981 69.6965C76.7986 70.0635 76.739 70.5184 76.8022 71.0614L79.7106 70.4308C79.6302 69.8589 79.4478 69.4455 79.1634 69.1906C78.8894 68.9335 78.523 68.8547 78.0643 68.9541ZM89.4025 72.7009C89.1395 72.998 88.7963 73.2525 88.3729 73.4644C87.9622 73.6844 87.5222 73.8453 87.0531 73.947C86.4277 74.0826 85.8746 74.0988 85.3938 73.9956C84.9234 73.8902 84.5143 73.6897 84.1665 73.394C83.8163 73.0879 83.5233 72.693 83.2875 72.2094C83.0621 71.7234 82.8827 71.1729 82.7494 70.5579C82.4623 69.234 82.5391 68.1532 82.9796 67.3155C83.4179 66.4674 84.2051 65.9201 85.3414 65.6738C85.9147 65.5495 86.3836 65.497 86.7479 65.5162C87.1227 65.5332 87.4667 65.5841 87.7798 65.6691L87.6544 67.4316C87.3897 67.369 87.1308 67.3323 86.8774 67.3218C86.6345 67.3089 86.3619 67.3353 86.0596 67.4008C85.4967 67.5229 85.11 67.8032 84.8994 68.2417C84.6867 68.6699 84.6684 69.2905 84.8447 70.1036C84.917 70.4372 85.0202 70.7368 85.1542 71.0025C85.2882 71.2681 85.4507 71.4893 85.6419 71.6662C85.833 71.843 86.0568 71.9691 86.3133 72.0445C86.5779 72.1072 86.8666 72.1047 87.1793 72.0369C87.5233 71.9623 87.8062 71.8573 88.0278 71.7219C88.2473 71.5761 88.4372 71.4203 88.5978 71.2546L89.4025 72.7009ZM89.0933 65.5644C89.4696 65.2863 89.9331 65.033 90.4838 64.8045C91.0323 64.5655 91.6193 64.3782 92.2448 64.2426C92.7868 64.1251 93.255 64.0946 93.6492 64.151C94.0412 64.197 94.3674 64.3173 94.6279 64.5118C94.8988 64.7041 95.1121 64.958 95.2678 65.2735C95.434 65.5868 95.5622 65.9519 95.6526 66.3689C95.7521 66.8275 95.837 67.2948 95.9074 67.7707C95.9756 68.2362 96.0531 68.6942 96.1398 69.1447C96.237 69.5929 96.3476 70.0274 96.4715 70.448C96.5932 70.8582 96.7572 71.2374 96.9637 71.5855L95.3062 71.9449L94.7439 70.9371L94.6657 70.9541C94.5273 71.3224 94.2964 71.6672 93.9731 71.9883C93.658 72.2967 93.2085 72.5142 92.6248 72.6408C92.2599 72.7199 91.9202 72.739 91.6058 72.698C91.289 72.6466 91.0049 72.5445 90.7535 72.3916C90.4998 72.2283 90.2862 72.0236 90.1128 71.7774C89.9371 71.5208 89.812 71.2205 89.7374 70.8765C89.6334 70.397 89.6507 69.973 89.7891 69.6047C89.9357 69.2236 90.1856 68.8911 90.5388 68.6072C90.9001 68.3106 91.3492 68.0659 91.8858 67.8731C92.4307 67.6677 93.0505 67.506 93.7453 67.3881C93.6917 66.7885 93.5596 66.3806 93.349 66.1643C93.1361 65.9376 92.7587 65.883 92.2166 66.0005C91.81 66.0887 91.3865 66.2242 90.9459 66.407C90.5157 66.5876 90.1693 66.7773 89.9068 66.9761L89.0933 65.5644ZM92.9344 70.8219C93.341 70.7338 93.6449 70.5751 93.8463 70.3459C94.0454 70.1063 94.1796 69.8698 94.2491 69.6364L94.0287 68.62C93.6988 68.6588 93.3849 68.7214 93.0872 68.8078C92.7998 68.8919 92.5493 68.9953 92.3358 69.118C92.1223 69.2407 91.9625 69.3845 91.8563 69.5494C91.7502 69.7143 91.7197 69.901 91.7649 70.1095C91.8282 70.4014 91.9613 70.6127 92.1643 70.7433C92.3754 70.8612 92.6321 70.8874 92.9344 70.8219ZM98.7538 62.9952L99.7165 67.4361C99.8544 68.0719 100.027 68.5148 100.234 68.7646C100.451 69.0122 100.779 69.0885 101.217 68.9936C101.602 68.91 101.895 68.7264 102.096 68.4428C102.307 68.1569 102.439 67.8337 102.491 67.473L101.396 62.4223L103.429 61.9816L104.609 67.4232C104.702 67.8506 104.814 68.2683 104.946 68.6762C105.076 69.0737 105.219 69.4302 105.374 69.7457L103.842 70.078L103.231 68.9988L103.169 69.0124C103.015 69.4605 102.753 69.8612 102.382 70.2144C102.011 70.5677 101.533 70.8076 100.95 70.9342C100.554 71.0201 100.188 71.0448 99.8525 71.0084C99.5172 70.9719 99.2193 70.8564 98.9588 70.6618C98.6983 70.4673 98.4667 70.1791 98.2639 69.7975C98.0715 69.4135 97.9086 68.914 97.7753 68.299L96.721 63.4359L98.7538 62.9952ZM109.677 66.5536C109.632 66.3451 109.507 66.1975 109.303 66.1109C109.098 66.0242 108.855 65.957 108.571 65.9092C108.288 65.8615 107.979 65.8194 107.644 65.783C107.306 65.7361 106.987 65.6471 106.685 65.5159C106.382 65.3744 106.11 65.1769 105.869 64.9234C105.626 64.6595 105.454 64.293 105.353 63.8239C105.185 63.0525 105.287 62.4138 105.657 61.9078C106.028 61.4018 106.646 61.055 107.511 60.8674C108.105 60.7386 108.656 60.6848 109.162 60.7059C109.669 60.727 110.075 60.7864 110.38 60.884L110.245 62.4522C109.985 62.4103 109.661 62.3768 109.274 62.3517C108.886 62.3266 108.505 62.3547 108.13 62.436C107.525 62.5671 107.273 62.8672 107.375 63.3363C107.416 63.5239 107.537 63.6559 107.739 63.7321C107.941 63.8084 108.184 63.8704 108.467 63.9181C108.748 63.9554 109.057 63.9975 109.395 64.0444C109.733 64.0913 110.052 64.1803 110.353 64.3114C110.652 64.4321 110.922 64.6192 111.163 64.8727C111.403 65.1262 111.573 65.4822 111.673 65.9409C111.844 66.7332 111.725 67.414 111.313 67.9834C110.91 68.5402 110.203 68.9281 109.192 69.1474C108.639 69.2671 108.102 69.3072 107.58 69.2674C107.072 69.2359 106.646 69.1591 106.303 69.037L106.537 67.3982C106.806 67.4817 107.153 67.5483 107.579 67.5979C108.002 67.6371 108.422 67.6115 108.839 67.5211C109.141 67.4556 109.369 67.3463 109.521 67.1932C109.684 67.0378 109.736 66.8246 109.677 66.5536ZM119.614 65.9547C119.355 66.2726 118.974 66.579 118.471 66.8737C117.975 67.1558 117.425 67.3624 116.82 67.4934C115.559 67.7669 114.557 67.6021 113.815 66.9989C113.071 66.3853 112.56 65.4374 112.282 64.1552C111.984 62.7792 112.088 61.676 112.596 60.8456C113.104 60.0152 113.952 59.4712 115.14 59.2135C115.536 59.1276 115.933 59.0961 116.331 59.119C116.729 59.1419 117.1 59.2416 117.444 59.4181C117.787 59.5946 118.092 59.8669 118.357 60.235C118.623 60.6031 118.821 61.0895 118.952 61.6941C118.999 61.913 119.035 62.151 119.058 62.408C119.091 62.6627 119.111 62.9312 119.118 63.2135L114.427 64.2305C114.6 64.8805 114.874 65.3395 115.249 65.6075C115.634 65.8733 116.171 65.9316 116.859 65.7825C117.286 65.6898 117.653 65.5448 117.96 65.3474C118.274 65.1373 118.505 64.9452 118.653 64.7713L119.614 65.9547ZM115.461 60.8465C114.93 60.9618 114.568 61.2092 114.378 61.5889C114.195 61.9559 114.136 62.4108 114.199 62.9538L117.107 62.3232C117.027 61.7513 116.845 61.3379 116.56 61.083C116.286 60.8259 115.92 60.7471 115.461 60.8465ZM124.178 61.5763C123.891 60.2524 123.993 59.1659 124.486 58.3169C124.976 57.4575 125.805 56.9013 126.973 56.6481C127.598 56.5125 128.162 56.4941 128.664 56.5927C129.165 56.6913 129.607 56.8903 129.988 57.1896C130.367 57.4785 130.685 57.8625 130.942 58.3417C131.209 58.8186 131.409 59.3645 131.542 59.9796C131.83 61.3035 131.728 62.3952 131.237 63.2546C130.755 64.1013 129.93 64.6512 128.763 64.9043C128.137 65.0399 127.574 65.0584 127.072 64.9598C126.571 64.8612 126.125 64.6686 125.735 64.3819C125.354 64.0826 125.03 63.6945 124.763 63.2176C124.506 62.7384 124.311 62.1913 124.178 61.5763ZM126.273 61.122C126.347 61.466 126.448 61.7772 126.574 62.0555C126.699 62.3339 126.849 62.5689 127.021 62.7607C127.194 62.9525 127.393 63.0895 127.618 63.1716C127.851 63.2411 128.108 63.2453 128.39 63.1843C128.922 63.069 129.276 62.7903 129.453 62.3481C129.63 61.9059 129.628 61.2678 129.447 60.4338C129.291 59.7146 129.046 59.162 128.711 58.7761C128.374 58.3799 127.919 58.2439 127.346 58.3682C126.845 58.4767 126.495 58.7491 126.295 59.1854C126.095 59.6217 126.088 60.2672 126.273 61.122ZM131.201 55.9606L132.28 55.7267L132.185 55.2889C131.971 54.2985 132.024 53.5392 132.347 53.011C132.666 52.4724 133.222 52.1172 134.015 51.9454C134.849 51.7646 135.563 51.7133 136.159 51.7916L136.12 53.5026C135.862 53.4712 135.637 53.4654 135.445 53.4852C135.261 53.4924 135.07 53.5174 134.872 53.5603C134.664 53.6055 134.504 53.673 134.392 53.7626C134.291 53.8501 134.224 53.9683 134.191 54.1174C134.166 54.2538 134.164 54.4233 134.186 54.6258C134.217 54.8157 134.259 55.0358 134.313 55.286L136.033 54.9131L136.406 56.6331L134.686 57.006L136.008 63.1044L133.975 63.5451L132.653 57.4467L131.574 57.6806L131.201 55.9606ZM140.087 54.0343L141.165 53.8004L140.847 52.3306L142.754 51.3113L143.198 53.3597L145.106 52.9461L145.479 54.6662L143.571 55.0797L144.222 58.082C144.34 58.6241 144.476 59.0037 144.633 59.2209C144.797 59.4253 145.03 59.4948 145.333 59.4293C145.541 59.3841 145.714 59.3248 145.851 59.2515C145.998 59.1759 146.157 59.076 146.326 58.9519L147.025 60.4376C146.773 60.6342 146.469 60.82 146.114 60.9952C145.759 61.1704 145.389 61.2998 145.003 61.3834C144.284 61.5394 143.713 61.4722 143.29 61.1819C142.875 60.879 142.576 60.3053 142.393 59.4609L141.538 55.5204L140.459 55.7544L140.087 54.0343ZM152.831 59.4572L151.868 55.0163C151.73 54.3805 151.542 53.941 151.304 53.6979C151.066 53.4549 150.712 53.3842 150.243 53.4859C149.899 53.5605 149.607 53.7493 149.367 54.0524C149.135 54.3427 149.012 54.6805 148.998 55.0657L150.079 60.0538L148.046 60.4945L145.673 49.5488L147.706 49.1081L148.574 53.1111L148.636 53.0976C148.814 52.7097 149.064 52.3772 149.386 52.1001C149.708 51.8229 150.15 51.6233 150.713 51.5013C151.109 51.4154 151.47 51.3918 151.795 51.4305C152.12 51.4692 152.407 51.587 152.657 51.7838C152.918 51.9783 153.14 52.2739 153.324 52.6706C153.517 53.0545 153.678 53.5488 153.809 54.1535L154.864 59.0165L152.831 59.4572ZM162.676 56.6188C162.417 56.9368 162.036 57.2432 161.533 57.5379C161.037 57.82 160.487 58.0265 159.882 58.1576C158.621 58.4311 157.619 58.2662 156.877 57.6631C156.133 57.0495 155.622 56.1016 155.344 54.8194C155.046 53.4434 155.15 52.3402 155.658 51.5098C156.166 50.6794 157.014 50.1353 158.202 49.8777C158.598 49.7918 158.995 49.7603 159.393 49.7832C159.791 49.8061 160.162 49.9058 160.506 50.0823C160.85 50.2587 161.154 50.531 161.419 50.8992C161.685 51.2673 161.883 51.7537 162.014 52.3583C162.062 52.5772 162.097 52.8152 162.12 53.0721C162.153 53.3268 162.173 53.5954 162.18 53.8777L157.489 54.8947C157.662 55.5447 157.937 56.0037 158.311 56.2717C158.696 56.5375 159.233 56.5958 159.921 56.4467C160.348 56.354 160.715 56.209 161.022 56.0115C161.336 55.8014 161.568 55.6094 161.715 55.4355L162.676 56.6188ZM158.523 51.5107C157.992 51.626 157.631 51.8734 157.44 52.2531C157.258 52.6201 157.198 53.075 157.261 53.618L160.17 52.9874C160.089 52.4155 159.907 52.0021 159.622 51.7472C159.348 51.4901 158.982 51.4113 158.523 51.5107ZM26.4384 105.596C26.5175 105.961 26.622 106.217 26.752 106.363C26.882 106.51 27.0512 106.56 27.2597 106.515C27.3848 106.488 27.5024 106.452 27.6126 106.406C27.7331 106.358 27.8741 106.278 28.0355 106.167L28.6002 107.714C28.4515 107.834 28.2142 107.973 27.8883 108.131C27.5623 108.289 27.2169 108.407 26.8521 108.486C26.2579 108.615 25.775 108.578 25.4035 108.375C25.0298 108.161 24.774 107.736 24.6361 107.1L22.6021 97.7183L24.6349 97.2776L26.4384 105.596ZM28.2861 103.853C27.9991 102.529 28.1019 101.443 28.5946 100.594C29.0849 99.7345 29.9139 99.1783 31.0814 98.9252C31.7069 98.7896 32.2705 98.7711 32.7721 98.8697C33.2737 98.9683 33.7152 99.1673 34.0966 99.4666C34.4758 99.7555 34.7937 100.14 35.0504 100.619C35.3175 101.096 35.5177 101.642 35.651 102.257C35.9381 103.581 35.8364 104.672 35.346 105.532C34.8638 106.378 34.0389 106.928 32.8714 107.181C32.2459 107.317 31.6824 107.335 31.1807 107.237C30.6791 107.138 30.2335 106.946 29.8439 106.659C29.4625 106.36 29.1383 105.972 28.8712 105.495C28.6145 105.015 28.4195 104.468 28.2861 103.853ZM30.3815 103.399C30.456 103.743 30.5562 104.054 30.6821 104.333C30.8079 104.611 30.9571 104.846 31.1296 105.038C31.3022 105.23 31.5011 105.366 31.7263 105.449C31.9596 105.518 32.217 105.522 32.4985 105.461C33.0301 105.346 33.3844 105.067 33.5614 104.625C33.7384 104.183 33.7365 103.545 33.5557 102.711C33.3998 101.992 33.1545 101.439 32.8198 101.053C32.4828 100.657 32.0277 100.521 31.4543 100.645C30.954 100.754 30.6037 101.026 30.4036 101.462C30.2035 101.899 30.1961 102.544 30.3815 103.399ZM42.6924 104.823L41.7296 100.382C41.5918 99.7462 41.3985 99.3079 41.1499 99.0671C40.9116 98.8241 40.5736 98.75 40.1358 98.8449C39.75 98.9286 39.4465 99.1144 39.2252 99.4025C39.0121 99.6779 38.8843 99.9949 38.842 100.353L39.9403 105.42L37.9076 105.86L36.2125 98.0419L37.8231 97.6928L38.2814 98.6739L38.344 98.6604C38.5114 98.2748 38.7661 97.914 39.108 97.5779C39.4499 97.2419 39.9335 97.006 40.559 96.8704C40.9447 96.7868 41.3 96.7643 41.6249 96.803C41.9498 96.8418 42.2425 96.9584 42.503 97.1529C42.7635 97.3475 42.991 97.642 43.1857 98.0364C43.3781 98.4203 43.5398 98.9146 43.6709 99.5192L44.7252 104.382L42.6924 104.823ZM53.0427 102.579C53.2891 103.715 53.1623 104.616 52.6625 105.281C52.165 105.956 51.3638 106.414 50.2588 106.653C49.5082 106.816 48.9027 106.893 48.4423 106.883C47.9923 106.872 47.6454 106.832 47.4016 106.765L47.4746 105.063C47.7347 105.105 48.0313 105.139 48.3644 105.165C48.7079 105.189 49.1142 105.15 49.5833 105.048C50.2922 104.894 50.7378 104.634 50.9202 104.267C51.1152 103.908 51.1529 103.453 51.0331 102.9L50.9246 102.4L50.8621 102.413C50.6034 102.982 50.0102 103.367 49.0825 103.569C48.0713 103.788 47.2477 103.639 46.6117 103.122C45.9862 102.603 45.5288 101.676 45.2395 100.342C44.9366 98.9447 45.0408 97.8143 45.5521 96.9503C46.0633 96.0864 46.9548 95.5166 48.2266 95.2408C48.8937 95.0962 49.4981 95.0143 50.0397 94.9951C50.5917 94.9737 51.048 94.9893 51.4087 95.0421L53.0427 102.579ZM49.2772 101.824C49.6733 101.738 49.9564 101.584 50.1265 101.361C50.307 101.137 50.4161 100.835 50.454 100.455L49.6912 96.937C49.3387 96.8716 48.9226 96.8908 48.4431 96.9948C47.9219 97.1078 47.5583 97.394 47.3523 97.8534C47.144 98.3024 47.1325 98.9543 47.3179 99.8091C47.4828 100.57 47.7334 101.122 48.0694 101.463C48.4055 101.805 48.8081 101.925 49.2772 101.824ZM57.0717 93.5197L58.5572 93.1976L58.9952 94.085L59.0577 94.0714C59.2429 93.6165 59.4975 93.2557 59.8217 92.989C60.1563 92.72 60.5894 92.5279 61.1211 92.4126C62.101 92.2001 62.9037 92.3536 63.5293 92.8728C64.1526 93.3816 64.6134 94.3241 64.9117 95.7001C65.0563 96.3673 65.1092 96.9888 65.0704 97.5648C65.0293 98.1303 64.893 98.6347 64.6617 99.0777C64.4407 99.5186 64.1276 99.8866 63.7223 100.182C63.3274 100.475 62.8433 100.683 62.2699 100.808C61.9468 100.878 61.6753 100.909 61.4555 100.902C61.238 100.906 61.0136 100.878 60.7826 100.819L61.4775 104.025L59.4447 104.465L57.0717 93.5197ZM60.8842 94.2648C60.488 94.3507 60.1968 94.5176 60.0104 94.7653C59.8344 95.0109 59.7268 95.3453 59.6876 95.7685L60.3927 99.0209C60.5635 99.104 60.7402 99.1639 60.9228 99.2007C61.1136 99.2248 61.3497 99.2064 61.6312 99.1454C62.215 99.0188 62.6087 98.7206 62.8125 98.2508C63.0139 97.7705 63.0119 97.0561 62.8062 96.1074C62.657 95.4194 62.4271 94.9126 62.1164 94.5871C61.8057 94.2615 61.395 94.1541 60.8842 94.2648ZM65.5676 92.1526C65.9439 91.8745 66.4074 91.6212 66.9581 91.3927C67.5066 91.1537 68.0936 90.9664 68.7191 90.8308C69.2611 90.7133 69.7293 90.6828 70.1235 90.7392C70.5155 90.7852 70.8417 90.9055 71.1022 91.1C71.3731 91.2923 71.5864 91.5462 71.7421 91.8617C71.9083 92.175 72.0365 92.5401 72.1269 92.9571C72.2264 93.4157 72.3113 93.883 72.3817 94.3589C72.4499 94.8244 72.5274 95.2823 72.6141 95.7329C72.7113 96.1811 72.8219 96.6156 72.9458 97.0362C73.0675 97.4464 73.2315 97.8256 73.438 98.1737L71.7805 98.5331L71.2182 97.5253L71.14 97.5423C71.0016 97.9106 70.7707 98.2554 70.4474 98.5765C70.1323 98.8849 69.6828 99.1024 69.0991 99.229C68.7342 99.3081 68.3945 99.3272 68.0801 99.2862C67.7633 99.2348 67.4792 99.1327 67.2278 98.9798C66.9741 98.8165 66.7605 98.6118 66.5871 98.3656C66.4114 98.109 66.2863 97.8087 66.2117 97.4647C66.1078 96.9852 66.125 96.5612 66.2634 96.1929C66.41 95.8118 66.6599 95.4793 67.0131 95.1954C67.3744 94.8988 67.8235 94.6541 68.3601 94.4613C68.905 94.2559 69.5248 94.0942 70.2196 93.9763C70.166 93.3767 70.0339 92.9688 69.8233 92.7525C69.6104 92.5258 69.233 92.4712 68.6909 92.5887C68.2843 92.6769 67.8608 92.8124 67.4202 92.9952C66.99 93.1758 66.6436 93.3655 66.3811 93.5643L65.5676 92.1526ZM69.4087 97.4101C69.8153 97.322 70.1192 97.1633 70.3206 96.9341C70.5197 96.6945 70.6539 96.458 70.7234 96.2246L70.503 95.2082C70.1731 95.247 69.8592 95.3096 69.5615 95.396C69.2741 95.4801 69.0236 95.5835 68.8101 95.7062C68.5966 95.8289 68.4368 95.9727 68.3306 96.1376C68.2245 96.3025 68.194 96.4892 68.2392 96.6977C68.3025 96.9896 68.4356 97.2009 68.6386 97.3315C68.8497 97.4494 69.1064 97.4756 69.4087 97.4101ZM75.2281 89.5834L76.1908 94.0243C76.3287 94.6601 76.5011 95.103 76.7081 95.3528C76.9254 95.6004 77.2531 95.6767 77.6909 95.5818C78.0766 95.4982 78.3697 95.3146 78.5701 95.031C78.781 94.7451 78.9129 94.4219 78.9656 94.0612L77.8707 89.0105L79.9034 88.5698L81.0832 94.0114C81.1758 94.4388 81.2882 94.8565 81.4203 95.2644C81.5501 95.6619 81.6929 96.0184 81.8486 96.3339L80.3162 96.6662L79.7057 95.587L79.6432 95.6006C79.4893 96.0487 79.2269 96.4494 78.856 96.8026C78.4851 97.1559 78.0078 97.3958 77.424 97.5224C77.0279 97.6083 76.6621 97.633 76.3268 97.5965C75.9915 97.5601 75.6936 97.4446 75.4331 97.25C75.1726 97.0555 74.941 96.7673 74.7382 96.3856C74.5458 96.0017 74.3829 95.5022 74.2496 94.8871L73.1953 90.0241L75.2281 89.5834ZM86.1514 93.1418C86.1062 92.9333 85.9814 92.7857 85.7771 92.6991C85.5727 92.6124 85.329 92.5452 85.0457 92.4974C84.7625 92.4497 84.4533 92.4076 84.1179 92.3712C83.7803 92.3243 83.4609 92.2353 83.1596 92.1041C82.856 91.9626 82.584 91.7651 82.3435 91.5116C82.1008 91.2477 81.9285 90.8812 81.8268 90.4121C81.6596 89.6407 81.7612 89.002 82.1318 88.496C82.5023 87.99 83.1202 87.6432 83.9854 87.4556C84.5796 87.3268 85.13 87.273 85.6367 87.2941C86.1433 87.3152 86.5491 87.3746 86.8541 87.4722L86.7193 89.0404C86.4592 88.9985 86.1354 88.965 85.7479 88.9399C85.3605 88.9147 84.9791 88.9429 84.6038 89.0242C83.9992 89.1553 83.7477 89.4554 83.8494 89.9245C83.8901 90.1121 84.0115 90.2441 84.2136 90.3203C84.4156 90.3966 84.6583 90.4586 84.9415 90.5063C85.2225 90.5436 85.5317 90.5857 85.8693 90.6326C86.2069 90.6795 86.5264 90.7685 86.8277 90.8996C87.1267 91.0203 87.3965 91.2074 87.6369 91.4609C87.8774 91.7144 88.0474 92.0704 88.1469 92.5291C88.3186 93.3214 88.1988 94.0022 87.7875 94.5716C87.3843 95.1284 86.6771 95.5163 85.6659 95.7356C85.1134 95.8553 84.5764 95.8954 84.0548 95.8556C83.5459 95.8241 83.1199 95.7473 82.7769 95.6252L83.011 93.9864C83.2802 94.0699 83.6275 94.1365 84.053 94.1861C84.4762 94.2253 84.8964 94.1997 85.3133 94.1093C85.6156 94.0438 85.843 93.9345 85.9953 93.7814C86.1581 93.626 86.2101 93.4128 86.1514 93.1418ZM96.0881 92.5429C95.8296 92.8608 95.4485 93.1672 94.9448 93.4619C94.4494 93.744 93.8993 93.9506 93.2947 94.0816C92.0333 94.3551 91.0316 94.1903 90.2897 93.5871C89.5454 92.9735 89.0343 92.0256 88.7563 90.7434C88.458 89.3674 88.5627 88.2642 89.0702 87.4338C89.5778 86.6034 90.4258 86.0594 91.6142 85.8017C92.0103 85.7158 92.4073 85.6843 92.8052 85.7072C93.2031 85.7301 93.574 85.8298 93.9178 86.0063C94.2617 86.1828 94.5663 86.4551 94.8317 86.8232C95.097 87.1913 95.2953 87.6777 95.4263 88.2823C95.4738 88.5012 95.509 88.7392 95.532 88.9962C95.5654 89.2509 95.5854 89.5194 95.592 89.8017L90.901 90.8187C91.0747 91.4687 91.3488 91.9277 91.7234 92.1957C92.1085 92.4615 92.645 92.5198 93.333 92.3707C93.7604 92.278 94.1274 92.133 94.4338 91.9356C94.7485 91.7255 94.9797 91.5334 95.1275 91.3595L96.0881 92.5429ZM91.9355 87.4347C91.4038 87.55 91.0427 87.7974 90.8522 88.1771C90.6698 88.5441 90.6102 88.999 90.6733 89.542L93.5817 88.9114C93.5014 88.3395 93.319 87.9261 93.0346 87.6712C92.7605 87.4141 92.3942 87.3353 91.9355 87.4347ZM100.689 89.9901C100.643 89.7817 100.519 89.6341 100.314 89.5474C100.11 89.4607 99.8662 89.3935 99.583 89.3458C99.2998 89.298 98.9905 89.2559 98.6552 89.2195C98.3176 89.1726 97.9982 89.0836 97.6969 88.9525C97.3933 88.8109 97.1213 88.6134 96.8808 88.3599C96.638 88.096 96.4658 87.7295 96.3641 87.2604C96.1969 86.489 96.2985 85.8503 96.6691 85.3443C97.0396 84.8383 97.6575 84.4915 98.5227 84.304C99.1169 84.1751 99.6673 84.1213 100.174 84.1424C100.681 84.1636 101.086 84.2229 101.391 84.3205L101.257 85.8887C100.996 85.8469 100.673 85.8134 100.285 85.7882C99.8977 85.7631 99.5164 85.7912 99.1411 85.8725C98.5365 86.0036 98.285 86.3037 98.3867 86.7728C98.4274 86.9605 98.5488 87.0924 98.7509 87.1687C98.9529 87.2449 99.1956 87.3069 99.4788 87.3547C99.7597 87.392 100.069 87.4341 100.407 87.4809C100.744 87.5278 101.064 87.6168 101.365 87.7479C101.664 87.8687 101.934 88.0558 102.174 88.3092C102.415 88.5627 102.585 88.9188 102.684 89.3774C102.856 90.1697 102.736 90.8505 102.325 91.42C101.922 91.9767 101.214 92.3647 100.203 92.5839C99.6507 92.7037 99.1136 92.7437 98.5921 92.704C98.0831 92.6724 97.6572 92.5956 97.3142 92.4735L97.5483 90.8347C97.8174 90.9182 98.1648 90.9848 98.5903 91.0344C99.0135 91.0737 99.4336 91.0481 99.8506 90.9577C100.153 90.8921 100.38 90.7828 100.533 90.6297C100.695 90.4744 100.747 90.2612 100.689 89.9901ZM113.256 89.5248L112.293 85.084C112.156 84.4481 111.968 84.0086 111.729 83.7656C111.491 83.5225 111.137 83.4518 110.668 83.5535C110.324 83.6281 110.032 83.8169 109.792 84.12C109.561 84.4103 109.437 84.7481 109.423 85.1333L110.504 90.1214L108.471 90.5621L106.098 79.6164L108.131 79.1757L108.999 83.1787L109.062 83.1652C109.239 82.7773 109.489 82.4448 109.811 82.1677C110.133 81.8905 110.576 81.6909 111.139 81.5689C111.535 81.483 111.895 81.4594 112.22 81.4981C112.545 81.5368 112.832 81.6546 113.083 81.8514C113.343 82.046 113.565 82.3416 113.75 82.7382C113.942 83.1222 114.104 83.6164 114.235 84.2211L115.289 89.0841L113.256 89.5248ZM123.101 86.6865C122.843 87.0044 122.462 87.3108 121.958 87.6055C121.462 87.8876 120.912 88.0942 120.308 88.2252C119.046 88.4987 118.045 88.3339 117.303 87.7307C116.559 87.1171 116.047 86.1692 115.769 84.887C115.471 83.511 115.576 82.4078 116.083 81.5774C116.591 80.747 117.439 80.203 118.627 79.9453C119.023 79.8594 119.42 79.8279 119.818 79.8508C120.216 79.8737 120.587 79.9734 120.931 80.1499C121.275 80.3263 121.579 80.5987 121.845 80.9668C122.11 81.3349 122.308 81.8213 122.439 82.4259C122.487 82.6448 122.522 82.8828 122.545 83.1397C122.578 83.3945 122.598 83.663 122.605 83.9453L117.914 84.9623C118.088 85.6123 118.362 86.0713 118.737 86.3393C119.122 86.6051 119.658 86.6634 120.346 86.5143C120.774 86.4216 121.14 86.2766 121.447 86.0792C121.762 85.8691 121.993 85.677 122.141 85.5031L123.101 86.6865ZM118.949 81.5783C118.417 81.6936 118.056 81.941 117.865 82.3207C117.683 82.6877 117.623 83.1426 117.686 83.6856L120.595 83.055C120.514 82.4831 120.332 82.0697 120.048 81.8148C119.774 81.5577 119.407 81.4789 118.949 81.5783ZM126.38 78.4938L127.459 78.2599L127.14 76.79L129.047 75.7708L129.491 77.8192L131.399 77.4056L131.772 79.1257L129.864 79.5392L130.515 82.5415C130.633 83.0836 130.77 83.4632 130.926 83.6804C131.09 83.8848 131.323 83.9543 131.626 83.8888C131.834 83.8436 132.007 83.7843 132.144 83.7109C132.291 83.6354 132.45 83.5355 132.619 83.4114L133.318 84.8971C133.066 85.0937 132.762 85.2795 132.407 85.4547C132.052 85.6299 131.682 85.7593 131.296 85.8429C130.577 85.9989 130.006 85.9317 129.583 85.6414C129.168 85.3385 128.869 84.7648 128.686 83.9204L127.831 79.9799L126.753 80.2139L126.38 78.4938ZM132.696 77.5993C133.072 77.3213 133.535 77.068 134.086 76.8394C134.635 76.6004 135.222 76.4132 135.847 76.2776C136.389 76.16 136.857 76.1295 137.252 76.1859C137.644 76.2319 137.97 76.3522 138.23 76.5467C138.501 76.739 138.714 76.9929 138.87 77.3084C139.036 77.6217 139.165 77.9868 139.255 78.4038C139.354 78.8625 139.439 79.3297 139.51 79.8056C139.578 80.2711 139.655 80.7291 139.742 81.1796C139.839 81.6278 139.95 82.0623 140.074 82.4829C140.196 82.8931 140.36 83.2723 140.566 83.6204L138.909 83.9798L138.346 82.972L138.268 82.989C138.13 83.3573 137.899 83.7021 137.575 84.0232C137.26 84.3316 136.811 84.5491 136.227 84.6757C135.862 84.7548 135.523 84.7739 135.208 84.7329C134.891 84.6815 134.607 84.5794 134.356 84.4265C134.102 84.2632 133.889 84.0585 133.715 83.8123C133.539 83.5557 133.414 83.2554 133.34 82.9114C133.236 82.4319 133.253 82.0079 133.391 81.6396C133.538 81.2585 133.788 80.9261 134.141 80.6421C134.502 80.3455 134.952 80.1008 135.488 79.908C136.033 79.7026 136.653 79.5409 137.348 79.423C137.294 78.8235 137.162 78.4155 136.951 78.1992C136.738 77.9725 136.361 77.9179 135.819 78.0354C135.412 78.1236 134.989 78.2591 134.548 78.4419C134.118 78.6225 133.772 78.8122 133.509 79.011L132.696 77.5993ZM136.537 82.8568C136.943 82.7687 137.247 82.61 137.449 82.3808C137.648 82.1412 137.782 81.9047 137.851 81.6713L137.631 80.655C137.301 80.6937 136.987 80.7563 136.69 80.8427C136.402 80.9268 136.152 81.0303 135.938 81.153C135.725 81.2756 135.565 81.4194 135.459 81.5843C135.353 81.7492 135.322 81.9359 135.367 82.1444C135.431 82.4363 135.564 82.6476 135.767 82.7782C135.978 82.8961 136.234 82.9223 136.537 82.8568ZM143.975 79.4761L143.428 79.5947L144.129 82.8316L142.097 83.2723L139.724 72.3265L141.756 71.8858L143.156 78.3438L143.578 78.0232L144.686 74.525L146.922 74.0402L145.69 77.418L145.021 78.1851L146.013 78.6085L148.914 81.7942L146.584 82.2993L143.975 79.4761ZM155.703 79.6184C155.445 79.9364 155.064 80.2427 154.56 80.5375C154.064 80.8195 153.514 81.0261 152.91 81.1572C151.648 81.4306 150.647 81.2658 149.905 80.6626C149.161 80.049 148.649 79.1012 148.371 77.8189C148.073 76.4429 148.178 75.3397 148.685 74.5093C149.193 73.6789 150.041 73.1349 151.229 72.8772C151.625 72.7914 152.022 72.7599 152.42 72.7827C152.818 72.8056 153.189 72.9053 153.533 73.0818C153.877 73.2583 154.181 73.5306 154.447 73.8987C154.712 74.2669 154.91 74.7532 155.041 75.3578C155.089 75.5768 155.124 75.8147 155.147 76.0717C155.18 76.3264 155.2 76.5949 155.207 76.8772L150.516 77.8942C150.69 78.5442 150.964 79.0032 151.339 79.2713C151.724 79.537 152.26 79.5954 152.948 79.4462C153.376 79.3535 153.742 79.2085 154.049 79.0111C154.364 78.801 154.595 78.609 154.743 78.435L155.703 79.6184ZM151.551 74.5102C151.019 74.6255 150.658 74.873 150.467 75.2526C150.285 75.6196 150.225 76.0746 150.288 76.6175L153.197 75.987C153.116 75.415 152.934 75.0016 152.65 74.7467C152.376 74.4896 152.009 74.4108 151.551 74.5102ZM160.304 77.0657C160.259 76.8572 160.134 76.7096 159.929 76.6229C159.725 76.5362 159.481 76.469 159.198 76.4213C158.915 76.3735 158.606 76.3314 158.27 76.295C157.933 76.2481 157.613 76.1591 157.312 76.028C157.008 75.8864 156.736 75.6889 156.496 75.4354C156.253 75.1716 156.081 74.8051 155.979 74.336C155.812 73.5645 155.914 72.9258 156.284 72.4198C156.655 71.9138 157.273 71.5671 158.138 71.3795C158.732 71.2507 159.282 71.1968 159.789 71.2179C160.296 71.2391 160.701 71.2984 161.006 71.3961L160.872 72.9642C160.612 72.9224 160.288 72.8889 159.9 72.8637C159.513 72.8386 159.131 72.8667 158.756 72.9481C158.152 73.0791 157.9 73.3792 158.002 73.8483C158.042 74.036 158.164 74.1679 158.366 74.2442C158.568 74.3204 158.811 74.3824 159.094 74.4302C159.375 74.4675 159.684 74.5096 160.022 74.5565C160.359 74.6033 160.679 74.6923 160.98 74.8235C161.279 74.9442 161.549 75.1313 161.789 75.3847C162.03 75.6382 162.2 75.9943 162.299 76.453C162.471 77.2452 162.351 77.9261 161.94 78.4955C161.537 79.0522 160.829 79.4402 159.818 79.6594C159.266 79.7792 158.729 79.8192 158.207 79.7795C157.698 79.7479 157.272 79.6711 156.929 79.549L157.163 77.9102C157.433 77.9937 157.78 78.0603 158.205 78.11C158.629 78.1492 159.049 78.1236 159.466 78.0332C159.768 77.9676 159.995 77.8583 160.148 77.7052C160.31 77.5499 160.362 77.3367 160.304 77.0657ZM163.673 77.5139C163.594 77.1491 163.647 76.8375 163.831 76.5793C164.013 76.3107 164.291 76.1357 164.667 76.0543C165.063 75.9684 165.399 76.0101 165.676 76.1793C165.95 76.3381 166.127 76.5999 166.206 76.9647C166.285 77.3296 166.234 77.6463 166.052 77.915C165.87 78.1836 165.581 78.3609 165.185 78.4468C164.81 78.5281 164.484 78.4842 164.207 78.315C163.93 78.1458 163.752 77.8788 163.673 77.5139Z" fill="#A3C4BC"/>
</svg>
