<svg width="201" height="164" viewBox="0 0 201 164" fill="none" xmlns="http://www.w3.org/2000/svg">
<path d="M156.183 150.815L156.561 149.889L156.183 150.815ZM118.115 121.018C117.573 120.914 117.049 121.269 116.944 121.811L115.247 130.65C115.142 131.192 115.498 131.716 116.04 131.82C116.582 131.925 117.106 131.569 117.211 131.027L118.72 123.171L126.576 124.68C127.119 124.784 127.643 124.429 127.747 123.887C127.851 123.344 127.496 122.82 126.954 122.716L118.115 121.018ZM196.851 158.667C196.67 157.683 196.671 157.683 196.671 157.683C196.671 157.683 196.672 157.683 196.672 157.683C196.672 157.683 196.672 157.683 196.672 157.683C196.671 157.683 196.67 157.683 196.667 157.684C196.663 157.685 196.655 157.686 196.643 157.688C196.619 157.692 196.581 157.698 196.529 157.706C196.425 157.722 196.265 157.744 196.048 157.77C195.615 157.82 194.959 157.883 194.087 157.926C192.343 158.013 189.734 158.022 186.317 157.705C179.484 157.071 169.413 155.132 156.561 149.889L155.806 151.74C168.839 157.058 179.102 159.044 186.132 159.697C189.646 160.023 192.35 160.015 194.186 159.924C195.104 159.878 195.805 159.812 196.282 159.756C196.52 159.728 196.702 159.702 196.827 159.684C196.89 159.674 196.938 159.666 196.972 159.661C196.989 159.658 197.002 159.656 197.012 159.654C197.017 159.653 197.021 159.652 197.024 159.652C197.026 159.652 197.027 159.651 197.028 159.651C197.029 159.651 197.029 159.651 197.03 159.651C197.03 159.651 197.031 159.651 196.851 158.667ZM156.561 149.889C143.753 144.664 134.289 137.535 128.029 131.715C124.899 128.805 122.573 126.225 121.032 124.377C120.262 123.453 119.688 122.713 119.309 122.206C119.12 121.953 118.979 121.758 118.887 121.628C118.84 121.563 118.806 121.514 118.784 121.482C118.773 121.467 118.765 121.455 118.76 121.448C118.758 121.444 118.756 121.441 118.755 121.44C118.755 121.439 118.754 121.439 118.754 121.439C118.754 121.439 118.754 121.439 118.754 121.439C118.754 121.439 118.754 121.439 117.927 122C117.099 122.561 117.099 122.561 117.099 122.562C117.099 122.562 117.1 122.563 117.1 122.563C117.101 122.564 117.102 122.565 117.103 122.567C117.105 122.57 117.107 122.574 117.111 122.579C117.118 122.589 117.128 122.604 117.141 122.623C117.168 122.661 117.206 122.716 117.257 122.787C117.358 122.93 117.509 123.138 117.708 123.404C118.107 123.937 118.702 124.705 119.496 125.658C121.084 127.562 123.468 130.205 126.667 133.18C133.064 139.127 142.728 146.405 155.806 151.74L156.561 149.889Z" fill="#A3C4BC"/>
<path d="M14.0737 48.6589C14.0014 48.3253 13.8175 48.0814 13.5221 47.9271C13.2372 47.7706 12.889 47.6497 12.4775 47.5642C12.0742 47.4661 11.6345 47.3759 11.1582 47.2936C10.6901 47.1986 10.2402 47.0615 9.80842 46.8823C9.38481 46.6903 9.00496 46.4234 8.6689 46.0815C8.34325 45.7374 8.11376 45.2578 7.98042 44.6427C7.86516 44.1111 7.85432 43.6332 7.94792 43.2091C8.03926 42.7745 8.21825 42.3919 8.48491 42.0612C8.76199 41.7283 9.1111 41.4507 9.53224 41.2284C9.95337 41.0061 10.4402 40.8351 10.9927 40.7153C11.6286 40.5775 12.2404 40.5048 12.8282 40.4975C13.4137 40.4797 13.9115 40.5355 14.3216 40.6649L14.039 42.6089C13.7781 42.5126 13.4058 42.4569 12.9223 42.4417C12.4365 42.416 11.9277 42.4608 11.3961 42.5761C10.8957 42.6846 10.5315 42.8672 10.3034 43.1241C10.0857 43.3786 10.013 43.6727 10.0854 44.0063C10.1532 44.319 10.3295 44.5536 10.6145 44.7101C10.9099 44.8644 11.2592 44.9906 11.6625 45.0887C12.0762 45.1846 12.5171 45.28 12.9852 45.375C13.4637 45.4677 13.9148 45.61 14.3384 45.8019C14.7702 45.9812 15.1489 46.2429 15.4745 46.587C15.8083 46.9185 16.0385 47.3761 16.1651 47.9599C16.2916 48.5437 16.3022 49.0707 16.1968 49.5411C16.0996 49.9987 15.9042 50.4067 15.6108 50.765C15.3278 51.1211 14.9508 51.4211 14.4799 51.6651C14.0193 51.9068 13.4919 52.0921 12.8977 52.2209C12.1159 52.3904 11.412 52.4666 10.7862 52.4495C10.1604 52.4324 9.69088 52.3813 9.37778 52.2964L9.66917 50.3178C9.7974 50.3554 9.95803 50.3916 10.1511 50.4261C10.3545 50.4584 10.5777 50.481 10.8206 50.4938C11.0635 50.5066 11.3146 50.5068 11.5738 50.4942C11.8434 50.4794 12.1138 50.4426 12.3848 50.3839C13.0207 50.246 13.4829 50.0367 13.7712 49.7559C14.0678 49.4624 14.1686 49.0967 14.0737 48.6589ZM23.6639 49.1501C23.4009 49.4472 23.0577 49.7017 22.6343 49.9136C22.2236 50.1336 21.7836 50.2945 21.3145 50.3962C20.6891 50.5318 20.136 50.548 19.6552 50.4448C19.1848 50.3394 18.7757 50.1389 18.4279 49.8432C18.0777 49.5371 17.7847 49.1422 17.5489 48.6586C17.3235 48.1726 17.1441 47.6221 17.0108 47.0071C16.7237 45.6832 16.8005 44.6024 17.241 43.7647C17.6793 42.9166 18.4665 42.3693 19.6028 42.123C20.1761 41.9987 20.645 41.9462 21.0093 41.9654C21.3841 41.9824 21.728 42.0333 22.0411 42.1183L21.9158 43.8809C21.6511 43.8182 21.3922 43.7815 21.1388 43.771C20.8959 43.7581 20.6233 43.7845 20.321 43.85C19.7581 43.9721 19.3714 44.2524 19.1608 44.6909C18.9481 45.1191 18.9298 45.7397 19.1061 46.5528C19.1784 46.8864 19.2816 47.186 19.4156 47.4517C19.5496 47.7173 19.7121 47.9385 19.9033 48.1154C20.0944 48.2922 20.3182 48.4184 20.5747 48.4937C20.8393 48.5564 21.128 48.5539 21.4407 48.4861C21.7847 48.4115 22.0676 48.3065 22.2892 48.1711C22.5087 48.0253 22.6986 47.8695 22.8592 47.7038L23.6639 49.1501ZM23.5159 45.5968C23.2289 44.2729 23.3317 43.1864 23.8243 42.3374C24.3147 41.478 25.1437 40.9218 26.3112 40.6686C26.9367 40.533 27.5002 40.5145 28.0018 40.6132C28.5034 40.7118 28.945 40.9108 29.3264 41.2101C29.7055 41.499 30.0234 41.883 30.2801 42.3622C30.5472 42.8391 30.7475 43.385 30.8808 44.0001C31.1678 45.324 31.0661 46.4156 30.5758 47.2751C30.0936 48.1218 29.2687 48.6717 28.1011 48.9248C27.4757 49.0604 26.9121 49.0789 26.4105 48.9803C25.9089 48.8817 25.4633 48.689 25.0737 48.4024C24.6923 48.1031 24.368 47.715 24.1009 47.2381C23.8442 46.7589 23.6492 46.2118 23.5159 45.5968ZM25.6112 45.1425C25.6858 45.4865 25.786 45.7977 25.9118 46.076C26.0377 46.3543 26.1869 46.5894 26.3594 46.7812C26.532 46.973 26.7308 47.11 26.956 47.1921C27.1894 47.2616 27.4468 47.2658 27.7282 47.2048C28.2599 47.0895 28.6142 46.8108 28.7912 46.3686C28.9682 45.9264 28.9663 45.2883 28.7855 44.4543C28.6295 43.735 28.3842 43.1825 28.0495 42.7966C27.7126 42.4004 27.2575 42.2644 26.6841 42.3887C26.1837 42.4972 25.8335 42.7695 25.6334 43.2058C25.4333 43.6421 25.4259 44.2877 25.6112 45.1425ZM30.6292 39.9617L31.7081 39.7278L31.3895 38.2579L33.2968 37.2387L33.7409 39.2871L35.6486 38.8735L36.0215 40.5935L34.1138 41.0071L34.7647 44.0094C34.8822 44.5514 35.0191 44.9311 35.1753 45.1482C35.3397 45.3527 35.5731 45.4222 35.8754 45.3566C36.0839 45.3114 36.2566 45.2522 36.3935 45.1788C36.5408 45.1032 36.6992 45.0034 36.8688 44.8793L37.5674 46.365C37.3154 46.5616 37.0118 46.7474 36.6569 46.9226C36.302 47.0978 35.9316 47.2272 35.5459 47.3108C34.8266 47.4667 34.2554 47.3996 33.8323 47.1093C33.4174 46.8063 33.1184 46.2327 32.9353 45.3883L32.081 41.4478L31.0021 41.6817L30.6292 39.9617ZM35.9738 38.803L37.0527 38.5691L36.7341 37.0992L38.6414 36.08L39.0855 38.1284L40.9932 37.7148L41.3661 39.4348L39.4584 39.8484L40.1093 42.8507C40.2268 43.3927 40.3637 43.7724 40.5199 43.9895C40.6843 44.194 40.9177 44.2635 41.22 44.1979C41.4285 44.1527 41.6011 44.0935 41.7381 44.0201C41.8854 43.9445 42.0438 43.8447 42.2134 43.7206L42.912 45.2063C42.6599 45.4029 42.3564 45.5887 42.0015 45.7639C41.6466 45.9391 41.2762 46.0685 40.8905 46.1521C40.1712 46.308 39.6 46.2409 39.1769 45.9506C38.762 45.6476 38.463 45.074 38.2799 44.2296L37.4256 40.2891L36.3467 40.523L35.9738 38.803ZM45.3803 36.7637L46.4592 36.5298L46.1405 35.0599L48.0479 34.0406L48.492 36.0891L50.3997 35.6755L50.7726 37.3955L48.8649 37.8091L49.5158 40.8114C49.6333 41.3534 49.7702 41.7331 49.9264 41.9502C50.0908 42.1547 50.3241 42.2242 50.6264 42.1586C50.8349 42.1134 51.0076 42.0542 51.1445 41.9808C51.2919 41.9052 51.4503 41.8054 51.6199 41.6813L52.3185 43.167C52.0664 43.3635 51.7629 43.5494 51.408 43.7246C51.053 43.8998 50.6827 44.0292 50.297 44.1128C49.5777 44.2687 49.0065 44.2016 48.5834 43.9113C48.1685 43.6083 47.8695 43.0347 47.6864 42.1903L46.8321 38.2498L45.7532 38.4837L45.3803 36.7637ZM51.6963 35.8692C52.0726 35.5911 52.5361 35.3378 53.0868 35.1093C53.6353 34.8703 54.2223 34.683 54.8478 34.5474C55.3898 34.4299 55.858 34.3993 56.2522 34.4558C56.6442 34.5018 56.9704 34.622 57.2309 34.8166C57.5018 35.0089 57.7151 35.2628 57.8708 35.5783C58.037 35.8916 58.1652 36.2567 58.2556 36.6736C58.3551 37.1323 58.44 37.5996 58.5104 38.0755C58.5786 38.5409 58.6561 38.9989 58.7428 39.4494C58.84 39.8977 58.9506 40.3321 59.0745 40.7528C59.1962 41.163 59.3602 41.5421 59.5667 41.8903L57.9092 42.2496L57.3469 41.2419L57.2687 41.2588C57.1303 41.6272 56.8994 41.9719 56.5761 42.2931C56.261 42.6015 55.8115 42.819 55.2278 42.9456C54.8629 43.0247 54.5232 43.0437 54.2088 43.0028C53.892 42.9514 53.6079 42.8493 53.3565 42.6964C53.1028 42.5331 52.8892 42.3284 52.7158 42.0822C52.5401 41.8256 52.415 41.5253 52.3404 41.1813C52.2364 40.7018 52.2537 40.2778 52.3921 39.9095C52.5387 39.5284 52.7886 39.1959 53.1418 38.912C53.5031 38.6153 53.9522 38.3706 54.4888 38.1779C55.0337 37.9725 55.6535 37.8108 56.3483 37.6929C56.2947 37.0933 56.1626 36.6854 55.952 36.4691C55.7391 36.2424 55.3617 36.1878 54.8196 36.3053C54.413 36.3934 53.9894 36.5289 53.5489 36.7118C53.1187 36.8923 52.7723 37.082 52.5098 37.2808L51.6963 35.8692ZM55.5374 41.1267C55.944 41.0385 56.2479 40.8799 56.4493 40.6507C56.6483 40.411 56.7826 40.1746 56.8521 39.9412L56.6317 38.9248C56.3018 38.9636 55.9879 39.0262 55.6901 39.1126C55.4028 39.1967 55.1523 39.3001 54.9388 39.4228C54.7253 39.5455 54.5655 39.6893 54.4593 39.8542C54.3532 40.0191 54.3227 40.2058 54.3679 40.4143C54.4312 40.7062 54.5643 40.9174 54.7673 41.0481C54.9784 41.166 55.2351 41.1922 55.5374 41.1267ZM62.9755 37.746L62.4282 37.8646L63.1299 41.1014L61.0972 41.5421L58.7241 30.5964L60.7569 30.1557L62.157 36.6137L62.5786 36.2931L63.6866 32.7949L65.9227 32.3101L64.6904 35.6879L64.0217 36.455L65.0139 36.8784L67.9148 40.0641L65.5849 40.5692L62.9755 37.746ZM74.7038 37.8882C74.4453 38.2062 74.0642 38.5126 73.5606 38.8073C73.0651 39.0894 72.515 39.2959 71.9104 39.427C70.649 39.7005 69.6474 39.5356 68.9054 38.9325C68.1612 38.3189 67.6501 37.371 67.3721 36.0888C67.0737 34.7128 67.1784 33.6096 67.686 32.7792C68.1935 31.9488 69.0415 31.4047 70.2299 31.1471C70.6261 31.0612 71.0231 31.0297 71.4209 31.0526C71.8188 31.0755 72.1897 31.1752 72.5336 31.3517C72.8774 31.5281 73.182 31.8004 73.4474 32.1686C73.7128 32.5367 73.911 33.0231 74.0421 33.6277C74.0895 33.8466 74.1247 34.0846 74.1477 34.3415C74.1811 34.5962 74.2011 34.8648 74.2077 35.1471L69.5167 36.1641C69.6904 36.8141 69.9645 37.2731 70.3391 37.5411C70.7242 37.8069 71.2607 37.8652 71.9488 37.7161C72.3762 37.6234 72.7431 37.4784 73.0496 37.2809C73.3642 37.0708 73.5954 36.8788 73.7433 36.7049L74.7038 37.8882ZM70.5512 32.7801C70.0196 32.8954 69.6585 33.1428 69.4679 33.5225C69.2855 33.8895 69.2259 34.3444 69.289 34.8874L72.1975 34.2568C72.1171 33.6849 71.9347 33.2715 71.6503 33.0166C71.3762 32.7595 71.0099 32.6807 70.5512 32.7801ZM79.3044 35.3355C79.2592 35.127 79.1344 34.9795 78.9301 34.8928C78.7257 34.8061 78.482 34.7389 78.1987 34.6912C77.9155 34.6434 77.6063 34.6013 77.2709 34.5649C76.9333 34.518 76.6139 34.429 76.3126 34.2979C76.009 34.1563 75.737 33.9588 75.4965 33.7053C75.2538 33.4414 75.0815 33.0749 74.9798 32.6058C74.8126 31.8344 74.9142 31.1957 75.2848 30.6897C75.6553 30.1837 76.2732 29.8369 77.1384 29.6493C77.7326 29.5205 78.283 29.4667 78.7897 29.4878C79.2963 29.5089 79.7021 29.5683 80.0071 29.6659L79.8723 31.2341C79.6122 31.1922 79.2884 31.1588 78.9009 31.1336C78.5135 31.1085 78.1321 31.1366 77.7568 31.2179C77.1522 31.349 76.9007 31.6491 77.0024 32.1182C77.0431 32.3058 77.1645 32.4378 77.3666 32.514C77.5687 32.5903 77.8113 32.6523 78.0945 32.7C78.3755 32.7374 78.6847 32.7794 79.0223 32.8263C79.3599 32.8732 79.6794 32.9622 79.9807 33.0933C80.2797 33.214 80.5495 33.4011 80.79 33.6546C81.0305 33.9081 81.2004 34.2641 81.2999 34.7228C81.4716 35.5151 81.3518 36.1959 80.9405 36.7653C80.5373 37.3221 79.8301 37.71 78.8189 37.9293C78.2664 38.0491 77.7294 38.0891 77.2078 38.0494C76.6989 38.0178 76.2729 37.941 75.9299 37.8189L76.164 36.1801C76.4332 36.2636 76.7805 36.3302 77.206 36.3798C77.6293 36.419 78.0494 36.3935 78.4663 36.3031C78.7687 36.2375 78.996 36.1282 79.1483 35.9751C79.3111 35.8198 79.3631 35.6066 79.3044 35.3355ZM84.579 28.2654L85.658 28.0315L85.3393 26.5617L87.2466 25.5424L87.6907 27.5908L89.5984 27.1772L89.9713 28.8973L88.0636 29.3109L88.7145 32.3131C88.832 32.8552 88.9689 33.2348 89.1251 33.452C89.2895 33.6564 89.5229 33.7259 89.8252 33.6604C90.0337 33.6152 90.2064 33.5559 90.3433 33.4826C90.4906 33.407 90.649 33.3071 90.8186 33.1831L91.5173 34.6688C91.2652 34.8653 90.9617 35.0512 90.6067 35.2263C90.2518 35.4015 89.8815 35.5309 89.4958 35.6145C88.7765 35.7705 88.2053 35.7033 87.7822 35.413C87.3672 35.1101 87.0682 34.5364 86.8851 33.692L86.0309 29.7516L84.9519 29.9855L84.579 28.2654ZM97.3235 33.6883L96.3607 29.2475C96.2228 28.6116 96.0348 28.1721 95.7966 27.9291C95.5583 27.686 95.2046 27.6154 94.7355 27.7171C94.3915 27.7916 94.0996 27.9804 93.8597 28.2835C93.6279 28.5738 93.5047 28.9116 93.49 29.2968L94.5714 34.2849L92.5386 34.7256L90.1656 23.7799L92.1984 23.3392L93.0662 27.3422L93.1288 27.3287C93.3066 26.9408 93.5565 26.6084 93.8785 26.3312C94.2004 26.054 94.6428 25.8544 95.2057 25.7324C95.6018 25.6465 95.9624 25.6229 96.2873 25.6616C96.6122 25.7003 96.8997 25.8181 97.1497 26.0149C97.4102 26.2095 97.6325 26.5051 97.8167 26.9017C98.0091 27.2857 98.1709 27.7799 98.3019 28.3846L99.3562 33.2476L97.3235 33.6883ZM107.168 30.85C106.91 31.1679 106.529 31.4743 106.025 31.769C105.53 32.0511 104.98 32.2577 104.375 32.3887C103.114 32.6622 102.112 32.4974 101.37 31.8942C100.626 31.2806 100.115 30.3327 99.8366 29.0505C99.5383 27.6745 99.6429 26.5713 100.151 25.7409C100.658 24.9105 101.506 24.3665 102.694 24.1088C103.091 24.0229 103.488 23.9914 103.886 24.0143C104.283 24.0372 104.654 24.1369 104.998 24.3134C105.342 24.4899 105.647 24.7622 105.912 25.1303C106.177 25.4984 106.376 25.9848 106.507 26.5894C106.554 26.8083 106.589 27.0463 106.612 27.3033C106.646 27.558 106.666 27.8265 106.672 28.1088L101.981 29.1258C102.155 29.7758 102.429 30.2348 102.804 30.5028C103.189 30.7686 103.725 30.8269 104.413 30.6778C104.841 30.5851 105.208 30.4401 105.514 30.2427C105.829 30.0326 106.06 29.8405 106.208 29.6666L107.168 30.85ZM103.016 25.7418C102.484 25.8571 102.123 26.1045 101.932 26.4842C101.75 26.8512 101.69 27.3061 101.754 27.8491L104.662 27.2185C104.582 26.6466 104.399 26.2332 104.115 25.9783C103.841 25.7212 103.474 25.6424 103.016 25.7418ZM117.396 29.3366L116.474 25.0834C116.318 24.3642 116.139 23.868 115.938 23.5951C115.737 23.3222 115.423 23.2321 114.996 23.3247C114.641 23.4016 114.376 23.5627 114.2 23.8083C114.022 24.0434 113.908 24.3245 113.859 24.6517L114.988 29.8587L112.955 30.2994L111.26 22.481L112.839 22.1386L113.298 23.1198L113.36 23.1063C113.528 22.7207 113.767 22.3633 114.077 22.034C114.398 21.7024 114.851 21.4734 115.434 21.3468C115.935 21.2383 116.364 21.2544 116.722 21.3951C117.088 21.5231 117.412 21.8077 117.693 22.2488C117.844 21.7903 118.082 21.4004 118.405 21.0793C118.728 20.7582 119.156 20.54 119.688 20.4247C120.125 20.3298 120.507 20.3017 120.832 20.3404C121.167 20.3768 121.457 20.505 121.701 20.725C121.953 20.9322 122.173 21.2394 122.359 21.6464C122.546 22.0535 122.71 22.5854 122.852 23.2421L123.869 27.9332L121.837 28.3739L120.884 23.98C120.751 23.3649 120.583 22.9209 120.382 22.648C120.19 22.3624 119.869 22.2682 119.421 22.3653C119.056 22.4444 118.785 22.6068 118.609 22.8523C118.444 23.0955 118.346 23.4005 118.317 23.7671L119.429 28.8959L117.396 29.3366ZM124.315 23.7437C124.028 22.4198 124.131 21.3333 124.623 20.4843C125.114 19.6249 125.943 19.0686 127.11 18.8155C127.736 18.6799 128.299 18.6614 128.801 18.7601C129.302 18.8587 129.744 19.0577 130.125 19.357C130.504 19.6459 130.822 20.0299 131.079 20.5091C131.346 20.986 131.546 21.5319 131.68 22.147C131.967 23.4709 131.865 24.5625 131.375 25.422C130.893 26.2687 130.068 26.8186 128.9 27.0717C128.275 27.2073 127.711 27.2258 127.209 27.1272C126.708 27.0286 126.262 26.8359 125.873 26.5493C125.491 26.25 125.167 25.8619 124.9 25.385C124.643 24.9058 124.448 24.3587 124.315 23.7437ZM126.41 23.2894C126.485 23.6334 126.585 23.9446 126.711 24.2229C126.837 24.5012 126.986 24.7363 127.158 24.9281C127.331 25.1199 127.53 25.2569 127.755 25.339C127.988 25.4085 128.246 25.4127 128.527 25.3517C129.059 25.2364 129.413 24.9577 129.59 24.5155C129.767 24.0733 129.765 23.4352 129.584 22.6012C129.428 21.8819 129.183 21.3294 128.849 20.9435C128.512 20.5473 128.056 20.4113 127.483 20.5356C126.983 20.644 126.632 20.9164 126.432 21.3527C126.232 21.789 126.225 22.4346 126.41 23.2894ZM136.705 22.8911C136.66 22.6826 136.535 22.535 136.331 22.4483C136.127 22.3617 135.883 22.2944 135.6 22.2467C135.316 22.199 135.007 22.1569 134.672 22.1204C134.334 22.0735 134.015 21.9845 133.713 21.8534C133.41 21.7118 133.138 21.5143 132.897 21.2609C132.655 20.997 132.482 20.6305 132.381 20.1614C132.213 19.39 132.315 18.7513 132.686 18.2453C133.056 17.7393 133.674 17.3925 134.539 17.2049C135.134 17.0761 135.684 17.0222 136.191 17.0434C136.697 17.0645 137.103 17.1239 137.408 17.2215L137.273 18.7896C137.013 18.7478 136.689 18.7143 136.302 18.6892C135.914 18.664 135.533 18.6921 135.158 18.7735C134.553 18.9046 134.302 19.2047 134.403 19.6738C134.444 19.8614 134.565 19.9933 134.767 20.0696C134.97 20.1458 135.212 20.2078 135.495 20.2556C135.776 20.2929 136.086 20.335 136.423 20.3819C136.761 20.4287 137.08 20.5177 137.382 20.6489C137.681 20.7696 137.95 20.9567 138.191 21.2102C138.431 21.4636 138.601 21.8197 138.701 22.2784C138.873 23.0706 138.753 23.7515 138.341 24.3209C137.938 24.8776 137.231 25.2656 136.22 25.4848C135.667 25.6046 135.13 25.6446 134.609 25.6049C134.1 25.5734 133.674 25.4965 133.331 25.3744L133.565 23.7356C133.834 23.8192 134.181 23.8857 134.607 23.9354C135.03 23.9746 135.45 23.949 135.867 23.8586C136.17 23.7931 136.397 23.6837 136.549 23.5307C136.712 23.3753 136.764 23.1621 136.705 22.8911ZM138.025 16.6784L139.104 16.4445L138.785 14.9747L140.693 13.9554L141.137 16.0038L143.044 15.5902L143.417 17.3103L141.51 17.7238L142.16 20.7261C142.278 21.2682 142.415 21.6478 142.571 21.865C142.735 22.0694 142.969 22.1389 143.271 22.0734C143.48 22.0282 143.652 21.9689 143.789 21.8956C143.937 21.82 144.095 21.7201 144.265 21.596L144.963 23.0817C144.711 23.2783 144.408 23.4641 144.053 23.6393C143.698 23.8145 143.327 23.9439 142.942 24.0275C142.222 24.1835 141.651 24.1163 141.228 23.826C140.813 23.5231 140.514 22.9494 140.331 22.105L139.477 18.1646L138.398 18.3985L138.025 16.6784ZM147.431 14.6391L148.51 14.4052L148.192 12.9353L150.099 11.9161L150.543 13.9645L152.451 13.5509L152.824 15.271L150.916 15.6845L151.567 18.6868C151.684 19.2289 151.821 19.6085 151.978 19.8256C152.142 20.0301 152.375 20.0996 152.678 20.0341C152.886 19.9889 153.059 19.9296 153.196 19.8562C153.343 19.7806 153.501 19.6808 153.671 19.5567L154.37 21.0424C154.118 21.239 153.814 21.4248 153.459 21.6C153.104 21.7752 152.734 21.9046 152.348 21.9882C151.629 22.1442 151.058 22.077 150.635 21.7867C150.22 21.4838 149.921 20.9101 149.738 20.0657L148.883 16.1252L147.804 16.3591L147.431 14.6391ZM153.884 13.2403L155.916 12.7996L157.611 20.6179L155.579 21.0586L153.884 13.2403ZM153.109 11.0999C153.043 10.7976 153.097 10.5185 153.271 10.2625C153.453 9.99388 153.742 9.81662 154.138 9.73074C154.534 9.64486 154.876 9.68538 155.163 9.85232C155.458 10.0066 155.639 10.2348 155.704 10.5372C155.77 10.8395 155.7 11.122 155.495 11.3847C155.298 11.6348 155.002 11.8027 154.606 11.8886C154.21 11.9745 153.875 11.9433 153.603 11.7949C153.339 11.6339 153.174 11.4022 153.109 11.0999ZM164.031 19.2261L163.109 14.973C162.953 14.2537 162.775 13.7576 162.574 13.4846C162.373 13.2117 162.058 13.1216 161.631 13.2142C161.276 13.2911 161.011 13.4522 160.835 13.6978C160.657 13.9329 160.543 14.214 160.494 14.5412L161.623 19.7482L159.59 20.1889L157.895 12.3705L159.475 12.0282L159.933 13.0093L159.995 12.9958C160.163 12.6102 160.402 12.2528 160.713 11.9235C161.034 11.5919 161.486 11.3629 162.07 11.2363C162.57 11.1278 162.999 11.1439 163.357 11.2846C163.723 11.4126 164.047 11.6972 164.328 12.1383C164.48 11.6798 164.717 11.2899 165.041 10.9688C165.364 10.6477 165.791 10.4295 166.323 10.3142C166.761 10.2193 167.142 10.1912 167.467 10.2299C167.802 10.2664 168.092 10.3945 168.336 10.6145C168.589 10.8217 168.808 11.1289 168.994 11.5359C169.181 11.943 169.345 12.4749 169.488 13.1317L170.505 17.8227L168.472 18.2634L167.519 13.8695C167.386 13.2544 167.219 12.8104 167.018 12.5375C166.825 12.2519 166.504 12.1577 166.056 12.2548C165.691 12.3339 165.421 12.4963 165.245 12.7418C165.079 12.985 164.982 13.29 164.952 13.6566L166.064 18.7854L164.031 19.2261ZM178.282 15.4326C178.023 15.7506 177.642 16.057 177.139 16.3517C176.643 16.6338 176.093 16.8403 175.489 16.9714C174.227 17.2449 173.226 17.08 172.484 16.4769C171.739 15.8633 171.228 14.9154 170.95 13.6332C170.652 12.2571 170.757 11.1539 171.264 10.3235C171.772 9.49313 172.62 8.94911 173.808 8.69147C174.204 8.60559 174.601 8.57409 174.999 8.59698C175.397 8.61986 175.768 8.71954 176.112 8.89603C176.456 9.07251 176.76 9.34482 177.026 9.71295C177.291 10.0811 177.489 10.5675 177.62 11.1721C177.668 11.391 177.703 11.6289 177.726 11.8859C177.759 12.1406 177.779 12.4091 177.786 12.6915L173.095 13.7085C173.269 14.3584 173.543 14.8175 173.917 15.0855C174.302 15.3513 174.839 15.4096 175.527 15.2604C175.954 15.1678 176.321 15.0227 176.628 14.8253C176.942 14.6152 177.174 14.4232 177.321 14.2493L178.282 15.4326ZM174.129 10.3245C173.598 10.4397 173.237 10.6872 173.046 11.0669C172.864 11.4338 172.804 11.8888 172.867 12.4317L175.776 11.8012C175.695 11.2292 175.513 10.8158 175.228 10.561C174.954 10.3039 174.588 10.225 174.129 10.3245ZM16.1969 64.5784L17.2759 64.3445L16.9572 62.8747L18.8646 61.8554L19.3087 63.9038L21.2163 63.4902L21.5892 65.2103L19.6816 65.6239L20.3324 68.6261C20.45 69.1682 20.5868 69.5478 20.7431 69.765C20.9075 69.9695 21.1408 70.0389 21.4431 69.9734C21.6516 69.9282 21.8243 69.8689 21.9612 69.7956C22.1085 69.72 22.267 69.6201 22.4365 69.4961L23.1352 70.9818C22.8831 71.1783 22.5796 71.3642 22.2246 71.5394C21.8697 71.7145 21.4994 71.8439 21.1137 71.9276C20.3944 72.0835 19.8232 72.0163 19.4001 71.7261C18.9851 71.4231 18.6861 70.8494 18.5031 70.005L17.6488 66.0646L16.5698 66.2985L16.1969 64.5784ZM22.8574 67.2274C22.5704 65.9035 22.6732 64.817 23.1658 63.968C23.6562 63.1086 24.4852 62.5524 25.6527 62.2992C26.2782 62.1636 26.8417 62.1452 27.3433 62.2438C27.845 62.3424 28.2865 62.5414 28.6679 62.8407C29.047 63.1296 29.365 63.5136 29.6216 63.9928C29.8887 64.4697 30.089 65.0156 30.2223 65.6307C30.5093 66.9546 30.4077 68.0463 29.9173 68.9057C29.4351 69.7524 28.6102 70.3023 27.4426 70.5554C26.8172 70.691 26.2536 70.7095 25.752 70.6109C25.2504 70.5123 24.8048 70.3197 24.4152 70.033C24.0338 69.7337 23.7096 69.3456 23.4424 68.8687C23.1858 68.3895 22.9907 67.8424 22.8574 67.2274ZM24.9527 66.7731C25.0273 67.1171 25.1275 67.4283 25.2533 67.7066C25.3792 67.9849 25.5284 68.22 25.7009 68.4118C25.8735 68.6036 26.0723 68.7406 26.2975 68.8227C26.5309 68.8922 26.7883 68.8964 27.0697 68.8354C27.6014 68.7201 27.9557 68.4414 28.1327 67.9992C28.3097 67.557 28.3078 66.9189 28.127 66.0849C27.971 65.3657 27.7257 64.8131 27.3911 64.4272C27.0541 64.031 26.599 63.895 26.0256 64.0193C25.5252 64.1278 25.175 64.4002 24.9749 64.8365C24.7748 65.2728 24.7674 65.9183 24.9527 66.7731ZM42.4828 64.1841C42.5777 64.622 42.6779 65.0587 42.7832 65.4942C42.8885 65.9298 43.0406 66.4044 43.2392 66.9179L41.785 67.2332L41.2832 66.2778L41.2206 66.2914C41.0912 66.7015 40.8533 67.0641 40.5069 67.3793C40.1687 67.6818 39.7337 67.8907 39.2021 68.006C38.2222 68.2184 37.3911 68.0603 36.7089 67.5315C36.0267 67.0027 35.5365 66.0503 35.2382 64.6742C34.9489 63.3399 35.0263 62.2371 35.4705 61.3659C35.9146 60.4947 36.7205 59.9325 37.888 59.6794C38.2112 59.6093 38.4815 59.5725 38.6991 59.569C38.9143 59.5551 39.1353 59.5672 39.3618 59.6054L38.6737 56.4312L40.7064 55.9905L42.4828 64.1841ZM39.2983 66.1843C39.6944 66.0984 39.9868 65.9368 40.1755 65.6994C40.3619 65.4516 40.4624 65.1351 40.4771 64.7499L39.7585 61.4349C39.5877 61.3519 39.408 61.3035 39.2195 61.2898C39.0287 61.2657 38.7926 61.2842 38.5111 61.3452C37.9378 61.4695 37.547 61.7561 37.3387 62.2051C37.1409 62.6518 37.1436 63.3443 37.347 64.2825C37.4917 64.9497 37.7228 65.4617 38.0402 65.8185C38.3681 66.1731 38.7875 66.295 39.2983 66.1843ZM50.9719 64.5211C50.7134 64.8391 50.3324 65.1455 49.8287 65.4402C49.3332 65.7223 48.7832 65.9288 48.1786 66.0599C46.9172 66.3334 45.9155 66.1685 45.1735 65.5654C44.4293 64.9518 43.9182 64.0039 43.6402 62.7217C43.3419 61.3457 43.4465 60.2424 43.9541 59.412C44.4617 58.5817 45.3097 58.0376 46.4981 57.78C46.8942 57.6941 47.2912 57.6626 47.6891 57.6855C48.087 57.7084 48.4579 57.8081 48.8017 57.9845C49.1456 58.161 49.4502 58.4333 49.7156 58.8015C49.9809 59.1696 50.1791 59.656 50.3102 60.2606C50.3577 60.4795 50.3929 60.7175 50.4159 60.9744C50.4492 61.2291 50.4693 61.4977 50.4759 61.78L45.7849 62.797C45.9585 63.447 46.2327 63.906 46.6073 64.174C46.9924 64.4398 47.5289 64.4981 48.2169 64.3489C48.6443 64.2563 49.0112 64.1112 49.3177 63.9138C49.6323 63.7037 49.8636 63.5117 50.0114 63.3378L50.9719 64.5211ZM46.8194 59.413C46.2877 59.5282 45.9266 59.7757 45.7361 60.1554C45.5537 60.5223 45.4941 60.9773 45.5572 61.5203L48.4656 60.8897C48.3853 60.3177 48.2029 59.9043 47.9184 59.6495C47.6444 59.3924 47.278 59.3135 46.8194 59.413ZM54.3293 61.7468C54.4084 62.1116 54.513 62.3673 54.643 62.5137C54.773 62.6602 54.9422 62.7108 55.1507 62.6656C55.2758 62.6385 55.3934 62.6021 55.5035 62.5564C55.6241 62.5084 55.7651 62.4287 55.9265 62.3173L56.4912 63.8648C56.3425 63.9844 56.1052 64.1231 55.7792 64.2811C55.4533 64.4391 55.1079 64.5576 54.7431 64.6367C54.1489 64.7656 53.666 64.7284 53.2945 64.5251C52.9208 64.3115 52.665 63.8867 52.5271 63.2508L50.4931 53.8687L52.5259 53.428L54.3293 61.7468ZM55.8925 55.9725L57.9253 55.5318L59.6203 63.3502L57.5875 63.7909L55.8925 55.9725ZM55.1174 53.8321C55.0519 53.5298 55.106 53.2507 55.2797 52.9947C55.4616 52.7261 55.7506 52.5488 56.1467 52.463C56.5428 52.3771 56.8845 52.4176 57.1717 52.5845C57.4671 52.7388 57.6476 52.9671 57.7131 53.2694C57.7787 53.5717 57.7089 53.8542 57.504 54.1169C57.3071 54.367 57.0107 54.5349 56.6145 54.6208C56.2184 54.7067 55.8842 54.6755 55.6119 54.5271C55.3478 54.3661 55.183 54.1344 55.1174 53.8321ZM63.4975 58.6131L64.0244 59.7595L64.1026 59.7426L64.0537 58.4598L64.5014 54.1061L66.6905 53.6315L65.1344 62.2366L63.8991 62.5044L58.794 55.3435L61.1551 54.8316L63.4975 58.6131ZM75.0531 59.3004C74.7946 59.6183 74.4136 59.9247 73.9099 60.2194C73.4144 60.5015 72.8644 60.7081 72.2597 60.8391C70.9984 61.1126 69.9967 60.9478 69.2547 60.3446C68.5105 59.731 67.9994 58.7831 67.7214 57.5009C67.4231 56.1249 67.5277 55.0217 68.0353 54.1913C68.5429 53.3609 69.3909 52.8169 70.5793 52.5592C70.9754 52.4733 71.3724 52.4418 71.7703 52.4647C72.1682 52.4876 72.539 52.5873 72.8829 52.7638C73.2268 52.9403 73.5314 53.2126 73.7967 53.5807C74.0621 53.9488 74.2603 54.4352 74.3914 55.0398C74.4389 55.2587 74.4741 55.4967 74.497 55.7537C74.5304 56.0084 74.5505 56.2769 74.5571 56.5592L69.8661 57.5762C70.0397 58.2262 70.3139 58.6852 70.6885 58.9532C71.0736 59.219 71.6101 59.2773 72.2981 59.1282C72.7255 59.0355 73.0924 58.8905 73.3989 58.6931C73.7135 58.483 73.9448 58.2909 74.0926 58.117L75.0531 59.3004ZM70.9006 54.1922C70.3689 54.3075 70.0078 54.5549 69.8173 54.9346C69.6349 55.3016 69.5752 55.7565 69.6384 56.2995L72.5468 55.6689C72.4665 55.097 72.2841 54.6836 71.9996 54.4287C71.7256 54.1716 71.3592 54.0928 70.9006 54.1922ZM79.9191 52.7609C79.571 52.7163 79.2667 52.7222 79.0061 52.7787C78.6412 52.8578 78.3552 53.0235 78.1479 53.2759C77.9489 53.5155 77.8404 53.7955 77.8225 54.1159L78.9175 59.1665L76.8847 59.6072L75.1897 51.7889L76.769 51.4465L77.2273 52.4277L77.2899 52.4141C77.3835 51.99 77.5588 51.6409 77.8159 51.3669C78.073 51.0928 78.4049 50.9117 78.8114 50.8236C79.0825 50.7648 79.4024 50.7555 79.7713 50.7956L79.9191 52.7609ZM83.8136 49.9192L84.8926 49.6853L84.5739 48.2155L86.4813 47.1962L86.9253 49.2446L88.833 48.831L89.2059 50.5511L87.2983 50.9646L87.9491 53.9669C88.0667 54.509 88.2035 54.8886 88.3598 55.1058C88.5241 55.3102 88.7575 55.3797 89.0598 55.3142C89.2683 55.269 89.441 55.2097 89.5779 55.1364C89.7252 55.0608 89.8837 54.9609 90.0532 54.8368L90.7519 56.3225C90.4998 56.5191 90.1963 56.7049 89.8413 56.8801C89.4864 57.0553 89.1161 57.1847 88.7304 57.2683C88.0111 57.4243 87.4399 57.3571 87.0168 57.0668C86.6018 56.7639 86.3028 56.1902 86.1198 55.3458L85.2655 51.4053L84.1865 51.6393L83.8136 49.9192ZM96.5581 55.3421L95.5953 50.9013C95.4575 50.2654 95.2694 49.8259 95.0312 49.5828C94.7929 49.3398 94.4393 49.2691 93.9702 49.3708C93.6262 49.4454 93.3342 49.6342 93.0943 49.9373C92.8626 50.2276 92.7393 50.5654 92.7246 50.9506L93.806 55.9387L91.7732 56.3794L89.4002 45.4337L91.433 44.993L92.3008 48.996L92.3634 48.9825C92.5413 48.5946 92.7912 48.2621 93.1131 47.985C93.435 47.7078 93.8774 47.5082 94.4403 47.3862C94.8365 47.3003 95.197 47.2767 95.5219 47.3154C95.8468 47.3541 96.1343 47.4719 96.3843 47.6687C96.6448 47.8633 96.8671 48.1589 97.0514 48.5555C97.2437 48.9394 97.4055 49.4337 97.5366 50.0384L98.5909 54.9014L96.5581 55.3421ZM98.7867 46.6731L100.819 46.2324L102.514 54.0508L100.482 54.4915L98.7867 46.6731ZM98.0116 44.5327C97.946 44.2304 98.0001 43.9513 98.1738 43.6953C98.3557 43.4267 98.6447 43.2494 99.0409 43.1635C99.437 43.0777 99.7787 43.1182 100.066 43.2851C100.361 43.4394 100.542 43.6677 100.607 43.97C100.673 44.2723 100.603 44.5548 100.398 44.8175C100.201 45.0676 99.9048 45.2355 99.5087 45.3214C99.1125 45.4073 98.7783 45.3761 98.5061 45.2277C98.2419 45.0667 98.0771 44.835 98.0116 44.5327ZM107.262 50.7621C107.217 50.5536 107.092 50.406 106.888 50.3194C106.684 50.2327 106.44 50.1655 106.157 50.1177C105.874 50.07 105.564 50.0279 105.229 49.9915C104.891 49.9446 104.572 49.8556 104.271 49.7245C103.967 49.5829 103.695 49.3854 103.454 49.1319C103.212 48.868 103.04 48.5015 102.938 48.0324C102.771 47.261 102.872 46.6223 103.243 46.1163C103.613 45.6103 104.231 45.2635 105.096 45.0759C105.691 44.9471 106.241 44.8933 106.748 44.9144C107.254 44.9355 107.66 44.9949 107.965 45.0925L107.83 46.6607C107.57 46.6188 107.246 46.5853 106.859 46.5602C106.471 46.5351 106.09 46.5632 105.715 46.6445C105.11 46.7756 104.859 47.0757 104.96 47.5448C105.001 47.7324 105.122 47.8644 105.325 47.9406C105.527 48.0169 105.769 48.0789 106.052 48.1266C106.333 48.1639 106.643 48.206 106.98 48.2529C107.318 48.2998 107.637 48.3888 107.939 48.5199C108.238 48.6406 108.507 48.8277 108.748 49.0812C108.988 49.3347 109.158 49.6907 109.258 50.1494C109.43 50.9417 109.31 51.6225 108.898 52.1919C108.495 52.7487 107.788 53.1366 106.777 53.3559C106.224 53.4756 105.687 53.5157 105.166 53.476C104.657 53.4444 104.231 53.3676 103.888 53.2455L104.122 51.6067C104.391 51.6902 104.738 51.7568 105.164 51.8064C105.587 51.8456 106.007 51.82 106.424 51.7296C106.727 51.6641 106.954 51.5548 107.106 51.4017C107.269 51.2464 107.321 51.0332 107.262 50.7621ZM117.814 48.4745C117.769 48.266 117.644 48.1184 117.44 48.0318C117.235 47.9451 116.992 47.8779 116.708 47.8301C116.425 47.7824 116.116 47.7403 115.781 47.7039C115.443 47.657 115.124 47.568 114.822 47.4368C114.519 47.2953 114.247 47.0978 114.006 46.8443C113.763 46.5804 113.591 46.2139 113.49 45.7448C113.322 44.9734 113.424 44.3347 113.794 43.8287C114.165 43.3227 114.783 42.9759 115.648 42.7883C116.242 42.6595 116.793 42.6057 117.299 42.6268C117.806 42.6479 118.212 42.7073 118.517 42.8049L118.382 44.3731C118.122 44.3312 117.798 44.2977 117.411 44.2726C117.023 44.2475 116.642 44.2756 116.267 44.3569C115.662 44.488 115.41 44.7881 115.512 45.2572C115.553 45.4448 115.674 45.5768 115.876 45.653C116.078 45.7293 116.321 45.7913 116.604 45.839C116.885 45.8763 117.194 45.9184 117.532 45.9653C117.87 46.0122 118.189 46.1012 118.49 46.2323C118.789 46.353 119.059 46.5401 119.3 46.7936C119.54 47.0471 119.71 47.4031 119.81 47.8618C119.981 48.6541 119.862 49.3349 119.45 49.9043C119.047 50.4611 118.34 50.849 117.329 51.0683C116.776 51.188 116.239 51.2281 115.717 51.1883C115.209 51.1568 114.783 51.08 114.44 50.9579L114.674 49.3191C114.943 49.4026 115.29 49.4692 115.716 49.5188C116.139 49.558 116.559 49.5324 116.976 49.442C117.278 49.3765 117.506 49.2672 117.658 49.1141C117.821 48.9587 117.873 48.7456 117.814 48.4745ZM119.947 42.0856L121.432 41.7635L121.87 42.6509L121.933 42.6373C122.118 42.1824 122.373 41.8216 122.697 41.5549C123.031 41.2859 123.465 41.0937 123.996 40.9785C124.976 40.766 125.779 40.9194 126.404 41.4387C127.028 41.9475 127.488 42.8899 127.787 44.266C127.931 44.9331 127.984 45.5547 127.946 46.1307C127.904 46.6962 127.768 47.2006 127.537 47.6436C127.316 48.0845 127.003 48.4525 126.597 48.7477C126.203 49.0407 125.718 49.2494 125.145 49.3737C124.822 49.4437 124.55 49.4753 124.331 49.4684C124.113 49.4719 123.889 49.4441 123.658 49.3851L124.353 52.5906L122.32 53.0313L119.947 42.0856ZM123.759 42.8307C123.363 42.9166 123.072 43.0834 122.885 43.3312C122.71 43.5768 122.602 43.9111 122.563 44.3344L123.268 47.5868C123.439 47.6699 123.615 47.7298 123.798 47.7666C123.989 47.7907 124.225 47.7723 124.506 47.7113C125.09 47.5847 125.484 47.2865 125.688 46.8167C125.889 46.3364 125.887 45.622 125.681 44.6733C125.532 43.9853 125.302 43.4785 124.992 43.153C124.681 42.8274 124.27 42.72 123.759 42.8307ZM136.195 46.0448C135.937 46.3628 135.556 46.6692 135.052 46.9639C134.557 47.246 134.006 47.4525 133.402 47.5836C132.14 47.8571 131.139 47.6922 130.397 47.0891C129.653 46.4755 129.142 45.5276 128.864 44.2454C128.565 42.8693 128.67 41.7661 129.177 40.9357C129.685 40.1053 130.533 39.5613 131.721 39.3037C132.118 39.2178 132.515 39.1863 132.912 39.2092C133.31 39.2321 133.681 39.3317 134.025 39.5082C134.369 39.6847 134.673 39.957 134.939 40.3252C135.204 40.6933 135.402 41.1797 135.534 41.7843C135.581 42.0032 135.616 42.2411 135.639 42.4981C135.673 42.7528 135.693 43.0213 135.699 43.3037L131.008 44.3207C131.182 44.9707 131.456 45.4297 131.831 45.6977C132.216 45.9635 132.752 46.0218 133.44 45.8726C133.868 45.78 134.235 45.6349 134.541 45.4375C134.856 45.2274 135.087 45.0354 135.235 44.8615L136.195 46.0448ZM132.043 40.9367C131.511 41.0519 131.15 41.2994 130.959 41.6791C130.777 42.046 130.717 42.501 130.78 43.0439L133.689 42.4134C133.609 41.8414 133.426 41.428 133.142 41.1732C132.868 40.9161 132.501 40.8372 132.043 40.9367ZM144.059 44.3399C143.801 44.6579 143.42 44.9642 142.916 45.259C142.421 45.541 141.871 45.7476 141.266 45.8787C140.005 46.1521 139.003 45.9873 138.261 45.3841C137.517 44.7705 137.006 43.8226 136.728 42.5404C136.429 41.1644 136.534 40.0612 137.042 39.2308C137.549 38.4004 138.397 37.8564 139.586 37.5987C139.982 37.5128 140.379 37.4813 140.777 37.5042C141.174 37.5271 141.545 37.6268 141.889 37.8033C142.233 37.9798 142.538 38.2521 142.803 38.6202C143.068 38.9883 143.267 39.4747 143.398 40.0793C143.445 40.2983 143.48 40.5362 143.503 40.7932C143.537 41.0479 143.557 41.3164 143.563 41.5987L138.872 42.6157C139.046 43.2657 139.32 43.7247 139.695 43.9927C140.08 44.2585 140.616 44.3168 141.304 44.1677C141.732 44.075 142.099 43.93 142.405 43.7326C142.72 43.5225 142.951 43.3305 143.099 43.1565L144.059 44.3399ZM139.907 39.2317C139.375 39.347 139.014 39.5944 138.824 39.9741C138.641 40.3411 138.582 40.796 138.645 41.339L141.553 40.7084C141.473 40.1365 141.29 39.7231 141.006 39.4682C140.732 39.2111 140.366 39.1323 139.907 39.2317ZM151.245 42.9785C150.982 43.2756 150.639 43.5301 150.215 43.742C149.805 43.962 149.365 44.1229 148.896 44.2246C148.27 44.3602 147.717 44.3764 147.236 44.2732C146.766 44.1678 146.357 43.9673 146.009 43.6716C145.659 43.3655 145.366 42.9706 145.13 42.487C144.905 42.001 144.725 41.4505 144.592 40.8355C144.305 39.5116 144.382 38.4308 144.822 37.5931C145.26 36.745 146.048 36.1978 147.184 35.9514C147.757 35.8271 148.226 35.7746 148.59 35.7938C148.965 35.8108 149.309 35.8617 149.622 35.9467L149.497 37.7093C149.232 37.6466 148.973 37.6099 148.72 37.5994C148.477 37.5865 148.204 37.6129 147.902 37.6784C147.339 37.8005 146.953 38.0808 146.742 38.5193C146.529 38.9475 146.511 39.5681 146.687 40.3812C146.76 40.7148 146.863 41.0144 146.997 41.2801C147.131 41.5457 147.293 41.7669 147.484 41.9438C147.676 42.1206 147.899 42.2468 148.156 42.3221C148.42 42.3848 148.709 42.3823 149.022 42.3145C149.366 42.2399 149.649 42.1349 149.87 41.9995C150.09 41.8537 150.28 41.6979 150.44 41.5322L151.245 42.9785ZM157.364 42.1594L156.401 37.7185C156.264 37.0826 156.076 36.6432 155.837 36.4001C155.599 36.1571 155.245 36.0864 154.776 36.1881C154.432 36.2627 154.14 36.4515 153.9 36.7546C153.669 37.0449 153.545 37.3827 153.531 37.7679L154.612 42.756L152.579 43.1967L150.206 32.251L152.239 31.8103L153.107 35.8133L153.17 35.7997C153.347 35.4119 153.597 35.0794 153.919 34.8023C154.241 34.5251 154.684 34.3255 155.246 34.2035C155.643 34.1176 156.003 34.094 156.328 34.1327C156.653 34.1714 156.94 34.2892 157.19 34.486C157.451 34.6805 157.673 34.9761 157.858 35.3728C158.05 35.7567 158.212 36.251 158.343 36.8556L159.397 41.7187L157.364 42.1594ZM160.649 40.3995C160.572 40.0451 160.626 39.7388 160.81 39.4806C161.004 39.2201 161.273 39.0526 161.618 38.978C162.055 38.8831 162.431 38.9544 162.744 39.1921C163.058 39.4297 163.267 39.7883 163.371 40.2678C163.472 40.7369 163.486 41.1541 163.413 41.5193C163.341 41.895 163.22 42.216 163.048 42.4824C162.89 42.7569 162.699 42.9838 162.476 43.1632C162.265 43.3507 162.068 43.4972 161.883 43.6026L161.106 42.8871C161.363 42.7114 161.567 42.4706 161.719 42.1648C161.871 41.859 161.926 41.5579 161.883 41.2615C161.65 41.3448 161.405 41.3215 161.148 41.1917C160.901 41.0597 160.735 40.7957 160.649 40.3995ZM166.022 32.0966L168.054 31.6559L169.749 39.4743L167.717 39.915L166.022 32.0966ZM165.247 29.9563C165.181 29.6539 165.235 29.3748 165.409 29.1189C165.591 28.8502 165.88 28.673 166.276 28.5871C166.672 28.5012 167.014 28.5417 167.301 28.7087C167.596 28.8629 167.777 29.0912 167.842 29.3935C167.908 29.6958 167.838 29.9783 167.633 30.2411C167.436 30.4911 167.14 30.6591 166.744 30.745C166.347 30.8308 166.013 30.7996 165.741 30.6513C165.477 30.4902 165.312 30.2586 165.247 29.9563ZM176.513 38.0079L175.55 33.5671C175.413 32.9312 175.219 32.4928 174.971 32.2521C174.732 32.009 174.394 31.935 173.957 32.0299C173.571 32.1135 173.267 32.2994 173.046 32.5875C172.833 32.8629 172.705 33.1798 172.663 33.5383L173.761 38.6046L171.728 39.0453L170.033 31.2269L171.644 30.8777L172.102 31.8589L172.165 31.8453C172.332 31.4598 172.587 31.099 172.929 30.7629C173.271 30.4268 173.754 30.191 174.38 30.0554C174.765 29.9718 175.121 29.9493 175.446 29.988C175.771 30.0267 176.063 30.1433 176.324 30.3379C176.584 30.5325 176.812 30.8269 177.006 31.2213C177.199 31.6053 177.361 32.0996 177.492 32.7042L178.546 37.5672L176.513 38.0079ZM21.1312 84.9966L22.6166 84.6745L23.0546 85.5619L23.1171 85.5483C23.3023 85.0934 23.557 84.7326 23.8811 84.4659C24.2157 84.1969 24.6489 84.0047 25.1805 83.8895C26.1604 83.677 26.9631 83.8304 27.5887 84.3497C28.212 84.8585 28.6728 85.8009 28.9711 87.177C29.1158 87.8441 29.1687 88.4657 29.1298 89.0417C29.0887 89.6072 28.9525 90.1115 28.7211 90.5546C28.5001 90.9954 28.187 91.3635 27.7817 91.6587C27.3868 91.9517 26.9027 92.1604 26.3293 92.2847C26.0062 92.3547 25.7347 92.3863 25.5149 92.3794C25.2974 92.3829 25.0731 92.3551 24.842 92.296L25.5369 95.5016L23.5042 95.9423L21.1312 84.9966ZM24.9436 85.7417C24.5475 85.8276 24.2562 85.9944 24.0698 86.2422C23.8938 86.4877 23.7862 86.8221 23.747 87.2454L24.4521 90.4978C24.6229 90.5809 24.7997 90.6408 24.9823 90.6776C25.173 90.7017 25.4092 90.6833 25.6906 90.6222C26.2744 90.4957 26.6682 90.1975 26.8719 89.7276C27.0734 89.2474 27.0713 88.5329 26.8656 87.5843C26.7165 86.8963 26.4865 86.3895 26.1758 86.0639C25.8651 85.7384 25.4544 85.631 24.9436 85.7417ZM29.627 83.6295C30.0033 83.3514 30.4668 83.0981 31.0176 82.8696C31.5661 82.6306 32.153 82.4433 32.7785 82.3077C33.3206 82.1902 33.7887 82.1596 34.183 82.2161C34.575 82.2621 34.9012 82.3823 35.1616 82.5769C35.4325 82.7692 35.6459 83.0231 35.8016 83.3386C35.9677 83.6518 36.096 84.017 36.1864 84.4339C36.2858 84.8926 36.3708 85.3599 36.4412 85.8358C36.5093 86.3012 36.5868 86.7592 36.6736 87.2097C36.7707 87.658 36.8813 88.0924 37.0052 88.5131C37.1269 88.9233 37.291 89.3024 37.4974 89.6506L35.8399 90.0099L35.2777 89.0022L35.1995 89.0191C35.061 89.3875 34.8302 89.7322 34.5069 90.0534C34.1917 90.3618 33.7423 90.5793 33.1585 90.7059C32.7937 90.785 32.454 90.804 32.1395 90.7631C31.8228 90.7117 31.5387 90.6096 31.2872 90.4567C31.0335 90.2934 30.82 90.0887 30.6466 89.8425C30.4709 89.5859 30.3457 89.2856 30.2711 88.9416C30.1672 88.4621 30.1844 88.0381 30.3228 87.6697C30.4694 87.2887 30.7193 86.9562 31.0725 86.6723C31.4339 86.3756 31.8829 86.1309 32.4196 85.9382C32.9644 85.7328 33.5842 85.5711 34.279 85.4532C34.2254 84.8536 34.0933 84.4457 33.8827 84.2294C33.6699 84.0027 33.2924 83.9481 32.7503 84.0656C32.3438 84.1537 31.9202 84.2892 31.4796 84.4721C31.0494 84.6526 30.7031 84.8423 30.4406 85.0411L29.627 83.6295ZM33.4682 88.887C33.8747 88.7988 34.1787 88.6402 34.38 88.411C34.5791 88.1713 34.7134 87.9349 34.7828 87.7015L34.5625 86.6851C34.2325 86.7239 33.9187 86.7865 33.6209 86.8729C33.3335 86.957 33.0831 87.0604 32.8696 87.1831C32.656 87.3058 32.4962 87.4496 32.3901 87.6145C32.2839 87.7794 32.2535 87.9661 32.2987 88.1746C32.3619 88.4665 32.4951 88.6777 32.698 88.8084C32.9091 88.9263 33.1658 88.9525 33.4682 88.887ZM42.0622 82.4561C41.7142 82.4115 41.4099 82.4174 41.1493 82.4739C40.7844 82.553 40.4984 82.7187 40.2911 82.971C40.092 83.2106 39.9836 83.4907 39.9657 83.811L41.0607 88.8617L39.0279 89.3024L37.3329 81.484L38.9122 81.1417L39.3705 82.1228L39.433 82.1093C39.5266 81.6851 39.702 81.3361 39.9591 81.062C40.2162 80.788 40.548 80.6069 40.9546 80.5188C41.2256 80.46 41.5456 80.4507 41.9145 80.4908L42.0622 82.4561ZM42.4752 80.3692L43.5541 80.1353L43.2355 78.6654L45.1428 77.6462L45.5869 79.6946L47.4946 79.281L47.8675 81.001L45.9598 81.4146L46.6107 84.4169C46.7282 84.959 46.8651 85.3386 47.0213 85.5557C47.1857 85.7602 47.419 85.8297 47.7214 85.7641C47.9298 85.7189 48.1025 85.6597 48.2394 85.5863C48.3868 85.5107 48.5452 85.4109 48.7148 85.2868L49.4134 86.7725C49.1613 86.9691 48.8578 87.1549 48.5029 87.3301C48.1479 87.5053 47.7776 87.6347 47.3919 87.7183C46.6726 87.8743 46.1014 87.8071 45.6783 87.5168C45.2634 87.2138 44.9644 86.6402 44.7813 85.7958L43.927 81.8553L42.8481 82.0892L42.4752 80.3692ZM52.0168 75.0263L54.0495 74.5856L54.8632 78.3384L54.9257 78.3248C55.0904 78.0272 55.3289 77.7681 55.6413 77.5476C55.9536 77.327 56.3183 77.1716 56.7353 77.0812C57.6735 76.8778 58.4576 77.0461 59.0877 77.5862C59.7259 78.1136 60.1874 79.0341 60.4722 80.3476C60.7773 81.7549 60.6597 82.8991 60.1195 83.7802C59.5897 84.6591 58.7201 85.2296 57.5109 85.4918C56.8437 85.6364 56.2215 85.7113 55.6441 85.7164C55.069 85.7319 54.626 85.7025 54.3152 85.628L52.0168 75.0263ZM56.514 78.93C56.1387 79.0114 55.8527 79.1771 55.6558 79.4271C55.4672 79.6645 55.3498 79.9792 55.3039 80.3711L56.0429 83.78C56.2278 83.8272 56.4174 83.8461 56.6118 83.8367C56.8167 83.825 57.0285 83.7955 57.2475 83.748C57.8 83.6282 58.174 83.3398 58.3696 82.8826C58.5733 82.4128 58.5803 81.74 58.3904 80.8644C58.0673 79.3737 57.4418 78.7289 56.514 78.93ZM68.8821 82.1261C68.6236 82.4441 68.2425 82.7504 67.7389 83.0452C67.2434 83.3272 66.6933 83.5338 66.0887 83.6649C64.8273 83.9383 63.8257 83.7735 63.0837 83.1703C62.3395 82.5568 61.8284 81.6089 61.5504 80.3266C61.252 78.9506 61.3567 77.8474 61.8643 77.017C62.3718 76.1866 63.2198 75.6426 64.4082 75.3849C64.8044 75.2991 65.2014 75.2676 65.5992 75.2904C65.9971 75.3133 66.368 75.413 66.7119 75.5895C67.0557 75.766 67.3603 76.0383 67.6257 76.4064C67.8911 76.7746 68.0893 77.2609 68.2204 77.8656C68.2678 78.0845 68.303 78.3224 68.326 78.5794C68.3594 78.8341 68.3794 79.1026 68.386 79.3849L63.695 80.402C63.8687 81.0519 64.1428 81.5109 64.5174 81.779C64.9025 82.0447 65.439 82.1031 66.1271 81.9539C66.5545 81.8612 66.9214 81.7162 67.2279 81.5188C67.5425 81.3087 67.7737 81.1167 67.9216 80.9427L68.8821 82.1261ZM64.7295 77.0179C64.1979 77.1332 63.8368 77.3807 63.6462 77.7603C63.4638 78.1273 63.4042 78.5823 63.4673 79.1252L66.3758 78.4947C66.2954 77.9227 66.113 77.5093 65.8286 77.2544C65.5545 76.9973 65.1882 76.9185 64.7295 77.0179ZM76.0677 80.7647C75.8046 81.0619 75.4614 81.3164 75.038 81.5282C74.6273 81.7482 74.1874 81.9091 73.7183 82.0108C73.0929 82.1464 72.5397 82.1626 72.059 82.0595C71.5886 81.9541 71.1795 81.7535 70.8316 81.4578C70.4815 81.1517 70.1885 80.7569 69.9527 80.2732C69.7273 79.7872 69.5479 79.2367 69.4146 78.6217C69.1275 77.2978 69.2043 76.217 69.6448 75.3793C70.083 74.5312 70.8703 73.984 72.0066 73.7376C72.5799 73.6133 73.0488 73.5608 73.4131 73.58C73.7879 73.597 74.1318 73.648 74.4449 73.7329L74.3195 75.4955C74.0549 75.4328 73.7959 75.3962 73.5426 75.3856C73.2997 75.3728 73.0271 75.3991 72.7248 75.4647C72.1619 75.5867 71.7752 75.867 71.5646 76.3056C71.3518 76.7337 71.3336 77.3543 71.5099 78.1674C71.5822 78.501 71.6854 78.8006 71.8193 79.0663C71.9533 79.3319 72.1159 79.5532 72.307 79.73C72.4982 79.9069 72.722 80.033 72.9785 80.1083C73.2431 80.171 73.5318 80.1685 73.8445 80.1007C74.1885 80.0261 74.4713 79.9211 74.693 79.7857C74.9124 79.6399 75.1024 79.4842 75.2629 79.3184L76.0677 80.7647ZM75.7585 73.6282C76.1347 73.3502 76.5983 73.0969 77.149 72.8683C77.6975 72.6294 78.2845 72.4421 78.91 72.3065C79.452 72.1889 79.9202 72.1584 80.3144 72.2148C80.7064 72.2608 81.0326 72.3811 81.2931 72.5756C81.564 72.768 81.7773 73.0219 81.933 73.3374C82.0992 73.6506 82.2274 74.0157 82.3178 74.4327C82.4173 74.8914 82.5022 75.3587 82.5726 75.8345C82.6408 76.3 82.7183 76.758 82.805 77.2085C82.9022 77.6567 83.0128 78.0912 83.1367 78.5118C83.2584 78.922 83.4224 79.3012 83.6289 79.6493L81.9714 80.0087L81.4091 79.0009L81.3309 79.0179C81.1925 79.3863 80.9616 79.731 80.6383 80.0521C80.3232 80.3606 79.8737 80.5781 79.29 80.7046C78.9251 80.7837 78.5854 80.8028 78.2709 80.7618C77.9542 80.7104 77.6701 80.6083 77.4187 80.4554C77.165 80.2922 76.9514 80.0874 76.778 79.8412C76.6023 79.5846 76.4772 79.2843 76.4026 78.9403C76.2986 78.4608 76.3159 78.0369 76.4543 77.6685C76.6009 77.2875 76.8508 76.955 77.204 76.671C77.5653 76.3744 78.0143 76.1297 78.551 75.9369C79.0959 75.7315 79.7157 75.5698 80.4105 75.452C80.3569 74.8524 80.2248 74.4444 80.0142 74.2281C79.8013 74.0014 79.4238 73.9468 78.8818 74.0643C78.4752 74.1525 78.0516 74.288 77.611 74.4708C77.1809 74.6514 76.8345 74.8411 76.572 75.0399L75.7585 73.6282ZM79.5996 78.8857C80.0062 78.7976 80.3101 78.6389 80.5115 78.4097C80.7105 78.1701 80.8448 77.9336 80.9143 77.7003L80.6939 76.6839C80.364 76.7227 80.0501 76.7852 79.7523 76.8716C79.465 76.9558 79.2145 77.0592 79.001 77.1819C78.7875 77.3046 78.6277 77.4484 78.5215 77.6133C78.4154 77.7782 78.3849 77.9648 78.4301 78.1733C78.4934 78.4652 78.6265 78.6765 78.8295 78.8071C79.0406 78.9251 79.2973 78.9513 79.5996 78.8857ZM85.4189 71.059L86.3817 75.4999C86.5196 76.1358 86.692 76.5786 86.8989 76.8285C87.1163 77.076 87.4439 77.1523 87.8818 77.0574C88.2675 76.9738 88.5606 76.7902 88.761 76.5066C88.9719 76.2208 89.1037 75.8975 89.1565 75.5368L88.0615 70.4861L90.0943 70.0454L91.274 75.487C91.3667 75.9144 91.4791 76.3321 91.6112 76.74C91.741 77.1375 91.8838 77.4941 92.0395 77.8096L90.5071 78.1418L89.8966 77.0626L89.8341 77.0762C89.6802 77.5243 89.4178 77.925 89.0469 78.2783C88.676 78.6315 88.1986 78.8715 87.6149 78.998C87.2187 79.0839 86.853 79.1086 86.5177 79.0722C86.1823 79.0357 85.8844 78.9202 85.624 78.7257C85.3635 78.5311 85.1319 78.243 84.929 77.8613C84.7367 77.4773 84.5738 76.9778 84.4405 76.3628L83.3862 71.4997L85.4189 71.059ZM96.3422 74.6174C96.297 74.4089 96.1723 74.2614 95.9679 74.1747C95.7636 74.088 95.5198 74.0208 95.2366 73.9731C94.9534 73.9253 94.6441 73.8832 94.3088 73.8468C93.9712 73.7999 93.6518 73.7109 93.3505 73.5798C93.0469 73.4382 92.7749 73.2407 92.5344 72.9872C92.2916 72.7233 92.1194 72.3568 92.0177 71.8877C91.8505 71.1163 91.9521 70.4776 92.3226 69.9716C92.6932 69.4656 93.3111 69.1188 94.1763 68.9313C94.7705 68.8024 95.3209 68.7486 95.8276 68.7697C96.3342 68.7909 96.74 68.8502 97.0449 68.9478L96.9101 70.516C96.65 70.4742 96.3263 70.4407 95.9388 70.4155C95.5513 70.3904 95.17 70.4185 94.7947 70.4998C94.1901 70.6309 93.9386 70.931 94.0403 71.4001C94.081 71.5878 94.2024 71.7197 94.4044 71.796C94.6065 71.8722 94.8492 71.9342 95.1324 71.9819C95.4133 72.0193 95.7226 72.0614 96.0602 72.1082C96.3978 72.1551 96.7172 72.2441 97.0185 72.3752C97.3176 72.496 97.5873 72.683 97.8278 72.9365C98.0683 73.19 98.2383 73.5461 98.3377 74.0047C98.5095 74.797 98.3897 75.4778 97.9783 76.0473C97.5751 76.604 96.868 76.992 95.8568 77.2112C95.3043 77.331 94.7672 77.371 94.2456 77.3313C93.7367 77.2997 93.3108 77.2229 92.9678 77.1008L93.2019 75.462C93.471 75.5455 93.8184 75.6121 94.2439 75.6617C94.6671 75.701 95.0872 75.6754 95.5042 75.585C95.8065 75.5194 96.0339 75.4101 96.1862 75.257C96.349 75.1017 96.401 74.8885 96.3422 74.6174ZM106.279 74.0185C106.02 74.3365 105.639 74.6428 105.136 74.9376C104.64 75.2196 104.09 75.4262 103.486 75.5573C102.224 75.8307 101.223 75.6659 100.481 75.0627C99.7363 74.4492 99.2252 73.5013 98.9472 72.2191C98.6489 70.843 98.7535 69.7398 99.2611 68.9094C99.7687 68.079 100.617 67.535 101.805 67.2773C102.201 67.1915 102.598 67.16 102.996 67.1828C103.394 67.2057 103.765 67.3054 104.109 67.4819C104.453 67.6584 104.757 67.9307 105.023 68.2988C105.288 68.667 105.486 69.1533 105.617 69.758C105.665 69.9769 105.7 70.2148 105.723 70.4718C105.756 70.7265 105.776 70.995 105.783 71.2774L101.092 72.2944C101.266 72.9443 101.54 73.4033 101.914 73.6714C102.299 73.9372 102.836 73.9955 103.524 73.8463C103.951 73.7536 104.318 73.6086 104.625 73.4112C104.939 73.2011 105.171 73.0091 105.318 72.8351L106.279 74.0185ZM102.126 68.9103C101.595 69.0256 101.234 69.2731 101.043 69.6527C100.861 70.0197 100.801 70.4747 100.864 71.0176L103.773 70.3871C103.692 69.8151 103.51 69.4017 103.225 69.1468C102.951 68.8897 102.585 68.8109 102.126 68.9103ZM110.843 69.6401C110.556 68.3162 110.659 67.2298 111.151 66.3808C111.642 65.5214 112.471 64.9651 113.638 64.712C114.264 64.5764 114.827 64.5579 115.329 64.6565C115.83 64.7551 116.272 64.9541 116.653 65.2534C117.032 65.5423 117.35 65.9263 117.607 66.4055C117.874 66.8824 118.074 67.4284 118.208 68.0434C118.495 69.3673 118.393 70.459 117.903 71.3184C117.42 72.1651 116.596 72.715 115.428 72.9682C114.803 73.1038 114.239 73.1223 113.737 73.0236C113.236 72.925 112.79 72.7324 112.401 72.4457C112.019 72.1464 111.695 71.7583 111.428 71.2814C111.171 70.8023 110.976 70.2552 110.843 69.6401ZM112.938 69.1859C113.013 69.5299 113.113 69.841 113.239 70.1194C113.365 70.3977 113.514 70.6327 113.686 70.8245C113.859 71.0163 114.058 71.1533 114.283 71.2355C114.516 71.3049 114.774 71.3091 115.055 71.2481C115.587 71.1329 115.941 70.8541 116.118 70.4119C116.295 69.9697 116.293 69.3316 116.112 68.4977C115.956 67.7784 115.711 67.2258 115.376 66.84C115.039 66.4437 114.584 66.3077 114.011 66.432C113.511 66.5405 113.16 66.8129 112.96 67.2492C112.76 67.6855 112.753 68.331 112.938 69.1859ZM117.867 64.0244L118.946 63.7905L118.851 63.3527C118.636 62.3624 118.69 61.6031 119.012 61.0748C119.331 60.5362 119.888 60.181 120.68 60.0092C121.514 59.8284 122.228 59.7772 122.824 59.8554L122.786 61.5664C122.528 61.535 122.303 61.5292 122.111 61.549C121.927 61.5562 121.735 61.5812 121.537 61.6242C121.329 61.6694 121.169 61.7368 121.057 61.8265C120.956 61.9139 120.889 62.0321 120.856 62.1812C120.831 62.3176 120.83 62.4871 120.852 62.6897C120.882 62.8796 120.924 63.0996 120.978 63.3498L122.698 62.9769L123.071 64.6969L121.351 65.0698L122.673 71.1682L120.641 71.6089L119.318 65.5105L118.24 65.7445L117.867 64.0244ZM126.752 62.0981L127.831 61.8642L127.512 60.3944L129.419 59.3751L129.863 61.4235L131.771 61.0099L132.144 62.73L130.236 63.1436L130.887 66.1458C131.005 66.6879 131.142 67.0675 131.298 67.2847C131.462 67.4892 131.696 67.5586 131.998 67.4931C132.206 67.4479 132.379 67.3886 132.516 67.3153C132.663 67.2397 132.822 67.1398 132.991 67.0158L133.69 68.5015C133.438 68.698 133.134 68.8839 132.779 69.059C132.424 69.2342 132.054 69.3636 131.668 69.4473C130.949 69.6032 130.378 69.536 129.955 69.2457C129.54 68.9428 129.241 68.3691 129.058 67.5247L128.204 63.5843L127.125 63.8182L126.752 62.0981ZM139.496 67.521L138.533 63.0802C138.396 62.4443 138.208 62.0048 137.969 61.7618C137.731 61.5187 137.377 61.4481 136.908 61.5498C136.564 61.6243 136.272 61.8132 136.032 62.1162C135.801 62.4066 135.677 62.7443 135.663 63.1295L136.744 68.1177L134.711 68.5584L132.338 57.6126L134.371 57.1719L135.239 61.1749L135.301 61.1614C135.479 60.7736 135.729 60.4411 136.051 60.1639C136.373 59.8867 136.816 59.6871 137.378 59.5651C137.775 59.4792 138.135 59.4556 138.46 59.4943C138.785 59.533 139.072 59.6508 139.322 59.8476C139.583 60.0422 139.805 60.3378 139.989 60.7344C140.182 61.1184 140.344 61.6127 140.475 62.2173L141.529 67.0803L139.496 67.521ZM149.341 64.6827C149.083 65.0007 148.702 65.307 148.198 65.6018C147.702 65.8838 147.152 66.0904 146.548 66.2215C145.286 66.4949 144.285 66.3301 143.543 65.7269C142.798 65.1133 142.287 64.1654 142.009 62.8832C141.711 61.5072 141.816 60.404 142.323 59.5736C142.831 58.7432 143.679 58.1992 144.867 57.9415C145.263 57.8556 145.66 57.8241 146.058 57.847C146.456 57.8699 146.827 57.9696 147.171 58.1461C147.515 58.3226 147.819 58.5949 148.085 58.963C148.35 59.3311 148.548 59.8175 148.679 60.4221C148.727 60.6411 148.762 60.879 148.785 61.136C148.818 61.3907 148.838 61.6592 148.845 61.9415L144.154 62.9585C144.328 63.6085 144.602 64.0675 144.976 64.3355C145.361 64.6013 145.898 64.6596 146.586 64.5105C147.013 64.4178 147.38 64.2728 147.687 64.0754C148.001 63.8653 148.233 63.6733 148.381 63.4993L149.341 64.6827ZM145.188 59.5745C144.657 59.6898 144.296 59.9372 144.105 60.3169C143.923 60.6839 143.863 61.1388 143.926 61.6818L146.835 61.0512C146.754 60.4793 146.572 60.0659 146.288 59.811C146.014 59.5539 145.647 59.4751 145.188 59.5745ZM156.653 61.0509C156.733 61.4157 156.837 61.6714 156.967 61.8178C157.097 61.9643 157.266 62.0149 157.475 61.9697C157.6 61.9426 157.718 61.9062 157.828 61.8605C157.948 61.8125 158.089 61.7328 158.251 61.6214L158.815 63.1689C158.667 63.2885 158.429 63.4272 158.103 63.5852C157.777 63.7432 157.432 63.8617 157.067 63.9408C156.473 64.0697 155.99 64.0325 155.619 63.8292C155.245 63.6156 154.989 63.1908 154.851 62.5549L152.817 53.1728L154.85 52.7321L156.653 61.0509ZM158.501 59.3078C158.214 57.9839 158.317 56.8974 158.81 56.0485C159.3 55.1891 160.129 54.6328 161.297 54.3797C161.922 54.2441 162.486 54.2256 162.987 54.3242C163.489 54.4228 163.93 54.6218 164.312 54.9211C164.691 55.21 165.009 55.594 165.265 56.0732C165.533 56.5501 165.733 57.0961 165.866 57.7111C166.153 59.035 166.051 60.1267 165.561 60.9861C165.079 61.8328 164.254 62.3827 163.086 62.6359C162.461 62.7715 161.897 62.79 161.396 62.6913C160.894 62.5927 160.449 62.4001 160.059 62.1134C159.678 61.8141 159.353 61.426 159.086 60.9491C158.83 60.47 158.635 59.9229 158.501 59.3078ZM160.597 58.8535C160.671 59.1976 160.771 59.5087 160.897 59.787C161.023 60.0654 161.172 60.3004 161.345 60.4922C161.517 60.684 161.716 60.821 161.941 60.9031C162.175 60.9726 162.432 60.9768 162.714 60.9158C163.245 60.8006 163.6 60.5218 163.777 60.0796C163.954 59.6374 163.952 58.9993 163.771 58.1654C163.615 57.4461 163.37 56.8935 163.035 56.5077C162.698 56.1114 162.243 55.9754 161.669 56.0997C161.169 56.2082 160.819 56.4806 160.619 56.9169C160.419 57.3532 160.411 57.9987 160.597 58.8535ZM172.908 60.2775L171.945 55.8366C171.807 55.2007 171.614 54.7624 171.365 54.5216C171.127 54.2786 170.789 54.2045 170.351 54.2994C169.965 54.3831 169.662 54.5689 169.44 54.857C169.227 55.1324 169.099 55.4494 169.057 55.8078L170.155 60.8741L168.123 61.3148L166.428 53.4964L168.038 53.1473L168.497 54.1284L168.559 54.1149C168.727 53.7293 168.981 53.3685 169.323 53.0324C169.665 52.6964 170.149 52.4605 170.774 52.3249C171.16 52.2413 171.515 52.2189 171.84 52.2576C172.165 52.2963 172.458 52.4129 172.718 52.6075C172.979 52.802 173.206 53.0965 173.401 53.4909C173.593 53.8748 173.755 54.3691 173.886 54.9737L174.94 59.8368L172.908 60.2775ZM183.258 58.0335C183.504 59.1698 183.377 60.0704 182.878 60.7354C182.38 61.4108 181.579 61.8683 180.474 62.1079C179.723 62.2706 179.118 62.3473 178.657 62.338C178.207 62.3264 177.86 62.287 177.617 62.2198L177.69 60.5177C177.95 60.5595 178.246 60.5935 178.579 60.6195C178.923 60.6432 179.329 60.6043 179.798 60.5026C180.507 60.3489 180.953 60.0886 181.135 59.7216C181.33 59.3628 181.368 58.9071 181.248 58.3546L181.14 57.8542L181.077 57.8678C180.819 58.4368 180.225 58.8219 179.298 59.0231C178.286 59.2423 177.463 59.0934 176.827 58.5764C176.201 58.0572 175.744 57.1304 175.455 55.7961C175.152 54.3992 175.256 53.2688 175.767 52.4048C176.278 51.5409 177.17 50.9711 178.442 50.6954C179.109 50.5507 179.713 50.4688 180.255 50.4496C180.807 50.4282 181.263 50.4439 181.624 50.4966L183.258 58.0335ZM179.492 57.2782C179.888 57.1923 180.172 57.0382 180.342 56.8158C180.522 56.5911 180.631 56.2891 180.669 55.9098L179.906 52.3915C179.554 52.3261 179.138 52.3453 178.658 52.4493C178.137 52.5623 177.773 52.8485 177.567 53.3079C177.359 53.7569 177.348 54.4088 177.533 55.2636C177.698 56.0246 177.948 56.576 178.285 56.9179C178.621 57.2598 179.023 57.3799 179.492 57.2782ZM52.0745 99.7759L53.56 99.4539L53.9979 100.341L54.0605 100.328C54.2456 99.8728 54.5003 99.512 54.8245 99.2452C55.1591 98.9762 55.5922 98.7841 56.1238 98.6688C57.1037 98.4564 57.9065 98.6098 58.532 99.1291C59.1553 99.6379 59.6161 100.58 59.9144 101.956C60.0591 102.624 60.112 103.245 60.0731 103.821C60.032 104.387 59.8958 104.891 59.6644 105.334C59.4435 105.775 59.1303 106.143 58.725 106.438C58.3301 106.731 57.846 106.94 57.2727 107.064C56.9495 107.134 56.678 107.166 56.4582 107.159C56.2407 107.162 56.0164 107.134 55.7853 107.075L56.4803 110.281L54.4475 110.722L52.0745 99.7759ZM55.8869 100.521C55.4908 100.607 55.1995 100.774 55.0131 101.022C54.8371 101.267 54.7295 101.602 54.6903 102.025L55.3954 105.277C55.5663 105.36 55.743 105.42 55.9256 105.457C56.1163 105.481 56.3525 105.463 56.6339 105.402C57.2177 105.275 57.6115 104.977 57.8152 104.507C58.0167 104.027 58.0146 103.312 57.8089 102.364C57.6598 101.676 57.4298 101.169 57.1191 100.843C56.8084 100.518 56.3977 100.41 55.8869 100.521ZM60.5703 98.4088C60.9466 98.1308 61.4101 97.8775 61.9609 97.6489C62.5094 97.41 63.0963 97.2227 63.7218 97.0871C64.2639 96.9696 64.732 96.939 65.1263 96.9954C65.5183 97.0414 65.8445 97.1617 66.105 97.3563C66.3759 97.5486 66.5892 97.8025 66.7449 98.118C66.911 98.4312 67.0393 98.7963 67.1297 99.2133C67.2291 99.672 67.3141 100.139 67.3845 100.615C67.4527 101.081 67.5301 101.539 67.6169 101.989C67.7141 102.437 67.8246 102.872 67.9485 103.292C68.0702 103.703 68.2343 104.082 68.4407 104.43L66.7832 104.789L66.221 103.782L66.1428 103.799C66.0043 104.167 65.7735 104.512 65.4502 104.833C65.135 105.141 64.6856 105.359 64.1018 105.485C63.737 105.564 63.3973 105.583 63.0828 105.542C62.7661 105.491 62.482 105.389 62.2305 105.236C61.9768 105.073 61.7633 104.868 61.5899 104.622C61.4142 104.365 61.289 104.065 61.2145 103.721C61.1105 103.241 61.1277 102.817 61.2662 102.449C61.4127 102.068 61.6626 101.736 62.0158 101.452C62.3772 101.155 62.8262 100.91 63.3629 100.718C63.9077 100.512 64.5275 100.35 65.2223 100.233C65.1688 99.633 65.0367 99.225 64.826 99.0088C64.6132 98.782 64.2357 98.7275 63.6936 98.845C63.2871 98.9331 62.8635 99.0686 62.4229 99.2514C61.9927 99.432 61.6464 99.6217 61.3839 99.8205L60.5703 98.4088ZM64.4115 103.666C64.818 103.578 65.122 103.42 65.3233 103.19C65.5224 102.951 65.6567 102.714 65.7261 102.481L65.5058 101.464C65.1759 101.503 64.862 101.566 64.5642 101.652C64.2768 101.736 64.0264 101.84 63.8129 101.962C63.5993 102.085 63.4395 102.229 63.3334 102.394C63.2272 102.559 63.1968 102.745 63.242 102.954C63.3053 103.246 63.4384 103.457 63.6413 103.588C63.8524 103.706 64.1092 103.732 64.4115 103.666ZM70.2308 95.8397L71.1936 100.281C71.3314 100.916 71.5038 101.359 71.7108 101.609C71.9282 101.857 72.2558 101.933 72.6936 101.838C73.0793 101.754 73.3724 101.571 73.5729 101.287C73.7838 101.001 73.9156 100.678 73.9684 100.317L72.8734 95.2668L74.9062 94.8261L76.0859 100.268C76.1786 100.695 76.291 101.113 76.4231 101.521C76.5529 101.918 76.6957 102.275 76.8514 102.59L75.319 102.922L74.7085 101.843L74.6459 101.857C74.492 102.305 74.2297 102.706 73.8587 103.059C73.4878 103.412 73.0105 103.652 72.4267 103.779C72.0306 103.865 71.6649 103.889 71.3295 103.853C70.9942 103.816 70.6963 103.701 70.4358 103.506C70.1754 103.312 69.9437 103.024 69.7409 102.642C69.5485 102.258 69.3857 101.758 69.2523 101.143L68.198 96.2804L70.2308 95.8397ZM81.1541 99.3981C81.1089 99.1896 80.9841 99.042 80.7798 98.9553C80.5755 98.8686 80.3317 98.8014 80.0485 98.7537C79.7653 98.7059 79.456 98.6639 79.1207 98.6274C78.7831 98.5805 78.4636 98.4915 78.1623 98.3604C77.8588 98.2188 77.5867 98.0213 77.3463 97.7678C77.1035 97.504 76.9313 97.1375 76.8296 96.6684C76.6623 95.8969 76.764 95.2582 77.1345 94.7522C77.505 94.2462 78.1229 93.8995 78.9882 93.7119C79.5824 93.5831 80.1328 93.5292 80.6394 93.5503C81.1461 93.5715 81.5519 93.6308 81.8568 93.7285L81.722 95.2966C81.4619 95.2548 81.1381 95.2213 80.7507 95.1961C80.3632 95.171 79.9818 95.1991 79.6066 95.2805C79.0019 95.4115 78.7505 95.7116 78.8522 96.1807C78.8929 96.3684 79.0142 96.5003 79.2163 96.5766C79.4184 96.6528 79.661 96.7148 79.9442 96.7626C80.2252 96.7999 80.5345 96.842 80.8721 96.8889C81.2097 96.9357 81.5291 97.0247 81.8304 97.1559C82.1294 97.2766 82.3992 97.4637 82.6397 97.7171C82.8802 97.9706 83.0502 98.3267 83.1496 98.7854C83.3214 99.5776 83.2016 100.258 82.7902 100.828C82.387 101.385 81.6798 101.773 80.6686 101.992C80.1161 102.112 79.5791 102.152 79.0575 102.112C78.5486 102.08 78.1227 102.004 77.7797 101.881L78.0138 100.243C78.2829 100.326 78.6302 100.393 79.0557 100.442C79.479 100.482 79.8991 100.456 80.3161 100.366C80.6184 100.3 80.8457 100.191 80.9981 100.038C81.1609 99.8823 81.2129 99.6691 81.1541 99.3981ZM91.0908 98.7991C90.8323 99.1171 90.4512 99.4235 89.9476 99.7182C89.4521 100 88.902 100.207 88.2974 100.338C87.0361 100.611 86.0344 100.447 85.2924 99.8434C84.5482 99.2298 84.0371 98.2819 83.7591 96.9997C83.4608 95.6236 83.5654 94.5204 84.073 93.69C84.5806 92.8596 85.4285 92.3156 86.6169 92.058C87.0131 91.9721 87.4101 91.9406 87.808 91.9635C88.2058 91.9864 88.5767 92.086 88.9206 92.2625C89.2644 92.439 89.5691 92.7113 89.8344 93.0795C90.0998 93.4476 90.298 93.934 90.4291 94.5386C90.4765 94.7575 90.5117 94.9954 90.5347 95.2524C90.5681 95.5071 90.5881 95.7756 90.5948 96.058L85.9037 97.075C86.0774 97.7249 86.3515 98.1839 86.7262 98.452C87.1112 98.7178 87.6478 98.7761 88.3358 98.6269C88.7632 98.5343 89.1301 98.3892 89.4366 98.1918C89.7512 97.9817 89.9824 97.7897 90.1303 97.6158L91.0908 98.7991ZM86.9382 93.691C86.4066 93.8062 86.0455 94.0537 85.8549 94.4334C85.6725 94.8003 85.6129 95.2553 85.6761 95.7982L88.5845 95.1677C88.5041 94.5957 88.3217 94.1823 88.0373 93.9275C87.7633 93.6704 87.3969 93.5915 86.9382 93.691ZM95.6914 96.2464C95.6462 96.0379 95.5214 95.8903 95.3171 95.8036C95.1128 95.717 94.869 95.6498 94.5858 95.602C94.3026 95.5543 93.9933 95.5122 93.6579 95.4757C93.3203 95.4289 93.0009 95.3399 92.6996 95.2087C92.3961 95.0672 92.124 94.8696 91.8835 94.6162C91.6408 94.3523 91.4686 93.9858 91.3669 93.5167C91.1996 92.7453 91.3013 92.1066 91.6718 91.6006C92.0423 91.0946 92.6602 90.7478 93.5254 90.5602C94.1196 90.4314 94.6701 90.3775 95.1767 90.3987C95.6834 90.4198 96.0892 90.4792 96.3941 90.5768L96.2593 92.145C95.9992 92.1031 95.6754 92.0696 95.2879 92.0445C94.9005 92.0193 94.5191 92.0474 94.1438 92.1288C93.5392 92.2599 93.2878 92.56 93.3895 93.0291C93.4301 93.2167 93.5515 93.3487 93.7536 93.4249C93.9557 93.5012 94.1983 93.5632 94.4815 93.6109C94.7625 93.6482 95.0718 93.6903 95.4093 93.7372C95.7469 93.7841 96.0664 93.8731 96.3677 94.0042C96.6667 94.1249 96.9365 94.312 97.177 94.5655C97.4175 94.8189 97.5874 95.175 97.6869 95.6337C97.8586 96.4259 97.7388 97.1068 97.3275 97.6762C96.9243 98.2329 96.2171 98.6209 95.2059 98.8401C94.6534 98.9599 94.1164 99 93.5948 98.9602C93.0859 98.9287 92.6599 98.8518 92.3169 98.7297L92.551 97.0909C92.8202 97.1745 93.1675 97.2411 93.593 97.2907C94.0163 97.3299 94.4364 97.3043 94.8534 97.2139C95.1557 97.1484 95.383 97.0391 95.5354 96.886C95.6981 96.7306 95.7502 96.5174 95.6914 96.2464ZM108.259 95.781L107.296 91.3402C107.158 90.7043 106.97 90.2648 106.732 90.0218C106.494 89.7788 106.14 89.7081 105.671 89.8098C105.327 89.8844 105.035 90.0732 104.795 90.3762C104.563 90.6666 104.44 91.0044 104.426 91.3896L105.507 96.3777L103.474 96.8184L101.101 85.8727L103.134 85.432L104.002 89.435L104.064 89.4214C104.242 89.0336 104.492 88.7011 104.814 88.4239C105.136 88.1468 105.578 87.9472 106.141 87.8251C106.537 87.7392 106.898 87.7157 107.223 87.7544C107.548 87.7931 107.835 87.9108 108.085 88.1076C108.346 88.3022 108.568 88.5978 108.752 88.9945C108.945 89.3784 109.106 89.8727 109.237 90.4773L110.292 95.3403L108.259 95.781ZM118.104 92.9427C117.845 93.2607 117.464 93.5671 116.961 93.8618C116.465 94.1438 115.915 94.3504 115.311 94.4815C114.049 94.755 113.047 94.5901 112.305 93.987C111.561 93.3734 111.05 92.4255 110.772 91.1433C110.474 89.7672 110.578 88.664 111.086 87.8336C111.594 87.0032 112.442 86.4592 113.63 86.2016C114.026 86.1157 114.423 86.0842 114.821 86.1071C115.219 86.13 115.59 86.2296 115.934 86.4061C116.278 86.5826 116.582 86.8549 116.848 87.223C117.113 87.5912 117.311 88.0776 117.442 88.6822C117.49 88.9011 117.525 89.139 117.548 89.396C117.581 89.6507 117.601 89.9192 117.608 90.2016L112.917 91.2186C113.09 91.8685 113.365 92.3275 113.739 92.5956C114.124 92.8614 114.661 92.9197 115.349 92.7705C115.776 92.6779 116.143 92.5328 116.45 92.3354C116.764 92.1253 116.996 91.9333 117.143 91.7594L118.104 92.9427ZM113.951 87.8346C113.42 87.9498 113.059 88.1973 112.868 88.5769C112.686 88.9439 112.626 89.3989 112.689 89.9418L115.598 89.3113C115.517 88.7393 115.335 88.3259 115.05 88.0711C114.776 87.814 114.41 87.7351 113.951 87.8346ZM121.382 84.7501L122.461 84.5162L122.143 83.0463L124.05 82.027L124.494 84.0755L126.402 83.6619L126.775 85.3819L124.867 85.7955L125.518 88.7977C125.635 89.3398 125.772 89.7194 125.928 89.9366C126.093 90.1411 126.326 90.2105 126.629 90.145C126.837 90.0998 127.01 90.0405 127.147 89.9672C127.294 89.8916 127.452 89.7918 127.622 89.6677L128.321 91.1534C128.069 91.3499 127.765 91.5358 127.41 91.711C127.055 91.8862 126.685 92.0156 126.299 92.0992C125.58 92.2551 125.009 92.1879 124.586 91.8977C124.171 91.5947 123.872 91.021 123.688 90.1767L122.834 86.2362L121.755 86.4701L121.382 84.7501ZM127.698 83.8555C128.075 83.5775 128.538 83.3242 129.089 83.0957C129.637 82.8567 130.224 82.6694 130.85 82.5338C131.392 82.4163 131.86 82.3857 132.254 82.4422C132.646 82.4881 132.973 82.6084 133.233 82.803C133.504 82.9953 133.717 83.2492 133.873 83.5647C134.039 83.8779 134.167 84.2431 134.258 84.66C134.357 85.1187 134.442 85.586 134.513 86.0619C134.581 86.5273 134.658 86.9853 134.745 87.4358C134.842 87.8841 134.953 88.3185 135.077 88.7391C135.198 89.1493 135.362 89.5285 135.569 89.8767L133.911 90.236L133.349 89.2283L133.271 89.2452C133.132 89.6136 132.902 89.9583 132.578 90.2795C132.263 90.5879 131.814 90.8054 131.23 90.932C130.865 91.0111 130.525 91.0301 130.211 90.9892C129.894 90.9378 129.61 90.8356 129.359 90.6828C129.105 90.5195 128.891 90.3148 128.718 90.0686C128.542 89.812 128.417 89.5117 128.343 89.1677C128.239 88.6881 128.256 88.2642 128.394 87.8958C128.541 87.5148 128.791 87.1823 129.144 86.8984C129.505 86.6017 129.954 86.357 130.491 86.1643C131.036 85.9588 131.656 85.7972 132.35 85.6793C132.297 85.0797 132.165 84.6718 131.954 84.4555C131.741 84.2288 131.364 84.1742 130.822 84.2917C130.415 84.3798 129.992 84.5153 129.551 84.6982C129.121 84.8787 128.774 85.0684 128.512 85.2672L127.698 83.8555ZM131.54 89.1131C131.946 89.0249 132.25 88.8662 132.451 88.6371C132.65 88.3974 132.785 88.1609 132.854 87.9276L132.634 86.9112C132.304 86.95 131.99 87.0126 131.692 87.099C131.405 87.1831 131.154 87.2865 130.941 87.4092C130.727 87.5319 130.568 87.6757 130.461 87.8406C130.355 88.0055 130.325 88.1922 130.37 88.4007C130.433 88.6926 130.566 88.9038 130.769 89.0344C130.98 89.1524 131.237 89.1786 131.54 89.1131ZM138.978 85.7323L138.43 85.851L139.132 89.0878L137.099 89.5285L134.726 78.5828L136.759 78.1421L138.159 84.6001L138.581 84.2794L139.689 80.7813L141.925 80.2965L140.692 83.6743L140.024 84.4414L141.016 84.8647L143.917 88.0505L141.587 88.5556L138.978 85.7323ZM150.706 85.8746C150.447 86.1926 150.066 86.499 149.563 86.7937C149.067 87.0758 148.517 87.2823 147.913 87.4134C146.651 87.6869 145.649 87.522 144.908 86.9189C144.163 86.3053 143.652 85.3574 143.374 84.0752C143.076 82.6992 143.18 81.5959 143.688 80.7655C144.196 79.9351 145.044 79.3911 146.232 79.1335C146.628 79.0476 147.025 79.0161 147.423 79.039C147.821 79.0619 148.192 79.1616 148.536 79.338C148.88 79.5145 149.184 79.7868 149.45 80.155C149.715 80.5231 149.913 81.0095 150.044 81.6141C150.092 81.833 150.127 82.071 150.15 82.3279C150.183 82.5826 150.203 82.8512 150.21 83.1335L145.519 84.1505C145.692 84.8005 145.967 85.2595 146.341 85.5275C146.726 85.7933 147.263 85.8516 147.951 85.7024C148.378 85.6098 148.745 85.4647 149.052 85.2673C149.366 85.0572 149.598 84.8652 149.745 84.6913L150.706 85.8746ZM146.553 80.7665C146.022 80.8817 145.661 81.1292 145.47 81.5089C145.288 81.8758 145.228 82.3308 145.291 82.8738L148.2 82.2432C148.119 81.6712 147.937 81.2578 147.652 81.003C147.378 80.7459 147.012 80.667 146.553 80.7665ZM155.306 83.3219C155.261 83.1134 155.137 82.9658 154.932 82.8792C154.728 82.7925 154.484 82.7253 154.201 82.6775C153.918 82.6298 153.608 82.5877 153.273 82.5513C152.935 82.5044 152.616 82.4154 152.315 82.2842C152.011 82.1427 151.739 81.9452 151.499 81.6917C151.256 81.4278 151.084 81.0613 150.982 80.5922C150.815 79.8208 150.916 79.1821 151.287 78.6761C151.657 78.1701 152.275 77.8233 153.141 77.6357C153.735 77.5069 154.285 77.4531 154.792 77.4742C155.298 77.4953 155.704 77.5547 156.009 77.6523L155.874 79.2205C155.614 79.1786 155.29 79.1451 154.903 79.12C154.516 79.0948 154.134 79.123 153.759 79.2043C153.154 79.3354 152.903 79.6355 153.005 80.1046C153.045 80.2922 153.167 80.4242 153.369 80.5004C153.571 80.5767 153.813 80.6387 154.097 80.6864C154.378 80.7237 154.687 80.7658 155.024 80.8127C155.362 80.8596 155.681 80.9486 155.983 81.0797C156.282 81.2004 156.552 81.3875 156.792 81.641C157.033 81.8945 157.203 82.2505 157.302 82.7092C157.474 83.5015 157.354 84.1823 156.943 84.7517C156.539 85.3085 155.832 85.6964 154.821 85.9157C154.269 86.0354 153.731 86.0755 153.21 86.0357C152.701 86.0042 152.275 85.9274 151.932 85.8053L152.166 84.1665C152.435 84.25 152.783 84.3166 153.208 84.3662C153.631 84.4054 154.051 84.3798 154.468 84.2894C154.771 84.2239 154.998 84.1146 155.15 83.9615C155.313 83.8061 155.365 83.5929 155.306 83.3219ZM158.676 83.7702C158.597 83.4053 158.649 83.0938 158.834 82.8356C159.015 82.5669 159.294 82.3919 159.669 82.3106C160.065 82.2247 160.402 82.2664 160.679 82.4355C160.953 82.5943 161.13 82.8561 161.209 83.221C161.288 83.5858 161.237 83.9026 161.055 84.1712C160.873 84.4399 160.584 84.6171 160.188 84.703C159.813 84.7844 159.487 84.7404 159.21 84.5713C158.933 84.4021 158.755 84.135 158.676 83.7702Z" fill="#A3C4BC"/>
</svg>
