<svg width="221" height="176" viewBox="0 0 221 176" fill="none" xmlns="http://www.w3.org/2000/svg">
<path d="M174.759 20.5583L175.52 21.8511L174.759 20.5583ZM141.54 55.9964C140.758 56.2681 139.903 55.854 139.631 55.0715L135.203 42.3185C134.931 41.5359 135.345 40.6812 136.128 40.4095C136.91 40.1377 137.765 40.5518 138.037 41.3344L141.973 52.6703L153.309 48.7338C154.092 48.462 154.946 48.8761 155.218 49.6587C155.49 50.4413 155.076 51.296 154.293 51.5678L141.54 55.9964ZM213.873 6.93404C213.818 8.43303 213.818 8.43306 213.819 8.43308C213.819 8.43308 213.82 8.4331 213.82 8.43311C213.82 8.43313 213.821 8.43314 213.821 8.43314C213.821 8.43315 213.82 8.43312 213.818 8.43307C213.815 8.43297 213.808 8.43278 213.797 8.43256C213.776 8.43212 213.741 8.43154 213.691 8.43129C213.591 8.43078 213.434 8.4316 213.222 8.43744C212.797 8.44913 212.15 8.48093 211.292 8.56254C209.576 8.72576 207.016 9.08829 203.704 9.88812C197.082 11.4873 187.441 14.8375 175.52 21.8511L173.999 19.2654C186.174 12.1027 196.089 8.64078 203 6.97195C206.454 6.13776 209.155 5.7523 211.008 5.57603C211.934 5.48789 212.649 5.45207 213.139 5.43858C213.384 5.43183 213.574 5.43066 213.706 5.43132C213.772 5.43166 213.823 5.43244 213.86 5.43322C213.879 5.43361 213.894 5.434 213.905 5.43432C213.911 5.43449 213.915 5.43463 213.919 5.43476C213.921 5.43482 213.923 5.43488 213.924 5.43493C213.925 5.43495 213.926 5.43498 213.926 5.435C213.927 5.43503 213.928 5.43506 213.873 6.93404ZM175.52 21.8511C163.66 28.8285 155.364 37.2009 150.037 43.8251C147.373 47.1363 145.454 50.0071 144.206 52.0418C143.581 53.059 143.125 53.8667 142.826 54.4153C142.677 54.6896 142.568 54.899 142.497 55.0375C142.461 55.1067 142.436 55.1581 142.419 55.1911C142.411 55.2075 142.405 55.2193 142.402 55.2264C142.4 55.23 142.399 55.2323 142.398 55.2335C142.398 55.2341 142.398 55.2344 142.398 55.2344C142.398 55.2344 142.398 55.2341 142.398 55.2341C142.398 55.2338 142.398 55.2334 141.048 54.5794C139.698 53.9254 139.699 53.9248 139.699 53.9242C139.699 53.9239 139.699 53.9232 139.7 53.9226C139.7 53.9214 139.701 53.9199 139.702 53.918C139.704 53.9144 139.706 53.9095 139.709 53.9035C139.715 53.8914 139.723 53.8745 139.734 53.853C139.756 53.81 139.787 53.7483 139.827 53.6687C139.909 53.5095 140.03 53.2788 140.191 52.9827C140.512 52.3907 140.995 51.5372 141.649 50.4725C142.956 48.3433 144.946 45.3668 147.699 41.9448C153.202 35.1025 161.762 26.4644 173.999 19.2654L175.52 21.8511Z" fill="#A3C4BC"/>
<path d="M30.8729 76.752H27.6089V86H25.4169V76.752H22.1369V74.8H30.8729V76.752ZM36.8627 86V81.456C36.8627 80.8053 36.772 80.336 36.5907 80.048C36.4094 79.76 36.0787 79.616 35.5987 79.616C35.2467 79.616 34.9214 79.7387 34.6227 79.984C34.3347 80.2187 34.1427 80.5227 34.0467 80.896V86H31.9667V74.8H34.0467V78.896H34.1107C34.3667 78.5547 34.6814 78.2827 35.0547 78.08C35.428 77.8773 35.9027 77.776 36.4787 77.776C36.884 77.776 37.2414 77.8293 37.5507 77.936C37.86 78.0427 38.116 78.2187 38.3187 78.464C38.532 78.7093 38.6867 79.0453 38.7827 79.472C38.8894 79.888 38.9427 80.4053 38.9427 81.024V86H36.8627ZM47.0854 85.312C46.7654 85.568 46.3281 85.7867 45.7734 85.968C45.2294 86.1387 44.6481 86.224 44.0294 86.224C42.7388 86.224 41.7948 85.8507 41.1974 85.104C40.6001 84.3467 40.3014 83.312 40.3014 82C40.3014 80.592 40.6374 79.536 41.3094 78.832C41.9814 78.128 42.9254 77.776 44.1414 77.776C44.5468 77.776 44.9414 77.8293 45.3254 77.936C45.7094 78.0427 46.0508 78.2187 46.3494 78.464C46.6481 78.7093 46.8881 79.04 47.0694 79.456C47.2508 79.872 47.3414 80.3893 47.3414 81.008C47.3414 81.232 47.3254 81.472 47.2934 81.728C47.2721 81.984 47.2348 82.2507 47.1814 82.528H42.3814C42.4134 83.2 42.5841 83.7067 42.8934 84.048C43.2134 84.3893 43.7254 84.56 44.4294 84.56C44.8668 84.56 45.2561 84.496 45.5974 84.368C45.9494 84.2293 46.2161 84.0907 46.3974 83.952L47.0854 85.312ZM44.1094 79.44C43.5654 79.44 43.1601 79.6053 42.8934 79.936C42.6374 80.256 42.4828 80.688 42.4294 81.232H45.4054C45.4481 80.656 45.3574 80.2133 45.1334 79.904C44.9201 79.5947 44.5788 79.44 44.1094 79.44ZM52.0253 78H53.1293V76.496L55.2093 75.904V78H57.1613V79.76H55.2093V82.832C55.2093 83.3867 55.2626 83.7867 55.3693 84.032C55.4866 84.2667 55.7 84.384 56.0093 84.384C56.2226 84.384 56.404 84.3627 56.5533 84.32C56.7133 84.2773 56.8893 84.2133 57.0813 84.128L57.4493 85.728C57.1613 85.8667 56.8253 85.984 56.4413 86.08C56.0573 86.176 55.668 86.224 55.2733 86.224C54.5373 86.224 53.9933 86.0373 53.6413 85.664C53.3 85.28 53.1293 84.656 53.1293 83.792V79.76H52.0253V78ZM63.9618 78L65.4178 82.096L65.7058 83.424H65.7698L65.9938 82.08L67.0178 78H68.9218L66.4578 86.08H64.9218L63.3058 81.6L63.0978 80.592H63.0178L62.8258 81.616L61.2898 86.08H59.7058L57.1298 78H59.3858L60.5538 82.016L60.7458 83.44H60.8258L61.0978 82L62.4258 78H63.9618ZM69.1764 82C69.1764 80.6453 69.5071 79.6053 70.1684 78.88C70.8298 78.144 71.7578 77.776 72.9524 77.776C73.5924 77.776 74.1471 77.8773 74.6164 78.08C75.0858 78.2827 75.4751 78.5707 75.7844 78.944C76.0938 79.3067 76.3231 79.7493 76.4724 80.272C76.6324 80.7947 76.7124 81.3707 76.7124 82C76.7124 83.3547 76.3818 84.4 75.7204 85.136C75.0698 85.8613 74.1471 86.224 72.9524 86.224C72.3124 86.224 71.7578 86.1227 71.2884 85.92C70.8191 85.7173 70.4244 85.4347 70.1044 85.072C69.7951 84.6987 69.5604 84.2507 69.4004 83.728C69.2511 83.2053 69.1764 82.6293 69.1764 82ZM71.3204 82C71.3204 82.352 71.3524 82.6773 71.4164 82.976C71.4804 83.2747 71.5764 83.536 71.7044 83.76C71.8324 83.984 71.9978 84.16 72.2004 84.288C72.4138 84.4053 72.6644 84.464 72.9524 84.464C73.4964 84.464 73.9018 84.2667 74.1684 83.872C74.4351 83.4773 74.5684 82.8533 74.5684 82C74.5684 81.264 74.4458 80.672 74.2004 80.224C73.9551 79.7653 73.5391 79.536 72.9524 79.536C72.4404 79.536 72.0404 79.728 71.7524 80.112C71.4644 80.496 71.3204 81.1253 71.3204 82ZM82.1531 78.464C82.5797 78.272 83.0864 78.1227 83.6731 78.016C84.2597 77.8987 84.8731 77.84 85.5131 77.84C86.0677 77.84 86.5317 77.9093 86.9051 78.048C87.2784 78.176 87.5717 78.3627 87.7851 78.608C88.0091 78.8533 88.1637 79.1467 88.2491 79.488C88.3451 79.8293 88.3931 80.2133 88.3931 80.64C88.3931 81.1093 88.3771 81.584 88.3451 82.064C88.3131 82.5333 88.2917 82.9973 88.2811 83.456C88.2811 83.9147 88.2971 84.3627 88.3291 84.8C88.3611 85.2267 88.4411 85.632 88.5691 86.016H86.8731L86.5371 84.912H86.4571C86.2437 85.2427 85.9451 85.5307 85.5611 85.776C85.1877 86.0107 84.7024 86.128 84.1051 86.128C83.7317 86.128 83.3957 86.0747 83.0971 85.968C82.7984 85.8507 82.5424 85.6907 82.3291 85.488C82.1157 85.2747 81.9504 85.0293 81.8331 84.752C81.7157 84.464 81.6571 84.144 81.6571 83.792C81.6571 83.3013 81.7637 82.8907 81.9771 82.56C82.2011 82.2187 82.5157 81.9467 82.9211 81.744C83.3371 81.5307 83.8277 81.3867 84.3931 81.312C84.9691 81.2267 85.6091 81.2 86.3131 81.232C86.3877 80.6347 86.3451 80.208 86.1851 79.952C86.0251 79.6853 85.6677 79.552 85.1131 79.552C84.6971 79.552 84.2544 79.5947 83.7851 79.68C83.3264 79.7653 82.9477 79.8773 82.6491 80.016L82.1531 78.464ZM84.7931 84.416C85.2091 84.416 85.5397 84.3253 85.7851 84.144C86.0304 83.952 86.2117 83.7493 86.3291 83.536V82.496C85.9984 82.464 85.6784 82.4587 85.3691 82.48C85.0704 82.5013 84.8037 82.5493 84.5691 82.624C84.3344 82.6987 84.1477 82.8053 84.0091 82.944C83.8704 83.0827 83.8011 83.2587 83.8011 83.472C83.8011 83.7707 83.8864 84.0053 84.0571 84.176C84.2384 84.336 84.4837 84.416 84.7931 84.416ZM95.8026 85.504C95.4826 85.7387 95.0932 85.9147 94.6346 86.032C94.1866 86.16 93.7226 86.224 93.2426 86.224C92.6026 86.224 92.0586 86.1227 91.6106 85.92C91.1732 85.7173 90.8159 85.4347 90.5386 85.072C90.2612 84.6987 90.0586 84.2507 89.9306 83.728C89.8132 83.2053 89.7546 82.6293 89.7546 82C89.7546 80.6453 90.0586 79.6053 90.6666 78.88C91.2746 78.144 92.1599 77.776 93.3226 77.776C93.9092 77.776 94.3786 77.824 94.7306 77.92C95.0932 78.016 95.4186 78.1387 95.7066 78.288L95.2106 79.984C94.9652 79.8667 94.7199 79.776 94.4746 79.712C94.2399 79.648 93.9679 79.616 93.6586 79.616C93.0826 79.616 92.6452 79.808 92.3466 80.192C92.0479 80.5653 91.8986 81.168 91.8986 82C91.8986 82.3413 91.9359 82.656 92.0106 82.944C92.0852 83.232 92.1972 83.4827 92.3466 83.696C92.4959 83.9093 92.6879 84.08 92.9226 84.208C93.1679 84.3253 93.4506 84.384 93.7706 84.384C94.1226 84.384 94.4212 84.3413 94.6666 84.256C94.9119 84.16 95.1306 84.048 95.3226 83.92L95.8026 85.504ZM96.2284 78H97.3324V76.496L99.4124 75.904V78H101.364V79.76H99.4124V82.832C99.4124 83.3867 99.4658 83.7867 99.5724 84.032C99.6898 84.2667 99.9031 84.384 100.212 84.384C100.426 84.384 100.607 84.3627 100.756 84.32C100.916 84.2773 101.092 84.2133 101.284 84.128L101.652 85.728C101.364 85.8667 101.028 85.984 100.644 86.08C100.26 86.176 99.8711 86.224 99.4764 86.224C98.7404 86.224 98.1964 86.0373 97.8444 85.664C97.5031 85.28 97.3324 84.656 97.3324 83.792V79.76H96.2284V78ZM102.176 82C102.176 80.6453 102.507 79.6053 103.168 78.88C103.83 78.144 104.758 77.776 105.952 77.776C106.592 77.776 107.147 77.8773 107.616 78.08C108.086 78.2827 108.475 78.5707 108.784 78.944C109.094 79.3067 109.323 79.7493 109.472 80.272C109.632 80.7947 109.712 81.3707 109.712 82C109.712 83.3547 109.382 84.4 108.72 85.136C108.07 85.8613 107.147 86.224 105.952 86.224C105.312 86.224 104.758 86.1227 104.288 85.92C103.819 85.7173 103.424 85.4347 103.104 85.072C102.795 84.6987 102.56 84.2507 102.4 83.728C102.251 83.2053 102.176 82.6293 102.176 82ZM104.32 82C104.32 82.352 104.352 82.6773 104.416 82.976C104.48 83.2747 104.576 83.536 104.704 83.76C104.832 83.984 104.998 84.16 105.2 84.288C105.414 84.4053 105.664 84.464 105.952 84.464C106.496 84.464 106.902 84.2667 107.168 83.872C107.435 83.4773 107.568 82.8533 107.568 82C107.568 81.264 107.446 80.672 107.2 80.224C106.955 79.7653 106.539 79.536 105.952 79.536C105.44 79.536 105.04 79.728 104.752 80.112C104.464 80.496 104.32 81.1253 104.32 82ZM115.57 79.952C115.24 79.8347 114.941 79.776 114.674 79.776C114.301 79.776 113.986 79.8773 113.73 80.08C113.485 80.272 113.32 80.5227 113.234 80.832V86H111.154V78H112.77L113.01 79.056H113.074C113.256 78.6613 113.501 78.3573 113.81 78.144C114.12 77.9307 114.482 77.824 114.898 77.824C115.176 77.824 115.49 77.8827 115.842 78L115.57 79.952ZM120.076 83.792C120.076 83.5787 119.985 83.408 119.804 83.28C119.622 83.152 119.398 83.0347 119.132 82.928C118.865 82.8213 118.572 82.7147 118.252 82.608C117.932 82.4907 117.638 82.336 117.372 82.144C117.105 81.9413 116.881 81.6907 116.7 81.392C116.518 81.0827 116.428 80.688 116.428 80.208C116.428 79.4187 116.662 78.816 117.132 78.4C117.601 77.984 118.278 77.776 119.164 77.776C119.772 77.776 120.321 77.84 120.812 77.968C121.302 78.096 121.686 78.24 121.964 78.4L121.5 79.904C121.254 79.808 120.945 79.7067 120.572 79.6C120.198 79.4933 119.82 79.44 119.436 79.44C118.817 79.44 118.508 79.68 118.508 80.16C118.508 80.352 118.598 80.5067 118.78 80.624C118.961 80.7413 119.185 80.8533 119.452 80.96C119.718 81.056 120.012 81.1627 120.332 81.28C120.652 81.3973 120.945 81.552 121.212 81.744C121.478 81.9253 121.702 82.1653 121.884 82.464C122.065 82.7627 122.156 83.1467 122.156 83.616C122.156 84.4267 121.894 85.0667 121.372 85.536C120.86 85.9947 120.086 86.224 119.052 86.224C118.486 86.224 117.953 86.1493 117.452 86C116.961 85.8613 116.561 85.696 116.252 85.504L116.828 83.952C117.073 84.0907 117.398 84.2293 117.804 84.368C118.209 84.496 118.625 84.56 119.052 84.56C119.361 84.56 119.606 84.5013 119.788 84.384C119.98 84.2667 120.076 84.0693 120.076 83.792ZM133.149 78L134.605 82.096L134.893 83.424H134.957L135.181 82.08L136.205 78H138.109L135.645 86.08H134.109L132.493 81.6L132.285 80.592H132.205L132.013 81.616L130.477 86.08H128.893L126.317 78H128.573L129.741 82.016L129.933 83.44H130.013L130.285 82L131.613 78H133.149ZM139.081 78H141.161V86H139.081V78ZM138.777 75.744C138.777 75.4347 138.889 75.1733 139.113 74.96C139.347 74.736 139.667 74.624 140.073 74.624C140.478 74.624 140.803 74.736 141.049 74.96C141.305 75.1733 141.433 75.4347 141.433 75.744C141.433 76.0533 141.305 76.3147 141.049 76.528C140.803 76.7307 140.478 76.832 140.073 76.832C139.667 76.832 139.347 76.7307 139.113 76.528C138.889 76.3147 138.777 76.0533 138.777 75.744ZM142.353 78H143.457V76.496L145.537 75.904V78H147.489V79.76H145.537V82.832C145.537 83.3867 145.591 83.7867 145.697 84.032C145.815 84.2667 146.028 84.384 146.337 84.384C146.551 84.384 146.732 84.3627 146.881 84.32C147.041 84.2773 147.217 84.2133 147.409 84.128L147.777 85.728C147.489 85.8667 147.153 85.984 146.769 86.08C146.385 86.176 145.996 86.224 145.601 86.224C144.865 86.224 144.321 86.0373 143.969 85.664C143.628 85.28 143.457 84.656 143.457 83.792V79.76H142.353V78ZM153.66 86V81.456C153.66 80.8053 153.569 80.336 153.388 80.048C153.206 79.76 152.876 79.616 152.396 79.616C152.044 79.616 151.718 79.7387 151.42 79.984C151.132 80.2187 150.94 80.5227 150.844 80.896V86H148.764V74.8H150.844V78.896H150.908C151.164 78.5547 151.478 78.2827 151.852 78.08C152.225 77.8773 152.7 77.776 153.276 77.776C153.681 77.776 154.038 77.8293 154.348 77.936C154.657 78.0427 154.913 78.2187 155.116 78.464C155.329 78.7093 155.484 79.0453 155.58 79.472C155.686 79.888 155.74 80.4053 155.74 81.024V86H153.66ZM160.697 78H161.801V76.496L163.881 75.904V78H165.833V79.76H163.881V82.832C163.881 83.3867 163.935 83.7867 164.041 84.032C164.159 84.2667 164.372 84.384 164.681 84.384C164.895 84.384 165.076 84.3627 165.225 84.32C165.385 84.2773 165.561 84.2133 165.753 84.128L166.121 85.728C165.833 85.8667 165.497 85.984 165.113 86.08C164.729 86.176 164.34 86.224 163.945 86.224C163.209 86.224 162.665 86.0373 162.313 85.664C161.972 85.28 161.801 84.656 161.801 83.792V79.76H160.697V78ZM172.003 86V81.456C172.003 80.8053 171.913 80.336 171.731 80.048C171.55 79.76 171.219 79.616 170.739 79.616C170.387 79.616 170.062 79.7387 169.763 79.984C169.475 80.2187 169.283 80.5227 169.187 80.896V86H167.107V74.8H169.187V78.896H169.251C169.507 78.5547 169.822 78.2827 170.195 78.08C170.569 77.8773 171.043 77.776 171.619 77.776C172.025 77.776 172.382 77.8293 172.691 77.936C173.001 78.0427 173.257 78.2187 173.459 78.464C173.673 78.7093 173.827 79.0453 173.923 79.472C174.03 79.888 174.083 80.4053 174.083 81.024V86H172.003ZM182.226 85.312C181.906 85.568 181.469 85.7867 180.914 85.968C180.37 86.1387 179.789 86.224 179.17 86.224C177.879 86.224 176.935 85.8507 176.338 85.104C175.741 84.3467 175.442 83.312 175.442 82C175.442 80.592 175.778 79.536 176.45 78.832C177.122 78.128 178.066 77.776 179.282 77.776C179.687 77.776 180.082 77.8293 180.466 77.936C180.85 78.0427 181.191 78.2187 181.49 78.464C181.789 78.7093 182.029 79.04 182.21 79.456C182.391 79.872 182.482 80.3893 182.482 81.008C182.482 81.232 182.466 81.472 182.434 81.728C182.413 81.984 182.375 82.2507 182.322 82.528H177.522C177.554 83.2 177.725 83.7067 178.034 84.048C178.354 84.3893 178.866 84.56 179.57 84.56C180.007 84.56 180.397 84.496 180.738 84.368C181.09 84.2293 181.357 84.0907 181.538 83.952L182.226 85.312ZM179.25 79.44C178.706 79.44 178.301 79.6053 178.034 79.936C177.778 80.256 177.623 80.688 177.57 81.232H180.546C180.589 80.656 180.498 80.2133 180.274 79.904C180.061 79.5947 179.719 79.44 179.25 79.44ZM16.2611 107V102.456C16.2611 101.805 16.1705 101.336 15.9891 101.048C15.8078 100.76 15.4771 100.616 14.9971 100.616C14.6451 100.616 14.3198 100.739 14.0211 100.984C13.7331 101.219 13.5411 101.523 13.4451 101.896V107H11.3651V95.8H13.4451V99.896H13.5091C13.7651 99.5547 14.0798 99.2827 14.4531 99.08C14.8265 98.8773 15.3011 98.776 15.8771 98.776C16.2825 98.776 16.6398 98.8293 16.9491 98.936C17.2585 99.0427 17.5145 99.2187 17.7171 99.464C17.9305 99.7093 18.0851 100.045 18.1811 100.472C18.2878 100.888 18.3411 101.405 18.3411 102.024V107H16.2611ZM20.2759 99H22.3559V107H20.2759V99ZM19.9719 96.744C19.9719 96.4347 20.0839 96.1733 20.3079 95.96C20.5425 95.736 20.8625 95.624 21.2679 95.624C21.6732 95.624 21.9985 95.736 22.2439 95.96C22.4999 96.1733 22.6279 96.4347 22.6279 96.744C22.6279 97.0533 22.4999 97.3147 22.2439 97.528C21.9985 97.7307 21.6732 97.832 21.2679 97.832C20.8625 97.832 20.5425 97.7307 20.3079 97.528C20.0839 97.3147 19.9719 97.0533 19.9719 96.744ZM31.1488 107C31.1488 108.163 30.8341 109.016 30.2048 109.56C29.5754 110.115 28.6954 110.392 27.5648 110.392C26.7968 110.392 26.1888 110.339 25.7408 110.232C25.3034 110.125 24.9728 110.013 24.7488 109.896L25.1808 108.248C25.4261 108.344 25.7088 108.44 26.0288 108.536C26.3594 108.632 26.7648 108.68 27.2448 108.68C27.9701 108.68 28.4608 108.52 28.7168 108.2C28.9834 107.891 29.1168 107.453 29.1168 106.888V106.376H29.0528C28.6794 106.877 28.0181 107.128 27.0688 107.128C26.0341 107.128 25.2608 106.808 24.7488 106.168C24.2474 105.528 23.9967 104.525 23.9967 103.16C23.9967 101.731 24.3381 100.648 25.0208 99.912C25.7034 99.176 26.6954 98.808 27.9968 98.808C28.6794 98.808 29.2874 98.856 29.8208 98.952C30.3648 99.048 30.8074 99.16 31.1488 99.288V107ZM27.6288 105.464C28.0341 105.464 28.3434 105.373 28.5568 105.192C28.7808 105.011 28.9514 104.739 29.0688 104.376V100.776C28.7381 100.637 28.3274 100.568 27.8368 100.568C27.3034 100.568 26.8874 100.771 26.5888 101.176C26.2901 101.571 26.1408 102.205 26.1408 103.08C26.1408 103.859 26.2688 104.451 26.5248 104.856C26.7808 105.261 27.1488 105.464 27.6288 105.464ZM37.8549 107V102.456C37.8549 101.805 37.7642 101.336 37.5829 101.048C37.4015 100.76 37.0709 100.616 36.5909 100.616C36.2389 100.616 35.9135 100.739 35.6149 100.984C35.3269 101.219 35.1349 101.523 35.0389 101.896V107H32.9589V95.8H35.0389V99.896H35.1029C35.3589 99.5547 35.6735 99.2827 36.0469 99.08C36.4202 98.8773 36.8949 98.776 37.4709 98.776C37.8762 98.776 38.2335 98.8293 38.5429 98.936C38.8522 99.0427 39.1082 99.2187 39.3109 99.464C39.5242 99.7093 39.6789 100.045 39.7749 100.472C39.8815 100.888 39.9349 101.405 39.9349 102.024V107H37.8549ZM48.0776 106.312C47.7576 106.568 47.3203 106.787 46.7656 106.968C46.2216 107.139 45.6403 107.224 45.0216 107.224C43.731 107.224 42.787 106.851 42.1896 106.104C41.5923 105.347 41.2936 104.312 41.2936 103C41.2936 101.592 41.6296 100.536 42.3016 99.832C42.9736 99.128 43.9176 98.776 45.1336 98.776C45.539 98.776 45.9336 98.8293 46.3176 98.936C46.7016 99.0427 47.043 99.2187 47.3416 99.464C47.6403 99.7093 47.8803 100.04 48.0616 100.456C48.243 100.872 48.3336 101.389 48.3336 102.008C48.3336 102.232 48.3176 102.472 48.2856 102.728C48.2643 102.984 48.227 103.251 48.1736 103.528H43.3736C43.4056 104.2 43.5763 104.707 43.8856 105.048C44.2056 105.389 44.7176 105.56 45.4216 105.56C45.859 105.56 46.2483 105.496 46.5896 105.368C46.9416 105.229 47.2083 105.091 47.3896 104.952L48.0776 106.312ZM45.1016 100.44C44.5576 100.44 44.1523 100.605 43.8856 100.936C43.6296 101.256 43.475 101.688 43.4216 102.232H46.3976C46.4403 101.656 46.3496 101.213 46.1256 100.904C45.9123 100.595 45.571 100.44 45.1016 100.44ZM53.1146 104.792C53.1146 104.579 53.024 104.408 52.8426 104.28C52.6613 104.152 52.4373 104.035 52.1706 103.928C51.904 103.821 51.6106 103.715 51.2906 103.608C50.9706 103.491 50.6773 103.336 50.4106 103.144C50.144 102.941 49.92 102.691 49.7386 102.392C49.5573 102.083 49.4666 101.688 49.4666 101.208C49.4666 100.419 49.7013 99.816 50.1706 99.4C50.64 98.984 51.3173 98.776 52.2026 98.776C52.8106 98.776 53.36 98.84 53.8506 98.968C54.3413 99.096 54.7253 99.24 55.0026 99.4L54.5386 100.904C54.2933 100.808 53.984 100.707 53.6106 100.6C53.2373 100.493 52.8586 100.44 52.4746 100.44C51.856 100.44 51.5466 100.68 51.5466 101.16C51.5466 101.352 51.6373 101.507 51.8186 101.624C52 101.741 52.224 101.853 52.4906 101.96C52.7573 102.056 53.0506 102.163 53.3706 102.28C53.6906 102.397 53.984 102.552 54.2506 102.744C54.5173 102.925 54.7413 103.165 54.9226 103.464C55.104 103.763 55.1946 104.147 55.1946 104.616C55.1946 105.427 54.9333 106.067 54.4106 106.536C53.8986 106.995 53.1253 107.224 52.0906 107.224C51.5253 107.224 50.992 107.149 50.4906 107C50 106.861 49.6 106.696 49.2906 106.504L49.8666 104.952C50.112 105.091 50.4373 105.229 50.8426 105.368C51.248 105.496 51.664 105.56 52.0906 105.56C52.4 105.56 52.6453 105.501 52.8266 105.384C53.0186 105.267 53.1146 105.069 53.1146 104.792ZM55.7206 99H56.8246V97.496L58.9046 96.904V99H60.8566V100.76H58.9046V103.832C58.9046 104.387 58.958 104.787 59.0646 105.032C59.182 105.267 59.3953 105.384 59.7046 105.384C59.918 105.384 60.0993 105.363 60.2486 105.32C60.4086 105.277 60.5846 105.213 60.7766 105.128L61.1446 106.728C60.8566 106.867 60.5206 106.984 60.1366 107.08C59.7526 107.176 59.3633 107.224 58.9686 107.224C58.2326 107.224 57.6886 107.037 57.3366 106.664C56.9953 106.28 56.8246 105.656 56.8246 104.792V100.76H55.7206V99ZM70.7216 107V102.648C70.7216 101.912 70.6523 101.389 70.5136 101.08C70.375 100.771 70.087 100.616 69.6496 100.616C69.287 100.616 68.9936 100.717 68.7696 100.92C68.5456 101.112 68.375 101.363 68.2576 101.672V107H66.1776V99H67.7936L68.0336 100.056H68.0976C68.343 99.7147 68.6523 99.416 69.0256 99.16C69.4096 98.904 69.9003 98.776 70.4976 98.776C71.0096 98.776 71.4256 98.8827 71.7456 99.096C72.0763 99.2987 72.3323 99.6453 72.5136 100.136C72.759 99.72 73.0736 99.3893 73.4576 99.144C73.8416 98.8987 74.3056 98.776 74.8496 98.776C75.2976 98.776 75.6763 98.8293 75.9856 98.936C76.3056 99.0427 76.5616 99.2293 76.7536 99.496C76.9563 99.752 77.1056 100.099 77.2016 100.536C77.2976 100.973 77.3456 101.528 77.3456 102.2V107H75.2656V102.504C75.2656 101.875 75.1963 101.405 75.0576 101.096C74.9296 100.776 74.6363 100.616 74.1776 100.616C73.8043 100.616 73.5056 100.717 73.2816 100.92C73.0683 101.123 72.9083 101.4 72.8016 101.752V107H70.7216ZM85.4526 106.312C85.1326 106.568 84.6953 106.787 84.1406 106.968C83.5966 107.139 83.0153 107.224 82.3966 107.224C81.106 107.224 80.162 106.851 79.5646 106.104C78.9673 105.347 78.6686 104.312 78.6686 103C78.6686 101.592 79.0046 100.536 79.6766 99.832C80.3486 99.128 81.2926 98.776 82.5086 98.776C82.914 98.776 83.3086 98.8293 83.6926 98.936C84.0766 99.0427 84.418 99.2187 84.7166 99.464C85.0153 99.7093 85.2553 100.04 85.4366 100.456C85.618 100.872 85.7086 101.389 85.7086 102.008C85.7086 102.232 85.6926 102.472 85.6606 102.728C85.6393 102.984 85.602 103.251 85.5486 103.528H80.7486C80.7806 104.2 80.9513 104.707 81.2606 105.048C81.5806 105.389 82.0926 105.56 82.7966 105.56C83.234 105.56 83.6233 105.496 83.9646 105.368C84.3166 105.229 84.5833 105.091 84.7646 104.952L85.4526 106.312ZM82.4766 100.44C81.9326 100.44 81.5273 100.605 81.2606 100.936C81.0046 101.256 80.85 101.688 80.7966 102.232H83.7726C83.8153 101.656 83.7246 101.213 83.5006 100.904C83.2873 100.595 82.946 100.44 82.4766 100.44ZM93.9776 104.184C93.9776 104.632 93.983 105.08 93.9936 105.528C94.0043 105.976 94.0523 106.472 94.1376 107.016H92.6496L92.3616 105.976H92.2976C92.0843 106.349 91.775 106.653 91.3696 106.888C90.975 107.112 90.5056 107.224 89.9616 107.224C88.959 107.224 88.1803 106.893 87.6256 106.232C87.071 105.571 86.7936 104.536 86.7936 103.128C86.7936 101.763 87.103 100.701 87.7216 99.944C88.3403 99.1867 89.247 98.808 90.4416 98.808C90.7723 98.808 91.0443 98.8293 91.2576 98.872C91.471 98.904 91.6843 98.9627 91.8976 99.048V95.8H93.9776V104.184ZM90.4416 105.464C90.847 105.464 91.167 105.368 91.4016 105.176C91.6363 104.973 91.8016 104.685 91.8976 104.312V100.92C91.7483 100.803 91.583 100.717 91.4016 100.664C91.2203 100.6 90.9856 100.568 90.6976 100.568C90.111 100.568 89.6683 100.765 89.3696 101.16C89.0816 101.555 88.9376 102.232 88.9376 103.192C88.9376 103.875 89.055 104.424 89.2896 104.84C89.535 105.256 89.919 105.464 90.4416 105.464ZM95.9946 99H98.0746V107H95.9946V99ZM95.6906 96.744C95.6906 96.4347 95.8026 96.1733 96.0266 95.96C96.2613 95.736 96.5813 95.624 96.9866 95.624C97.392 95.624 97.7173 95.736 97.9626 95.96C98.2186 96.1733 98.3466 96.4347 98.3466 96.744C98.3466 97.0533 98.2186 97.3147 97.9626 97.528C97.7173 97.7307 97.392 97.832 96.9866 97.832C96.5813 97.832 96.2613 97.7307 96.0266 97.528C95.8026 97.3147 95.6906 97.0533 95.6906 96.744ZM100.052 99.464C100.478 99.272 100.985 99.1227 101.572 99.016C102.158 98.8987 102.772 98.84 103.411 98.84C103.966 98.84 104.43 98.9093 104.804 99.048C105.177 99.176 105.47 99.3627 105.684 99.608C105.908 99.8533 106.062 100.147 106.148 100.488C106.244 100.829 106.292 101.213 106.292 101.64C106.292 102.109 106.276 102.584 106.244 103.064C106.212 103.533 106.19 103.997 106.18 104.456C106.18 104.915 106.196 105.363 106.228 105.8C106.26 106.227 106.34 106.632 106.468 107.016H104.772L104.436 105.912H104.356C104.142 106.243 103.844 106.531 103.46 106.776C103.086 107.011 102.601 107.128 102.004 107.128C101.63 107.128 101.294 107.075 100.996 106.968C100.697 106.851 100.441 106.691 100.228 106.488C100.014 106.275 99.8488 106.029 99.7315 105.752C99.6142 105.464 99.5555 105.144 99.5555 104.792C99.5555 104.301 99.6622 103.891 99.8755 103.56C100.1 103.219 100.414 102.947 100.82 102.744C101.236 102.531 101.726 102.387 102.292 102.312C102.868 102.227 103.508 102.2 104.212 102.232C104.286 101.635 104.244 101.208 104.084 100.952C103.924 100.685 103.566 100.552 103.012 100.552C102.596 100.552 102.153 100.595 101.684 100.68C101.225 100.765 100.846 100.877 100.548 101.016L100.052 99.464ZM102.692 105.416C103.108 105.416 103.438 105.325 103.684 105.144C103.929 104.952 104.11 104.749 104.228 104.536V103.496C103.897 103.464 103.577 103.459 103.268 103.48C102.969 103.501 102.702 103.549 102.468 103.624C102.233 103.699 102.046 103.805 101.908 103.944C101.769 104.083 101.7 104.259 101.7 104.472C101.7 104.771 101.785 105.005 101.956 105.176C102.137 105.336 102.382 105.416 102.692 105.416ZM112.933 107V102.456C112.933 101.805 112.837 101.336 112.645 101.048C112.464 100.76 112.149 100.616 111.701 100.616C111.306 100.616 110.97 100.733 110.693 100.968C110.426 101.192 110.234 101.475 110.117 101.816V107H108.037V99H109.685L109.925 100.056H109.989C110.234 99.7147 110.56 99.416 110.965 99.16C111.37 98.904 111.893 98.776 112.533 98.776C112.928 98.776 113.28 98.8293 113.589 98.936C113.898 99.0427 114.16 99.2187 114.373 99.464C114.586 99.7093 114.746 100.045 114.853 100.472C114.96 100.888 115.013 101.405 115.013 102.024V107H112.933ZM120.851 95.912C121.096 95.8693 121.357 95.832 121.635 95.8C121.923 95.7573 122.205 95.7253 122.483 95.704C122.771 95.6827 123.048 95.6667 123.315 95.656C123.581 95.6453 123.827 95.64 124.051 95.64C124.573 95.64 125.085 95.688 125.587 95.784C126.099 95.88 126.552 96.0453 126.947 96.28C127.352 96.5147 127.672 96.84 127.907 97.256C128.152 97.6613 128.275 98.1733 128.275 98.792C128.275 99.7093 128.061 100.456 127.635 101.032C127.208 101.608 126.637 102.008 125.923 102.232L126.707 102.728L129.267 107H126.739L124.195 102.616L123.043 102.408V107H120.851V95.912ZM124.211 97.592C123.987 97.592 123.763 97.5973 123.539 97.608C123.325 97.6187 123.16 97.64 123.043 97.672V100.92H123.971C124.579 100.92 125.064 100.781 125.427 100.504C125.789 100.227 125.971 99.768 125.971 99.128C125.971 98.648 125.821 98.2747 125.523 98.008C125.224 97.7307 124.787 97.592 124.211 97.592ZM139.164 101.192L139.404 98.968H139.308L138.62 100.76L136.236 104.936H135.532L133.02 100.744L132.316 98.968H132.236L132.556 101.176V107H130.476V95.8H132.476L135.468 100.92L135.996 102.2H136.06L136.54 100.888L139.372 95.8H141.356V107H139.164V101.192ZM148.105 103.992C148.105 103.651 147.977 103.373 147.721 103.16C147.475 102.947 147.161 102.755 146.777 102.584C146.403 102.403 145.993 102.221 145.545 102.04C145.107 101.848 144.697 101.619 144.312 101.352C143.939 101.075 143.625 100.733 143.368 100.328C143.123 99.9227 143.001 99.4053 143.001 98.776C143.001 98.232 143.091 97.7627 143.273 97.368C143.454 96.9627 143.71 96.6267 144.041 96.36C144.382 96.0933 144.782 95.896 145.241 95.768C145.699 95.64 146.211 95.576 146.777 95.576C147.427 95.576 148.041 95.6347 148.617 95.752C149.193 95.8587 149.667 96.0187 150.041 96.232L149.353 98.072C149.118 97.9227 148.766 97.7893 148.297 97.672C147.827 97.544 147.321 97.48 146.777 97.48C146.265 97.48 145.87 97.5813 145.593 97.784C145.326 97.9867 145.193 98.2587 145.193 98.6C145.193 98.92 145.315 99.1867 145.561 99.4C145.817 99.6133 146.131 99.8107 146.505 99.992C146.889 100.173 147.299 100.36 147.737 100.552C148.185 100.744 148.595 100.979 148.969 101.256C149.353 101.523 149.667 101.859 149.913 102.264C150.169 102.659 150.297 103.155 150.297 103.752C150.297 104.349 150.195 104.867 149.993 105.304C149.801 105.731 149.523 106.088 149.161 106.376C148.809 106.664 148.377 106.877 147.865 107.016C147.363 107.155 146.809 107.224 146.201 107.224C145.401 107.224 144.697 107.149 144.089 107C143.481 106.851 143.033 106.701 142.745 106.552L143.449 104.68C143.566 104.744 143.715 104.813 143.897 104.888C144.089 104.963 144.302 105.032 144.537 105.096C144.771 105.16 145.017 105.213 145.273 105.256C145.539 105.299 145.811 105.32 146.089 105.32C146.739 105.32 147.235 105.213 147.577 105C147.929 104.776 148.105 104.44 148.105 103.992ZM157.9 104.312C157.9 104.685 157.948 104.957 158.044 105.128C158.14 105.299 158.294 105.384 158.508 105.384C158.636 105.384 158.758 105.373 158.876 105.352C159.004 105.331 159.158 105.283 159.34 105.208L159.564 106.84C159.393 106.925 159.132 107.011 158.78 107.096C158.428 107.181 158.065 107.224 157.692 107.224C157.084 107.224 156.62 107.085 156.3 106.808C155.98 106.52 155.82 106.051 155.82 105.4V95.8H157.9V104.312ZM166.859 106.312C166.539 106.568 166.102 106.787 165.547 106.968C165.003 107.139 164.422 107.224 163.803 107.224C162.512 107.224 161.568 106.851 160.971 106.104C160.374 105.347 160.075 104.312 160.075 103C160.075 101.592 160.411 100.536 161.083 99.832C161.755 99.128 162.699 98.776 163.915 98.776C164.32 98.776 164.715 98.8293 165.099 98.936C165.483 99.0427 165.824 99.2187 166.123 99.464C166.422 99.7093 166.662 100.04 166.843 100.456C167.024 100.872 167.115 101.389 167.115 102.008C167.115 102.232 167.099 102.472 167.067 102.728C167.046 102.984 167.008 103.251 166.955 103.528H162.155C162.187 104.2 162.358 104.707 162.667 105.048C162.987 105.389 163.499 105.56 164.203 105.56C164.64 105.56 165.03 105.496 165.371 105.368C165.723 105.229 165.99 105.091 166.171 104.952L166.859 106.312ZM163.883 100.44C163.339 100.44 162.934 100.605 162.667 100.936C162.411 101.256 162.256 101.688 162.203 102.232H165.179C165.222 101.656 165.131 101.213 164.907 100.904C164.694 100.595 164.352 100.44 163.883 100.44ZM171.133 103.192L171.405 104.424H171.485L171.709 103.16L173.069 99H175.309L171.965 107.08H170.701L167.229 99H169.645L171.133 103.192ZM182.281 106.312C181.961 106.568 181.523 106.787 180.969 106.968C180.425 107.139 179.843 107.224 179.225 107.224C177.934 107.224 176.99 106.851 176.393 106.104C175.795 105.347 175.497 104.312 175.497 103C175.497 101.592 175.833 100.536 176.505 99.832C177.177 99.128 178.121 98.776 179.337 98.776C179.742 98.776 180.137 98.8293 180.521 98.936C180.905 99.0427 181.246 99.2187 181.545 99.464C181.843 99.7093 182.083 100.04 182.265 100.456C182.446 100.872 182.537 101.389 182.537 102.008C182.537 102.232 182.521 102.472 182.489 102.728C182.467 102.984 182.43 103.251 182.377 103.528H177.577C177.609 104.2 177.779 104.707 178.089 105.048C178.409 105.389 178.921 105.56 179.625 105.56C180.062 105.56 180.451 105.496 180.793 105.368C181.145 105.229 181.411 105.091 181.593 104.952L182.281 106.312ZM179.305 100.44C178.761 100.44 178.355 100.605 178.089 100.936C177.833 101.256 177.678 101.688 177.625 102.232H180.601C180.643 101.656 180.553 101.213 180.329 100.904C180.115 100.595 179.774 100.44 179.305 100.44ZM186.15 104.312C186.15 104.685 186.198 104.957 186.294 105.128C186.39 105.299 186.544 105.384 186.758 105.384C186.886 105.384 187.008 105.373 187.126 105.352C187.254 105.331 187.408 105.283 187.59 105.208L187.814 106.84C187.643 106.925 187.382 107.011 187.03 107.096C186.678 107.181 186.315 107.224 185.942 107.224C185.334 107.224 184.87 107.085 184.55 106.808C184.23 106.52 184.07 106.051 184.07 105.4V95.8H186.15V104.312ZM192.021 104.792C192.021 104.579 191.93 104.408 191.749 104.28C191.568 104.152 191.344 104.035 191.077 103.928C190.81 103.821 190.517 103.715 190.197 103.608C189.877 103.491 189.584 103.336 189.317 103.144C189.05 102.941 188.826 102.691 188.645 102.392C188.464 102.083 188.373 101.688 188.373 101.208C188.373 100.419 188.608 99.816 189.077 99.4C189.546 98.984 190.224 98.776 191.109 98.776C191.717 98.776 192.266 98.84 192.757 98.968C193.248 99.096 193.632 99.24 193.909 99.4L193.445 100.904C193.2 100.808 192.89 100.707 192.517 100.6C192.144 100.493 191.765 100.44 191.381 100.44C190.762 100.44 190.453 100.68 190.453 101.16C190.453 101.352 190.544 101.507 190.725 101.624C190.906 101.741 191.13 101.853 191.397 101.96C191.664 102.056 191.957 102.163 192.277 102.28C192.597 102.397 192.89 102.552 193.157 102.744C193.424 102.925 193.648 103.165 193.829 103.464C194.01 103.763 194.101 104.147 194.101 104.616C194.101 105.427 193.84 106.067 193.317 106.536C192.805 106.995 192.032 107.224 190.997 107.224C190.432 107.224 189.898 107.149 189.397 107C188.906 106.861 188.506 106.696 188.197 106.504L188.773 104.952C189.018 105.091 189.344 105.229 189.749 105.368C190.154 105.496 190.57 105.56 190.997 105.56C191.306 105.56 191.552 105.501 191.733 105.384C191.925 105.267 192.021 105.069 192.021 104.792ZM7.35856 131.52C6.8679 131.008 6.4519 130.443 6.11056 129.824C5.76923 129.216 5.4919 128.592 5.27856 127.952C5.0759 127.301 4.92656 126.651 4.83056 126C4.73456 125.339 4.68656 124.709 4.68656 124.112C4.68656 123.525 4.73456 122.907 4.83056 122.256C4.92656 121.605 5.08123 120.955 5.29456 120.304C5.5079 119.643 5.78523 118.997 6.12656 118.368C6.47856 117.739 6.90523 117.152 7.40656 116.608L8.75056 117.472C8.37723 117.973 8.06256 118.496 7.80656 119.04C7.56123 119.584 7.35856 120.144 7.19856 120.72C7.04923 121.285 6.93723 121.856 6.86256 122.432C6.79856 123.008 6.76656 123.568 6.76656 124.112C6.76656 124.624 6.8039 125.168 6.87856 125.744C6.95323 126.32 7.07056 126.896 7.23056 127.472C7.39056 128.037 7.59856 128.592 7.85456 129.136C8.11056 129.68 8.4199 130.176 8.78256 130.624L7.35856 131.52ZM13.6073 122.16H17.7833V127.152C17.3353 127.525 16.7966 127.797 16.1673 127.968C15.5486 128.139 14.9353 128.224 14.3273 128.224C13.6126 128.224 12.946 128.112 12.3273 127.888C11.7193 127.664 11.1913 127.317 10.7433 126.848C10.2953 126.368 9.94331 125.76 9.68731 125.024C9.43131 124.288 9.30331 123.413 9.30331 122.4C9.30331 121.344 9.45265 120.448 9.75131 119.712C10.0606 118.965 10.4606 118.363 10.9513 117.904C11.4526 117.435 12.0126 117.099 12.6313 116.896C13.25 116.683 13.8793 116.576 14.5193 116.576C15.1593 116.576 15.7193 116.624 16.1993 116.72C16.69 116.816 17.0793 116.917 17.3673 117.024L16.9193 118.864C16.6526 118.757 16.354 118.677 16.0233 118.624C15.6926 118.56 15.2713 118.528 14.7593 118.528C14.3006 118.528 13.8793 118.597 13.4953 118.736C13.1113 118.875 12.7753 119.104 12.4873 119.424C12.21 119.733 11.9913 120.133 11.8313 120.624C11.682 121.115 11.6073 121.712 11.6073 122.416C11.6073 123.088 11.682 123.669 11.8313 124.16C11.9806 124.64 12.1886 125.04 12.4553 125.36C12.722 125.669 13.0313 125.899 13.3833 126.048C13.746 126.197 14.13 126.272 14.5353 126.272C14.8126 126.272 15.0846 126.24 15.3513 126.176C15.618 126.101 15.842 125.995 16.0233 125.856V123.744L13.6073 123.488V122.16ZM21.5013 125.312C21.5013 125.685 21.5493 125.957 21.6453 126.128C21.7413 126.299 21.896 126.384 22.1093 126.384C22.2373 126.384 22.36 126.373 22.4773 126.352C22.6053 126.331 22.76 126.283 22.9413 126.208L23.1653 127.84C22.9946 127.925 22.7333 128.011 22.3813 128.096C22.0293 128.181 21.6666 128.224 21.2933 128.224C20.6853 128.224 20.2213 128.085 19.9013 127.808C19.5813 127.52 19.4213 127.051 19.4213 126.4V116.8H21.5013V125.312ZM23.6764 124C23.6764 122.645 24.0071 121.605 24.6684 120.88C25.3298 120.144 26.2578 119.776 27.4524 119.776C28.0924 119.776 28.6471 119.877 29.1164 120.08C29.5858 120.283 29.9751 120.571 30.2844 120.944C30.5938 121.307 30.8231 121.749 30.9724 122.272C31.1324 122.795 31.2124 123.371 31.2124 124C31.2124 125.355 30.8818 126.4 30.2204 127.136C29.5698 127.861 28.6471 128.224 27.4524 128.224C26.8124 128.224 26.2578 128.123 25.7884 127.92C25.3191 127.717 24.9244 127.435 24.6044 127.072C24.2951 126.699 24.0604 126.251 23.9004 125.728C23.7511 125.205 23.6764 124.629 23.6764 124ZM25.8204 124C25.8204 124.352 25.8524 124.677 25.9164 124.976C25.9804 125.275 26.0764 125.536 26.2044 125.76C26.3324 125.984 26.4978 126.16 26.7004 126.288C26.9138 126.405 27.1644 126.464 27.4524 126.464C27.9964 126.464 28.4018 126.267 28.6684 125.872C28.9351 125.477 29.0684 124.853 29.0684 124C29.0684 123.264 28.9458 122.672 28.7004 122.224C28.4551 121.765 28.0391 121.536 27.4524 121.536C26.9404 121.536 26.5404 121.728 26.2524 122.112C25.9644 122.496 25.8204 123.125 25.8204 124ZM35.2347 124.192L35.5067 125.424H35.5867L35.8107 124.16L37.1707 120H39.4107L36.0667 128.08H34.8027L31.3307 120H33.7467L35.2347 124.192ZM46.3823 127.312C46.0623 127.568 45.625 127.787 45.0703 127.968C44.5263 128.139 43.945 128.224 43.3263 128.224C42.0356 128.224 41.0916 127.851 40.4943 127.104C39.897 126.347 39.5983 125.312 39.5983 124C39.5983 122.592 39.9343 121.536 40.6063 120.832C41.2783 120.128 42.2223 119.776 43.4383 119.776C43.8436 119.776 44.2383 119.829 44.6223 119.936C45.0063 120.043 45.3476 120.219 45.6463 120.464C45.945 120.709 46.185 121.04 46.3663 121.456C46.5476 121.872 46.6383 122.389 46.6383 123.008C46.6383 123.232 46.6223 123.472 46.5903 123.728C46.569 123.984 46.5316 124.251 46.4783 124.528H41.6783C41.7103 125.2 41.881 125.707 42.1903 126.048C42.5103 126.389 43.0223 126.56 43.7263 126.56C44.1636 126.56 44.553 126.496 44.8943 126.368C45.2463 126.229 45.513 126.091 45.6943 125.952L46.3823 127.312ZM43.4063 121.44C42.8623 121.44 42.457 121.605 42.1903 121.936C41.9343 122.256 41.7796 122.688 41.7263 123.232H44.7023C44.745 122.656 44.6543 122.213 44.4303 121.904C44.217 121.595 43.8756 121.44 43.4063 121.44ZM52.5233 121.952C52.1926 121.835 51.894 121.776 51.6273 121.776C51.254 121.776 50.9393 121.877 50.6833 122.08C50.438 122.272 50.2726 122.523 50.1873 122.832V128H48.1073V120H49.7233L49.9633 121.056H50.0273C50.2086 120.661 50.454 120.357 50.7633 120.144C51.0726 119.931 51.4353 119.824 51.8513 119.824C52.1286 119.824 52.4433 119.883 52.7953 120L52.5233 121.952ZM57.7156 120.464C58.1422 120.272 58.6489 120.123 59.2356 120.016C59.8222 119.899 60.4356 119.84 61.0756 119.84C61.6302 119.84 62.0942 119.909 62.4676 120.048C62.8409 120.176 63.1342 120.363 63.3476 120.608C63.5716 120.853 63.7262 121.147 63.8116 121.488C63.9076 121.829 63.9556 122.213 63.9556 122.64C63.9556 123.109 63.9396 123.584 63.9076 124.064C63.8756 124.533 63.8542 124.997 63.8436 125.456C63.8436 125.915 63.8596 126.363 63.8916 126.8C63.9236 127.227 64.0036 127.632 64.1316 128.016H62.4356L62.0996 126.912H62.0196C61.8062 127.243 61.5076 127.531 61.1236 127.776C60.7502 128.011 60.2649 128.128 59.6676 128.128C59.2942 128.128 58.9582 128.075 58.6596 127.968C58.3609 127.851 58.1049 127.691 57.8916 127.488C57.6782 127.275 57.5129 127.029 57.3956 126.752C57.2782 126.464 57.2196 126.144 57.2196 125.792C57.2196 125.301 57.3262 124.891 57.5396 124.56C57.7636 124.219 58.0782 123.947 58.4836 123.744C58.8996 123.531 59.3902 123.387 59.9556 123.312C60.5316 123.227 61.1716 123.2 61.8756 123.232C61.9502 122.635 61.9076 122.208 61.7476 121.952C61.5876 121.685 61.2302 121.552 60.6756 121.552C60.2596 121.552 59.8169 121.595 59.3476 121.68C58.8889 121.765 58.5102 121.877 58.2116 122.016L57.7156 120.464ZM60.3556 126.416C60.7716 126.416 61.1022 126.325 61.3476 126.144C61.5929 125.952 61.7742 125.749 61.8916 125.536V124.496C61.5609 124.464 61.2409 124.459 60.9316 124.48C60.6329 124.501 60.3662 124.549 60.1316 124.624C59.8969 124.699 59.7102 124.805 59.5716 124.944C59.4329 125.083 59.3636 125.259 59.3636 125.472C59.3636 125.771 59.4489 126.005 59.6196 126.176C59.8009 126.336 60.0462 126.416 60.3556 126.416ZM70.5971 128V123.456C70.5971 122.805 70.5011 122.336 70.3091 122.048C70.1277 121.76 69.8131 121.616 69.3651 121.616C68.9704 121.616 68.6344 121.733 68.3571 121.968C68.0904 122.192 67.8984 122.475 67.7811 122.816V128H65.7011V120H67.3491L67.5891 121.056H67.6531C67.8984 120.715 68.2237 120.416 68.6291 120.16C69.0344 119.904 69.5571 119.776 70.1971 119.776C70.5917 119.776 70.9437 119.829 71.2531 119.936C71.5624 120.043 71.8237 120.219 72.0371 120.464C72.2504 120.709 72.4104 121.045 72.5171 121.472C72.6237 121.888 72.6771 122.405 72.6771 123.024V128H70.5971ZM81.2198 125.184C81.2198 125.632 81.2251 126.08 81.2358 126.528C81.2465 126.976 81.2945 127.472 81.3798 128.016H79.8918L79.6038 126.976H79.5398C79.3265 127.349 79.0171 127.653 78.6118 127.888C78.2171 128.112 77.7478 128.224 77.2038 128.224C76.2011 128.224 75.4225 127.893 74.8678 127.232C74.3131 126.571 74.0358 125.536 74.0358 124.128C74.0358 122.763 74.3451 121.701 74.9638 120.944C75.5825 120.187 76.4891 119.808 77.6838 119.808C78.0145 119.808 78.2865 119.829 78.4998 119.872C78.7131 119.904 78.9265 119.963 79.1398 120.048V116.8H81.2198V125.184ZM77.6838 126.464C78.0891 126.464 78.4091 126.368 78.6438 126.176C78.8785 125.973 79.0438 125.685 79.1398 125.312V121.92C78.9905 121.803 78.8251 121.717 78.6438 121.664C78.4625 121.6 78.2278 121.568 77.9398 121.568C77.3531 121.568 76.9105 121.765 76.6118 122.16C76.3238 122.555 76.1798 123.232 76.1798 124.192C76.1798 124.875 76.2971 125.424 76.5318 125.84C76.7771 126.256 77.1611 126.464 77.6838 126.464ZM93.4277 123.312H89.3317V128H87.1397V116.8H89.3317V121.36H93.4277V116.8H95.6197V128H93.4277V123.312ZM97.7056 120H99.7856V128H97.7056V120ZM97.4016 117.744C97.4016 117.435 97.5136 117.173 97.7376 116.96C97.9722 116.736 98.2922 116.624 98.6976 116.624C99.1029 116.624 99.4282 116.736 99.6736 116.96C99.9296 117.173 100.058 117.435 100.058 117.744C100.058 118.053 99.9296 118.315 99.6736 118.528C99.4282 118.731 99.1029 118.832 98.6976 118.832C98.2922 118.832 97.9722 118.731 97.7376 118.528C97.5136 118.315 97.4016 118.053 97.4016 117.744ZM108.61 125.184C108.61 125.632 108.616 126.08 108.626 126.528C108.637 126.976 108.685 127.472 108.77 128.016H107.282L106.994 126.976H106.93C106.717 127.349 106.408 127.653 106.002 127.888C105.608 128.112 105.138 128.224 104.594 128.224C103.592 128.224 102.813 127.893 102.258 127.232C101.704 126.571 101.426 125.536 101.426 124.128C101.426 122.763 101.736 121.701 102.354 120.944C102.973 120.187 103.88 119.808 105.074 119.808C105.405 119.808 105.677 119.829 105.89 119.872C106.104 119.904 106.317 119.963 106.53 120.048V116.8H108.61V125.184ZM105.074 126.464C105.48 126.464 105.8 126.368 106.034 126.176C106.269 125.973 106.434 125.685 106.53 125.312V121.92C106.381 121.803 106.216 121.717 106.034 121.664C105.853 121.6 105.618 121.568 105.33 121.568C104.744 121.568 104.301 121.765 104.002 122.16C103.714 122.555 103.57 123.232 103.57 124.192C103.57 124.875 103.688 125.424 103.922 125.84C104.168 126.256 104.552 126.464 105.074 126.464ZM117.235 125.184C117.235 125.632 117.241 126.08 117.251 126.528C117.262 126.976 117.31 127.472 117.395 128.016H115.907L115.619 126.976H115.555C115.342 127.349 115.033 127.653 114.627 127.888C114.233 128.112 113.763 128.224 113.219 128.224C112.217 128.224 111.438 127.893 110.883 127.232C110.329 126.571 110.051 125.536 110.051 124.128C110.051 122.763 110.361 121.701 110.979 120.944C111.598 120.187 112.505 119.808 113.699 119.808C114.03 119.808 114.302 119.829 114.515 119.872C114.729 119.904 114.942 119.963 115.155 120.048V116.8H117.235V125.184ZM113.699 126.464C114.105 126.464 114.425 126.368 114.659 126.176C114.894 125.973 115.059 125.685 115.155 125.312V121.92C115.006 121.803 114.841 121.717 114.659 121.664C114.478 121.6 114.243 121.568 113.955 121.568C113.369 121.568 112.926 121.765 112.627 122.16C112.339 122.555 112.195 123.232 112.195 124.192C112.195 124.875 112.313 125.424 112.547 125.84C112.793 126.256 113.177 126.464 113.699 126.464ZM121.204 125.312C121.204 125.685 121.252 125.957 121.348 126.128C121.444 126.299 121.599 126.384 121.812 126.384C121.94 126.384 122.063 126.373 122.18 126.352C122.308 126.331 122.463 126.283 122.644 126.208L122.868 127.84C122.698 127.925 122.436 128.011 122.084 128.096C121.732 128.181 121.37 128.224 120.996 128.224C120.388 128.224 119.924 128.085 119.604 127.808C119.284 127.52 119.124 127.051 119.124 126.4V116.8H121.204V125.312ZM130.164 127.312C129.844 127.568 129.406 127.787 128.852 127.968C128.308 128.139 127.726 128.224 127.108 128.224C125.817 128.224 124.873 127.851 124.276 127.104C123.678 126.347 123.38 125.312 123.38 124C123.38 122.592 123.716 121.536 124.388 120.832C125.06 120.128 126.004 119.776 127.22 119.776C127.625 119.776 128.02 119.829 128.404 119.936C128.788 120.043 129.129 120.219 129.428 120.464C129.726 120.709 129.966 121.04 130.148 121.456C130.329 121.872 130.42 122.389 130.42 123.008C130.42 123.232 130.404 123.472 130.372 123.728C130.35 123.984 130.313 124.251 130.26 124.528H125.46C125.492 125.2 125.662 125.707 125.972 126.048C126.292 126.389 126.804 126.56 127.508 126.56C127.945 126.56 128.334 126.496 128.676 126.368C129.028 126.229 129.294 126.091 129.476 125.952L130.164 127.312ZM127.188 121.44C126.644 121.44 126.238 121.605 125.972 121.936C125.716 122.256 125.561 122.688 125.508 123.232H128.484C128.526 122.656 128.436 122.213 128.212 121.904C127.998 121.595 127.657 121.44 127.188 121.44ZM135.201 125.792C135.201 125.579 135.11 125.408 134.929 125.28C134.747 125.152 134.523 125.035 134.257 124.928C133.99 124.821 133.697 124.715 133.377 124.608C133.057 124.491 132.763 124.336 132.497 124.144C132.23 123.941 132.006 123.691 131.825 123.392C131.643 123.083 131.553 122.688 131.553 122.208C131.553 121.419 131.787 120.816 132.257 120.4C132.726 119.984 133.403 119.776 134.289 119.776C134.897 119.776 135.446 119.84 135.937 119.968C136.427 120.096 136.811 120.24 137.089 120.4L136.625 121.904C136.379 121.808 136.07 121.707 135.697 121.6C135.323 121.493 134.945 121.44 134.561 121.44C133.942 121.44 133.633 121.68 133.633 122.16C133.633 122.352 133.723 122.507 133.905 122.624C134.086 122.741 134.31 122.853 134.577 122.96C134.843 123.056 135.137 123.163 135.457 123.28C135.777 123.397 136.07 123.552 136.337 123.744C136.603 123.925 136.827 124.165 137.009 124.464C137.19 124.763 137.281 125.147 137.281 125.616C137.281 126.427 137.019 127.067 136.497 127.536C135.985 127.995 135.211 128.224 134.177 128.224C133.611 128.224 133.078 128.149 132.577 128C132.086 127.861 131.686 127.696 131.377 127.504L131.953 125.952C132.198 126.091 132.523 126.229 132.929 126.368C133.334 126.496 133.75 126.56 134.177 126.56C134.486 126.56 134.731 126.501 134.913 126.384C135.105 126.267 135.201 126.069 135.201 125.792ZM137.807 120H138.911V118.496L140.991 117.904V120H142.943V121.76H140.991V124.832C140.991 125.387 141.044 125.787 141.151 126.032C141.268 126.267 141.481 126.384 141.791 126.384C142.004 126.384 142.185 126.363 142.335 126.32C142.495 126.277 142.671 126.213 142.863 126.128L143.231 127.728C142.943 127.867 142.607 127.984 142.223 128.08C141.839 128.176 141.449 128.224 141.055 128.224C140.319 128.224 139.775 128.037 139.423 127.664C139.081 127.28 138.911 126.656 138.911 125.792V121.76H137.807V120ZM143.755 124C143.755 122.645 144.085 121.605 144.747 120.88C145.408 120.144 146.336 119.776 147.531 119.776C148.171 119.776 148.725 119.877 149.195 120.08C149.664 120.283 150.053 120.571 150.363 120.944C150.672 121.307 150.901 121.749 151.051 122.272C151.211 122.795 151.291 123.371 151.291 124C151.291 125.355 150.96 126.4 150.299 127.136C149.648 127.861 148.725 128.224 147.531 128.224C146.891 128.224 146.336 128.123 145.867 127.92C145.397 127.717 145.003 127.435 144.683 127.072C144.373 126.699 144.139 126.251 143.979 125.728C143.829 125.205 143.755 124.629 143.755 124ZM145.899 124C145.899 124.352 145.931 124.677 145.995 124.976C146.059 125.275 146.155 125.536 146.283 125.76C146.411 125.984 146.576 126.16 146.779 126.288C146.992 126.405 147.243 126.464 147.531 126.464C148.075 126.464 148.48 126.267 148.747 125.872C149.013 125.477 149.147 124.853 149.147 124C149.147 123.264 149.024 122.672 148.779 122.224C148.533 121.765 148.117 121.536 147.531 121.536C147.019 121.536 146.619 121.728 146.331 122.112C146.043 122.496 145.899 123.125 145.899 124ZM157.628 128V123.456C157.628 122.805 157.532 122.336 157.34 122.048C157.159 121.76 156.844 121.616 156.396 121.616C156.002 121.616 155.666 121.733 155.388 121.968C155.122 122.192 154.93 122.475 154.812 122.816V128H152.732V120H154.38L154.62 121.056H154.684C154.93 120.715 155.255 120.416 155.66 120.16C156.066 119.904 156.588 119.776 157.228 119.776C157.623 119.776 157.975 119.829 158.284 119.936C158.594 120.043 158.855 120.219 159.068 120.464C159.282 120.709 159.442 121.045 159.548 121.472C159.655 121.888 159.708 122.405 159.708 123.024V128H157.628ZM162.123 116.608C162.614 117.12 163.03 117.685 163.371 118.304C163.712 118.912 163.984 119.541 164.187 120.192C164.4 120.832 164.555 121.483 164.651 122.144C164.747 122.795 164.795 123.419 164.795 124.016C164.795 124.603 164.747 125.221 164.651 125.872C164.555 126.523 164.4 127.179 164.187 127.84C163.974 128.491 163.691 129.131 163.339 129.76C162.998 130.389 162.576 130.976 162.075 131.52L160.731 130.64C161.126 130.107 161.451 129.563 161.707 129.008C161.963 128.464 162.166 127.915 162.315 127.36C162.464 126.795 162.566 126.235 162.619 125.68C162.683 125.115 162.715 124.56 162.715 124.016C162.715 123.504 162.672 122.965 162.587 122.4C162.512 121.824 162.395 121.253 162.235 120.688C162.075 120.112 161.867 119.557 161.611 119.024C161.366 118.48 161.067 117.979 160.715 117.52L162.123 116.608ZM170.717 116.8H172.797V120.64H172.861C173.085 120.384 173.373 120.181 173.725 120.032C174.077 119.883 174.466 119.808 174.893 119.808C175.853 119.808 176.583 120.139 177.085 120.8C177.597 121.451 177.853 122.448 177.853 123.792C177.853 125.232 177.495 126.325 176.781 127.072C176.077 127.819 175.106 128.192 173.869 128.192C173.186 128.192 172.562 128.133 171.997 128.016C171.431 127.909 171.005 127.787 170.717 127.648V116.8ZM174.285 121.568C173.901 121.568 173.586 121.669 173.341 121.872C173.106 122.064 172.925 122.347 172.797 122.72V126.208C172.967 126.293 173.149 126.352 173.341 126.384C173.543 126.416 173.757 126.432 173.981 126.432C174.546 126.432 174.973 126.229 175.261 125.824C175.559 125.408 175.709 124.752 175.709 123.856C175.709 122.331 175.234 121.568 174.285 121.568ZM178.911 124C178.911 122.645 179.241 121.605 179.903 120.88C180.564 120.144 181.492 119.776 182.687 119.776C183.327 119.776 183.881 119.877 184.351 120.08C184.82 120.283 185.209 120.571 185.519 120.944C185.828 121.307 186.057 121.749 186.207 122.272C186.367 122.795 186.447 123.371 186.447 124C186.447 125.355 186.116 126.4 185.455 127.136C184.804 127.861 183.881 128.224 182.687 128.224C182.047 128.224 181.492 128.123 181.023 127.92C180.553 127.717 180.159 127.435 179.839 127.072C179.529 126.699 179.295 126.251 179.135 125.728C178.985 125.205 178.911 124.629 178.911 124ZM181.055 124C181.055 124.352 181.087 124.677 181.151 124.976C181.215 125.275 181.311 125.536 181.439 125.76C181.567 125.984 181.732 126.16 181.935 126.288C182.148 126.405 182.399 126.464 182.687 126.464C183.231 126.464 183.636 126.267 183.903 125.872C184.169 125.477 184.303 124.853 184.303 124C184.303 123.264 184.18 122.672 183.935 122.224C183.689 121.765 183.273 121.536 182.687 121.536C182.175 121.536 181.775 121.728 181.487 122.112C181.199 122.496 181.055 123.125 181.055 124ZM187.057 120H188.161V118.496L190.241 117.904V120H192.193V121.76H190.241V124.832C190.241 125.387 190.294 125.787 190.401 126.032C190.518 126.267 190.731 126.384 191.041 126.384C191.254 126.384 191.435 126.363 191.585 126.32C191.745 126.277 191.921 126.213 192.113 126.128L192.481 127.728C192.193 127.867 191.857 127.984 191.473 128.08C191.089 128.176 190.699 128.224 190.305 128.224C189.569 128.224 189.025 128.037 188.673 127.664C188.331 127.28 188.161 126.656 188.161 125.792V121.76H187.057V120ZM198.363 128V123.456C198.363 122.805 198.272 122.336 198.091 122.048C197.909 121.76 197.579 121.616 197.099 121.616C196.747 121.616 196.421 121.739 196.123 121.984C195.835 122.219 195.643 122.523 195.547 122.896V128H193.467V116.8H195.547V120.896H195.611C195.867 120.555 196.181 120.283 196.555 120.08C196.928 119.877 197.403 119.776 197.979 119.776C198.384 119.776 198.741 119.829 199.051 119.936C199.36 120.043 199.616 120.219 199.819 120.464C200.032 120.709 200.187 121.045 200.283 121.472C200.389 121.888 200.443 122.405 200.443 123.024V128H198.363ZM17.6249 142.952C17.2942 142.835 16.9955 142.776 16.7289 142.776C16.3555 142.776 16.0409 142.877 15.7849 143.08C15.5395 143.272 15.3742 143.523 15.2889 143.832V149H13.2089V141H14.8249L15.0649 142.056H15.1289C15.3102 141.661 15.5555 141.357 15.8649 141.144C16.1742 140.931 16.5369 140.824 16.9529 140.824C17.2302 140.824 17.5449 140.883 17.8969 141L17.6249 142.952ZM25.2183 148.312C24.8983 148.568 24.4609 148.787 23.9063 148.968C23.3623 149.139 22.7809 149.224 22.1623 149.224C20.8716 149.224 19.9276 148.851 19.3303 148.104C18.7329 147.347 18.4342 146.312 18.4342 145C18.4342 143.592 18.7703 142.536 19.4423 141.832C20.1143 141.128 21.0583 140.776 22.2743 140.776C22.6796 140.776 23.0743 140.829 23.4583 140.936C23.8423 141.043 24.1836 141.219 24.4823 141.464C24.7809 141.709 25.0209 142.04 25.2023 142.456C25.3836 142.872 25.4743 143.389 25.4743 144.008C25.4743 144.232 25.4583 144.472 25.4263 144.728C25.4049 144.984 25.3676 145.251 25.3143 145.528H20.5143C20.5463 146.2 20.7169 146.707 21.0263 147.048C21.3463 147.389 21.8583 147.56 22.5623 147.56C22.9996 147.56 23.3889 147.496 23.7303 147.368C24.0823 147.229 24.3489 147.091 24.5303 146.952L25.2183 148.312ZM22.2423 142.44C21.6983 142.44 21.2929 142.605 21.0263 142.936C20.7703 143.256 20.6156 143.688 20.5623 144.232H23.5383C23.5809 143.656 23.4903 143.213 23.2663 142.904C23.0529 142.595 22.7116 142.44 22.2423 142.44ZM32.5291 148.504C32.2091 148.739 31.8198 148.915 31.3611 149.032C30.9131 149.16 30.4491 149.224 29.9691 149.224C29.3291 149.224 28.7851 149.123 28.3371 148.92C27.8998 148.717 27.5425 148.435 27.2651 148.072C26.9878 147.699 26.7851 147.251 26.6571 146.728C26.5398 146.205 26.4811 145.629 26.4811 145C26.4811 143.645 26.7851 142.605 27.3931 141.88C28.0011 141.144 28.8865 140.776 30.0491 140.776C30.6358 140.776 31.1051 140.824 31.4571 140.92C31.8198 141.016 32.1451 141.139 32.4331 141.288L31.9371 142.984C31.6918 142.867 31.4465 142.776 31.2011 142.712C30.9665 142.648 30.6945 142.616 30.3851 142.616C29.8091 142.616 29.3718 142.808 29.0731 143.192C28.7745 143.565 28.6251 144.168 28.6251 145C28.6251 145.341 28.6625 145.656 28.7371 145.944C28.8118 146.232 28.9238 146.483 29.0731 146.696C29.2225 146.909 29.4145 147.08 29.6491 147.208C29.8945 147.325 30.1771 147.384 30.4971 147.384C30.8491 147.384 31.1478 147.341 31.3931 147.256C31.6385 147.16 31.8571 147.048 32.0491 146.92L32.5291 148.504ZM33.1374 145C33.1374 143.645 33.468 142.605 34.1294 141.88C34.7907 141.144 35.7187 140.776 36.9134 140.776C37.5534 140.776 38.108 140.877 38.5774 141.08C39.0467 141.283 39.436 141.571 39.7454 141.944C40.0547 142.307 40.284 142.749 40.4334 143.272C40.5934 143.795 40.6734 144.371 40.6734 145C40.6734 146.355 40.3427 147.4 39.6814 148.136C39.0307 148.861 38.108 149.224 36.9134 149.224C36.2734 149.224 35.7187 149.123 35.2494 148.92C34.78 148.717 34.3854 148.435 34.0654 148.072C33.756 147.699 33.5214 147.251 33.3614 146.728C33.212 146.205 33.1374 145.629 33.1374 145ZM35.2814 145C35.2814 145.352 35.3134 145.677 35.3774 145.976C35.4414 146.275 35.5374 146.536 35.6654 146.76C35.7934 146.984 35.9587 147.16 36.1614 147.288C36.3747 147.405 36.6254 147.464 36.9134 147.464C37.4574 147.464 37.8627 147.267 38.1294 146.872C38.396 146.477 38.5294 145.853 38.5294 145C38.5294 144.264 38.4067 143.672 38.1614 143.224C37.916 142.765 37.5 142.536 36.9134 142.536C36.4014 142.536 36.0014 142.728 35.7134 143.112C35.4254 143.496 35.2814 144.125 35.2814 145ZM46.5311 142.952C46.2005 142.835 45.9018 142.776 45.6351 142.776C45.2618 142.776 44.9471 142.877 44.6911 143.08C44.4458 143.272 44.2805 143.523 44.1951 143.832V149H42.1151V141H43.7311L43.9711 142.056H44.0351C44.2165 141.661 44.4618 141.357 44.7711 141.144C45.0805 140.931 45.4431 140.824 45.8591 140.824C46.1365 140.824 46.4511 140.883 46.8031 141L46.5311 142.952ZM54.5245 146.184C54.5245 146.632 54.5298 147.08 54.5405 147.528C54.5512 147.976 54.5992 148.472 54.6845 149.016H53.1965L52.9085 147.976H52.8445C52.6312 148.349 52.3218 148.653 51.9165 148.888C51.5218 149.112 51.0525 149.224 50.5085 149.224C49.5058 149.224 48.7272 148.893 48.1725 148.232C47.6178 147.571 47.3405 146.536 47.3405 145.128C47.3405 143.763 47.6498 142.701 48.2685 141.944C48.8872 141.187 49.7938 140.808 50.9885 140.808C51.3192 140.808 51.5912 140.829 51.8045 140.872C52.0178 140.904 52.2312 140.963 52.4445 141.048V137.8H54.5245V146.184ZM50.9885 147.464C51.3938 147.464 51.7138 147.368 51.9485 147.176C52.1832 146.973 52.3485 146.685 52.4445 146.312V142.92C52.2952 142.803 52.1298 142.717 51.9485 142.664C51.7672 142.6 51.5325 142.568 51.2445 142.568C50.6578 142.568 50.2152 142.765 49.9165 143.16C49.6285 143.555 49.4845 144.232 49.4845 145.192C49.4845 145.875 49.6018 146.424 49.8365 146.84C50.0818 147.256 50.4658 147.464 50.9885 147.464ZM62.7495 148.312C62.4295 148.568 61.9922 148.787 61.4375 148.968C60.8935 149.139 60.3122 149.224 59.6935 149.224C58.4028 149.224 57.4588 148.851 56.8615 148.104C56.2642 147.347 55.9655 146.312 55.9655 145C55.9655 143.592 56.3015 142.536 56.9735 141.832C57.6455 141.128 58.5895 140.776 59.8055 140.776C60.2108 140.776 60.6055 140.829 60.9895 140.936C61.3735 141.043 61.7148 141.219 62.0135 141.464C62.3122 141.709 62.5522 142.04 62.7335 142.456C62.9148 142.872 63.0055 143.389 63.0055 144.008C63.0055 144.232 62.9895 144.472 62.9575 144.728C62.9362 144.984 62.8988 145.251 62.8455 145.528H58.0455C58.0775 146.2 58.2482 146.707 58.5575 147.048C58.8775 147.389 59.3895 147.56 60.0935 147.56C60.5308 147.56 60.9202 147.496 61.2615 147.368C61.6135 147.229 61.8802 147.091 62.0615 146.952L62.7495 148.312ZM59.7735 142.44C59.2295 142.44 58.8242 142.605 58.5575 142.936C58.3015 143.256 58.1468 143.688 58.0935 144.232H61.0695C61.1122 143.656 61.0215 143.213 60.7975 142.904C60.5842 142.595 60.2428 142.44 59.7735 142.44ZM71.2745 146.184C71.2745 146.632 71.2798 147.08 71.2905 147.528C71.3012 147.976 71.3492 148.472 71.4345 149.016H69.9465L69.6585 147.976H69.5945C69.3812 148.349 69.0718 148.653 68.6665 148.888C68.2718 149.112 67.8025 149.224 67.2585 149.224C66.2558 149.224 65.4772 148.893 64.9225 148.232C64.3678 147.571 64.0905 146.536 64.0905 145.128C64.0905 143.763 64.3998 142.701 65.0185 141.944C65.6372 141.187 66.5438 140.808 67.7385 140.808C68.0692 140.808 68.3412 140.829 68.5545 140.872C68.7678 140.904 68.9812 140.963 69.1945 141.048V137.8H71.2745V146.184ZM67.7385 147.464C68.1438 147.464 68.4638 147.368 68.6985 147.176C68.9332 146.973 69.0985 146.685 69.1945 146.312V142.92C69.0452 142.803 68.8798 142.717 68.6985 142.664C68.5172 142.6 68.2825 142.568 67.9945 142.568C67.4078 142.568 66.9652 142.765 66.6665 143.16C66.3785 143.555 66.2345 144.232 66.2345 145.192C66.2345 145.875 66.3518 146.424 66.5865 146.84C66.8318 147.256 67.2158 147.464 67.7385 147.464ZM76.3144 141H77.4184V139.496L79.4984 138.904V141H81.4504V142.76H79.4984V145.832C79.4984 146.387 79.5517 146.787 79.6584 147.032C79.7757 147.267 79.989 147.384 80.2984 147.384C80.5117 147.384 80.693 147.363 80.8424 147.32C81.0024 147.277 81.1784 147.213 81.3704 147.128L81.7384 148.728C81.4504 148.867 81.1144 148.984 80.7304 149.08C80.3464 149.176 79.957 149.224 79.5624 149.224C78.8264 149.224 78.2824 149.037 77.9304 148.664C77.589 148.28 77.4184 147.656 77.4184 146.792V142.76H76.3144V141ZM87.6205 149V144.456C87.6205 143.805 87.5298 143.336 87.3485 143.048C87.1672 142.76 86.8365 142.616 86.3565 142.616C86.0045 142.616 85.6792 142.739 85.3805 142.984C85.0925 143.219 84.9005 143.523 84.8045 143.896V149H82.7245V137.8H84.8045V141.896H84.8685C85.1245 141.555 85.4392 141.283 85.8125 141.08C86.1858 140.877 86.6605 140.776 87.2365 140.776C87.6418 140.776 87.9992 140.829 88.3085 140.936C88.6178 141.043 88.8738 141.219 89.0765 141.464C89.2898 141.709 89.4445 142.045 89.5405 142.472C89.6472 142.888 89.7005 143.405 89.7005 144.024V149H87.6205ZM97.8433 148.312C97.5233 148.568 97.0859 148.787 96.5313 148.968C95.9873 149.139 95.4059 149.224 94.7873 149.224C93.4966 149.224 92.5526 148.851 91.9553 148.104C91.3579 147.347 91.0592 146.312 91.0592 145C91.0592 143.592 91.3953 142.536 92.0673 141.832C92.7393 141.128 93.6833 140.776 94.8993 140.776C95.3046 140.776 95.6993 140.829 96.0833 140.936C96.4673 141.043 96.8086 141.219 97.1073 141.464C97.4059 141.709 97.6459 142.04 97.8273 142.456C98.0086 142.872 98.0993 143.389 98.0993 144.008C98.0993 144.232 98.0833 144.472 98.0513 144.728C98.0299 144.984 97.9926 145.251 97.9393 145.528H93.1393C93.1713 146.2 93.3419 146.707 93.6513 147.048C93.9713 147.389 94.4833 147.56 95.1873 147.56C95.6246 147.56 96.0139 147.496 96.3553 147.368C96.7073 147.229 96.9739 147.091 97.1553 146.952L97.8433 148.312ZM94.8673 142.44C94.3233 142.44 93.9179 142.605 93.6513 142.936C93.3953 143.256 93.2406 143.688 93.1873 144.232H96.1633C96.2059 143.656 96.1153 143.213 95.8913 142.904C95.6779 142.595 95.3366 142.44 94.8673 142.44ZM99.7603 141H101.84V149H99.7603V141ZM99.4563 138.744C99.4563 138.435 99.5683 138.173 99.7923 137.96C100.027 137.736 100.347 137.624 100.752 137.624C101.158 137.624 101.483 137.736 101.728 137.96C101.984 138.173 102.112 138.435 102.112 138.744C102.112 139.053 101.984 139.315 101.728 139.528C101.483 139.731 101.158 139.832 100.752 139.832C100.347 139.832 100.027 139.731 99.7923 139.528C99.5683 139.315 99.4563 139.053 99.4563 138.744ZM108.281 142.952C107.95 142.835 107.652 142.776 107.385 142.776C107.012 142.776 106.697 142.877 106.441 143.08C106.196 143.272 106.03 143.523 105.945 143.832V149H103.865V141H105.481L105.721 142.056H105.785C105.966 141.661 106.212 141.357 106.521 141.144C106.83 140.931 107.193 140.824 107.609 140.824C107.886 140.824 108.201 140.883 108.553 141L108.281 142.952ZM113.473 141.464C113.9 141.272 114.407 141.123 114.993 141.016C115.58 140.899 116.193 140.84 116.833 140.84C117.388 140.84 117.852 140.909 118.225 141.048C118.599 141.176 118.892 141.363 119.105 141.608C119.329 141.853 119.484 142.147 119.569 142.488C119.665 142.829 119.713 143.213 119.713 143.64C119.713 144.109 119.697 144.584 119.665 145.064C119.633 145.533 119.612 145.997 119.601 146.456C119.601 146.915 119.617 147.363 119.649 147.8C119.681 148.227 119.761 148.632 119.889 149.016H118.193L117.857 147.912H117.777C117.564 148.243 117.265 148.531 116.881 148.776C116.508 149.011 116.023 149.128 115.425 149.128C115.052 149.128 114.716 149.075 114.417 148.968C114.119 148.851 113.863 148.691 113.649 148.488C113.436 148.275 113.271 148.029 113.153 147.752C113.036 147.464 112.977 147.144 112.977 146.792C112.977 146.301 113.084 145.891 113.297 145.56C113.521 145.219 113.836 144.947 114.241 144.744C114.657 144.531 115.148 144.387 115.713 144.312C116.289 144.227 116.929 144.2 117.633 144.232C117.708 143.635 117.665 143.208 117.505 142.952C117.345 142.685 116.988 142.552 116.433 142.552C116.017 142.552 115.575 142.595 115.105 142.68C114.647 142.765 114.268 142.877 113.969 143.016L113.473 141.464ZM116.113 147.416C116.529 147.416 116.86 147.325 117.105 147.144C117.351 146.952 117.532 146.749 117.649 146.536V145.496C117.319 145.464 116.999 145.459 116.689 145.48C116.391 145.501 116.124 145.549 115.889 145.624C115.655 145.699 115.468 145.805 115.329 145.944C115.191 146.083 115.121 146.259 115.121 146.472C115.121 146.771 115.207 147.005 115.377 147.176C115.559 147.336 115.804 147.416 116.113 147.416ZM123.459 141V145.544C123.459 146.195 123.534 146.664 123.683 146.952C123.843 147.24 124.147 147.384 124.595 147.384C124.99 147.384 125.315 147.267 125.571 147.032C125.838 146.797 126.035 146.509 126.163 146.168V141H128.243V146.568C128.243 147.005 128.264 147.437 128.307 147.864C128.35 148.28 128.414 148.659 128.499 149H126.931L126.563 147.816H126.499C126.254 148.221 125.912 148.557 125.475 148.824C125.038 149.091 124.52 149.224 123.923 149.224C123.518 149.224 123.155 149.171 122.835 149.064C122.515 148.957 122.248 148.781 122.035 148.536C121.822 148.291 121.656 147.96 121.539 147.544C121.432 147.128 121.379 146.605 121.379 145.976V141H123.459ZM136.868 146.184C136.868 146.632 136.874 147.08 136.884 147.528C136.895 147.976 136.943 148.472 137.028 149.016H135.54L135.252 147.976H135.188C134.975 148.349 134.666 148.653 134.26 148.888C133.866 149.112 133.396 149.224 132.852 149.224C131.85 149.224 131.071 148.893 130.516 148.232C129.962 147.571 129.684 146.536 129.684 145.128C129.684 143.763 129.994 142.701 130.612 141.944C131.231 141.187 132.138 140.808 133.332 140.808C133.663 140.808 133.935 140.829 134.148 140.872C134.362 140.904 134.575 140.963 134.788 141.048V137.8H136.868V146.184ZM133.332 147.464C133.738 147.464 134.058 147.368 134.292 147.176C134.527 146.973 134.692 146.685 134.788 146.312V142.92C134.639 142.803 134.474 142.717 134.292 142.664C134.111 142.6 133.876 142.568 133.588 142.568C133.002 142.568 132.559 142.765 132.26 143.16C131.972 143.555 131.828 144.232 131.828 145.192C131.828 145.875 131.946 146.424 132.18 146.84C132.426 147.256 132.81 147.464 133.332 147.464ZM138.885 141H140.965V149H138.885V141ZM138.581 138.744C138.581 138.435 138.693 138.173 138.917 137.96C139.152 137.736 139.472 137.624 139.877 137.624C140.283 137.624 140.608 137.736 140.853 137.96C141.109 138.173 141.237 138.435 141.237 138.744C141.237 139.053 141.109 139.315 140.853 139.528C140.608 139.731 140.283 139.832 139.877 139.832C139.472 139.832 139.152 139.731 138.917 139.528C138.693 139.315 138.581 139.053 138.581 138.744ZM142.606 145C142.606 143.645 142.937 142.605 143.598 141.88C144.259 141.144 145.187 140.776 146.382 140.776C147.022 140.776 147.577 140.877 148.046 141.08C148.515 141.283 148.905 141.571 149.214 141.944C149.523 142.307 149.753 142.749 149.902 143.272C150.062 143.795 150.142 144.371 150.142 145C150.142 146.355 149.811 147.4 149.15 148.136C148.499 148.861 147.577 149.224 146.382 149.224C145.742 149.224 145.187 149.123 144.718 148.92C144.249 148.717 143.854 148.435 143.534 148.072C143.225 147.699 142.99 147.251 142.83 146.728C142.681 146.205 142.606 145.629 142.606 145ZM144.75 145C144.75 145.352 144.782 145.677 144.846 145.976C144.91 146.275 145.006 146.536 145.134 146.76C145.262 146.984 145.427 147.16 145.63 147.288C145.843 147.405 146.094 147.464 146.382 147.464C146.926 147.464 147.331 147.267 147.598 146.872C147.865 146.477 147.998 145.853 147.998 145C147.998 144.264 147.875 143.672 147.63 143.224C147.385 142.765 146.969 142.536 146.382 142.536C145.87 142.536 145.47 142.728 145.182 143.112C144.894 143.496 144.75 144.125 144.75 145ZM155.247 145C155.247 143.645 155.577 142.605 156.239 141.88C156.9 141.144 157.828 140.776 159.023 140.776C159.663 140.776 160.217 140.877 160.687 141.08C161.156 141.283 161.545 141.571 161.855 141.944C162.164 142.307 162.393 142.749 162.543 143.272C162.703 143.795 162.783 144.371 162.783 145C162.783 146.355 162.452 147.4 161.791 148.136C161.14 148.861 160.217 149.224 159.023 149.224C158.383 149.224 157.828 149.123 157.359 148.92C156.889 148.717 156.495 148.435 156.175 148.072C155.865 147.699 155.631 147.251 155.471 146.728C155.321 146.205 155.247 145.629 155.247 145ZM157.391 145C157.391 145.352 157.423 145.677 157.487 145.976C157.551 146.275 157.647 146.536 157.775 146.76C157.903 146.984 158.068 147.16 158.271 147.288C158.484 147.405 158.735 147.464 159.023 147.464C159.567 147.464 159.972 147.267 160.239 146.872C160.505 146.477 160.639 145.853 160.639 145C160.639 144.264 160.516 143.672 160.271 143.224C160.025 142.765 159.609 142.536 159.023 142.536C158.511 142.536 158.111 142.728 157.823 143.112C157.535 143.496 157.391 144.125 157.391 145ZM169.121 149V144.456C169.121 143.805 169.025 143.336 168.833 143.048C168.651 142.76 168.337 142.616 167.889 142.616C167.494 142.616 167.158 142.733 166.881 142.968C166.614 143.192 166.422 143.475 166.305 143.816V149H164.225V141H165.873L166.113 142.056H166.177C166.422 141.715 166.747 141.416 167.153 141.16C167.558 140.904 168.081 140.776 168.721 140.776C169.115 140.776 169.467 140.829 169.777 140.936C170.086 141.043 170.347 141.219 170.561 141.464C170.774 141.709 170.934 142.045 171.041 142.472C171.147 142.888 171.201 143.405 171.201 144.024V149H169.121ZM177.182 141H179.262V149H177.182V141ZM176.878 138.744C176.878 138.435 176.99 138.173 177.214 137.96C177.449 137.736 177.769 137.624 178.174 137.624C178.579 137.624 178.905 137.736 179.15 137.96C179.406 138.173 179.534 138.435 179.534 138.744C179.534 139.053 179.406 139.315 179.15 139.528C178.905 139.731 178.579 139.832 178.174 139.832C177.769 139.832 177.449 139.731 177.214 139.528C176.99 139.315 176.878 139.053 176.878 138.744ZM180.455 141H181.559V139.496L183.639 138.904V141H185.591V142.76H183.639V145.832C183.639 146.387 183.692 146.787 183.799 147.032C183.916 147.267 184.13 147.384 184.439 147.384C184.652 147.384 184.834 147.363 184.983 147.32C185.143 147.277 185.319 147.213 185.511 147.128L185.879 148.728C185.591 148.867 185.255 148.984 184.871 149.08C184.487 149.176 184.098 149.224 183.703 149.224C182.967 149.224 182.423 149.037 182.071 148.664C181.73 148.28 181.559 147.656 181.559 146.792V142.76H180.455V141ZM190.177 146.792C190.177 146.579 190.086 146.408 189.905 146.28C189.724 146.152 189.5 146.035 189.233 145.928C188.966 145.821 188.673 145.715 188.353 145.608C188.033 145.491 187.74 145.336 187.473 145.144C187.206 144.941 186.982 144.691 186.801 144.392C186.62 144.083 186.529 143.688 186.529 143.208C186.529 142.419 186.764 141.816 187.233 141.4C187.702 140.984 188.38 140.776 189.265 140.776C189.873 140.776 190.422 140.84 190.913 140.968C191.404 141.096 191.788 141.24 192.065 141.4L191.601 142.904C191.356 142.808 191.046 142.707 190.673 142.6C190.3 142.493 189.921 142.44 189.537 142.44C188.918 142.44 188.609 142.68 188.609 143.16C188.609 143.352 188.7 143.507 188.881 143.624C189.062 143.741 189.286 143.853 189.553 143.96C189.82 144.056 190.113 144.163 190.433 144.28C190.753 144.397 191.046 144.552 191.313 144.744C191.58 144.925 191.804 145.165 191.985 145.464C192.166 145.763 192.257 146.147 192.257 146.616C192.257 147.427 191.996 148.067 191.473 148.536C190.961 148.995 190.188 149.224 189.153 149.224C188.588 149.224 188.054 149.149 187.553 149C187.062 148.861 186.662 148.696 186.353 148.504L186.929 146.952C187.174 147.091 187.5 147.229 187.905 147.368C188.31 147.496 188.726 147.56 189.153 147.56C189.462 147.56 189.708 147.501 189.889 147.384C190.081 147.267 190.177 147.069 190.177 146.792ZM86.7077 166C86.7077 164.645 87.0384 163.605 87.6997 162.88C88.361 162.144 89.289 161.776 90.4837 161.776C91.1237 161.776 91.6784 161.877 92.1477 162.08C92.617 162.283 93.0064 162.571 93.3157 162.944C93.625 163.307 93.8544 163.749 94.0037 164.272C94.1637 164.795 94.2437 165.371 94.2437 166C94.2437 167.355 93.913 168.4 93.2517 169.136C92.601 169.861 91.6784 170.224 90.4837 170.224C89.8437 170.224 89.289 170.123 88.8197 169.92C88.3504 169.717 87.9557 169.435 87.6357 169.072C87.3264 168.699 87.0917 168.251 86.9317 167.728C86.7824 167.205 86.7077 166.629 86.7077 166ZM88.8517 166C88.8517 166.352 88.8837 166.677 88.9477 166.976C89.0117 167.275 89.1077 167.536 89.2357 167.76C89.3637 167.984 89.529 168.16 89.7317 168.288C89.945 168.405 90.1957 168.464 90.4837 168.464C91.0277 168.464 91.433 168.267 91.6997 167.872C91.9664 167.477 92.0997 166.853 92.0997 166C92.0997 165.264 91.977 164.672 91.7317 164.224C91.4864 163.765 91.0704 163.536 90.4837 163.536C89.9717 163.536 89.5717 163.728 89.2837 164.112C88.9957 164.496 88.8517 165.125 88.8517 166ZM101.337 162L102.793 166.096L103.081 167.424H103.145L103.369 166.08L104.393 162H106.297L103.833 170.08H102.297L100.681 165.6L100.473 164.592H100.393L100.201 165.616L98.6648 170.08H97.0808L94.5048 162H96.7608L97.9288 166.016L98.1208 167.44H98.2008L98.4728 166L99.8008 162H101.337ZM111.972 170V165.456C111.972 164.805 111.876 164.336 111.684 164.048C111.503 163.76 111.188 163.616 110.74 163.616C110.345 163.616 110.009 163.733 109.732 163.968C109.465 164.192 109.273 164.475 109.156 164.816V170H107.076V162H108.724L108.964 163.056H109.028C109.273 162.715 109.599 162.416 110.004 162.16C110.409 161.904 110.932 161.776 111.572 161.776C111.967 161.776 112.319 161.829 112.628 161.936C112.937 162.043 113.199 162.219 113.412 162.464C113.625 162.709 113.785 163.045 113.892 163.472C113.999 163.888 114.052 164.405 114.052 165.024V170H111.972ZM115.555 168.944C115.555 168.571 115.672 168.277 115.907 168.064C116.141 167.84 116.451 167.728 116.835 167.728C117.24 167.728 117.56 167.84 117.795 168.064C118.029 168.277 118.147 168.571 118.147 168.944C118.147 169.317 118.029 169.616 117.795 169.84C117.56 170.064 117.24 170.176 116.835 170.176C116.451 170.176 116.141 170.064 115.907 169.84C115.672 169.616 115.555 169.317 115.555 168.944Z" fill="#A3C4BC"/>
</svg>
